<?xml version="1.0" encoding="utf-8"?>
<!-- Generator: Adobe Illustrator 16.0.0, SVG Export Plug-In . SVG Version: 6.00 Build 0)  -->
<!DOCTYPE svg PUBLIC "-//W3C//DTD SVG 1.1//EN" "http://www.w3.org/Graphics/SVG/1.1/DTD/svg11.dtd">
<svg version="1.1" id="Capa_1" xmlns="http://www.w3.org/2000/svg" xmlns:xlink="http://www.w3.org/1999/xlink" x="0px" y="0px"
	 width="24px" height="24px" viewBox="0 0 24 24" enable-background="new 0 0 24 24" xml:space="preserve">
<circle fill="#FFFFFF" stroke="#FFFFFF" stroke-miterlimit="10" cx="12.001" cy="10.25" r="9"/>
<g id="Capa_1_1_" display="none">
	<circle display="inline" fill="#9A7D22" cx="12" cy="10.4" r="10"/>
</g>
<g id="Capa_3">
	<path fill="#B5343A" d="M11.997,0.001L11.997,0.001c-5.66-0.085-10.315,4.434-10.4,10.093c0,0.044,0,0.089,0,0.133
		c0,3.126,1.311,5.527,3.563,7.753c2.972,2.929,5.813,5.599,5.813,5.599c0.311,0.3,0.736,0.45,1.167,0.412v-0.412l0,0V24
		c0.367-0.079,0.715-0.232,1.021-0.455c0,0,2.741-2.74,5.696-5.652c2.254-2.221,3.547-4.533,3.547-7.677
		C22.376,4.547,17.759-0.027,12.09,0C12.06,0,12.028,0,11.997,0.001z M11.997,19c-4.946,0.003-8.957-4.004-8.959-8.949
		c-0.003-4.945,4.003-8.956,8.948-8.959c4.944-0.002,8.956,4.003,8.958,8.949c0,0.003,0,0.007,0,0.011
		C20.939,14.995,16.936,19,11.991,19H11.997z"/>
</g>
<polygon fill="#B5343A" stroke="#B5343A" stroke-width="0.25" stroke-linecap="round" stroke-linejoin="round" stroke-miterlimit="10" points="
	6.8,6.712 12.001,2.551 17.201,6.712 "/>
<rect x="6.8" y="7.187" fill="#B5343A" stroke="#B5343A" stroke-width="0.25" stroke-linecap="round" stroke-linejoin="round" stroke-miterlimit="10" width="10.401" height="6.76"/>
<line fill="none" stroke="#B5343A" stroke-width="0.5" stroke-linecap="round" stroke-linejoin="round" stroke-miterlimit="10" x1="5.501" y1="14.604" x2="18.501" y2="14.604"/>
<path fill="#FFFFFF" d="M14.298,7.566c-0.436,0-0.791,0.275-0.791,0.613v5.387h1.581V8.179C15.088,7.841,14.734,7.566,14.298,7.566z
	"/>
<path fill="#FFFFFF" d="M9.479,7.567c-0.435,0-0.79,0.275-0.79,0.613v5.388h1.579V8.18C10.269,7.842,9.916,7.567,9.479,7.567z"/>
<g>
	<path fill="#FFFFFF" stroke="#B5343A" stroke-width="0.1" stroke-miterlimit="10" d="M13.707,14.578
		c0.154,0.143,0.366,0.053,0.508-0.1l0.36-0.386l-0.688-0.663l-0.363,0.385c-0.143,0.153-0.232,0.354-0.078,0.498l0.035,0.032
		c-0.281,0.222-0.684,0.212-0.957-0.021c0,0-0.879,0.388-0.786,1.25c0.019,0.406-0.111,0.808-0.369,1.123l0.994-1.077
		c-0.096-0.104-0.089-0.271,0.018-0.371c0.007-0.004,0.011-0.01,0.018-0.015c0.154-0.102,0.363-0.061,0.462,0.094
		c0.068,0.105,0.074,0.238,0.012,0.348c-0.1,0.109-0.262,0.137-0.385,0.057l-1.027,1.061c0.319-0.232,0.694-0.377,1.086-0.427
		c0.866,0.04,1.21-0.858,1.21-0.858c-0.249-0.258-0.284-0.656-0.08-0.953L13.707,14.578z"/>
	<path fill="#FFFFFF" stroke="#B5343A" stroke-width="0.1" stroke-miterlimit="10" d="M19.814,7.821
		c-0.252-0.236-1.834,1.04-3.578,2.898c-0.508,0.542-1.441,1.571-2.189,2.428l0.816,0.771c0.813-0.804,1.768-1.785,2.275-2.327
		C18.88,9.722,20.068,8.06,19.814,7.821z"/>
</g>
</svg>
