<?xml version="1.0" encoding="utf-8"?>
<!-- Generator: Adobe Illustrator 16.0.0, SVG Export Plug-In . SVG Version: 6.00 Build 0)  -->
<!DOCTYPE svg PUBLIC "-//W3C//DTD SVG 1.1//EN" "http://www.w3.org/Graphics/SVG/1.1/DTD/svg11.dtd">
<svg version="1.1" id="Capa_1" xmlns="http://www.w3.org/2000/svg" xmlns:xlink="http://www.w3.org/1999/xlink" x="0px" y="0px"
	 width="24px" height="24px" viewBox="0 0 24 24" enable-background="new 0 0 24 24" xml:space="preserve">
<circle fill="#FFFFFF" stroke="#FFFFFF" stroke-miterlimit="10" cx="12.001" cy="10.25" r="9"/>
<g id="Capa_3">
	<path fill="#B5343A" d="M11.997,0.001L11.997,0.001c-5.66-0.085-10.315,4.434-10.4,10.093c0,0.044,0,0.089,0,0.133
		c0,3.126,1.311,5.527,3.563,7.753c2.972,2.929,5.813,5.599,5.813,5.599c0.311,0.3,0.736,0.45,1.167,0.412v-0.412l0,0V24
		c0.367-0.079,0.715-0.232,1.021-0.455c0,0,2.741-2.74,5.696-5.652c2.254-2.221,3.547-4.533,3.547-7.677
		C22.376,4.547,17.759-0.027,12.09,0C12.06,0,12.028,0,11.997,0.001z M11.997,19c-4.946,0.003-8.957-4.004-8.959-8.949
		c-0.003-4.945,4.003-8.956,8.948-8.959c4.944-0.002,8.956,4.003,8.958,8.949c0,0.003,0,0.007,0,0.011
		C20.939,14.995,16.936,19,11.991,19H11.997z"/>
</g>
<polygon fill="#B5343A" stroke="#B5343A" stroke-width="0.25" stroke-linecap="round" stroke-linejoin="round" stroke-miterlimit="10" points="
	6.8,6.712 12.001,2.551 17.201,6.712 "/>
<rect x="6.8" y="7.187" fill="#B5343A" stroke="#B5343A" stroke-width="0.25" stroke-linecap="round" stroke-linejoin="round" stroke-miterlimit="10" width="10.401" height="6.76"/>
<line fill="none" stroke="#B5343A" stroke-width="0.5" stroke-linecap="round" stroke-linejoin="round" stroke-miterlimit="10" x1="5.501" y1="14.604" x2="18.501" y2="14.604"/>
<g>
	<path fill="#FFFFFF" stroke="#B5343A" stroke-width="0.1" stroke-miterlimit="10" d="M10.97,12.436
		c0.149,0.137,0.35,0.051,0.487-0.095l0.344-0.37l-0.658-0.633l-0.348,0.367c-0.137,0.146-0.221,0.339-0.075,0.476l0.033,0.031
		c-0.269,0.213-0.653,0.202-0.915-0.02c0,0-0.84,0.369-0.751,1.194c0.019,0.388-0.105,0.772-0.352,1.073l0.95-1.032
		c-0.091-0.096-0.085-0.258,0.018-0.353c0.007-0.006,0.011-0.012,0.017-0.017c0.148-0.096,0.347-0.057,0.443,0.093
		c0.067,0.097,0.073,0.226,0.012,0.33c-0.094,0.103-0.251,0.131-0.369,0.057L8.825,14.55c0.305-0.224,0.663-0.361,1.037-0.408
		c0.829,0.039,1.158-0.821,1.158-0.821c-0.238-0.246-0.272-0.625-0.076-0.911L10.97,12.436z"/>
	<path fill="#FFFFFF" stroke="#B5343A" stroke-width="0.1" stroke-miterlimit="10" d="M16.808,5.977
		c-0.24-0.225-1.752,0.994-3.418,2.771c-0.486,0.517-1.378,1.502-2.093,2.321l0.781,0.737c0.775-0.769,1.689-1.706,2.175-2.224
		C15.915,7.794,17.051,6.206,16.808,5.977z"/>
</g>
</svg>
