<?xml version="1.0" encoding="utf-8"?>
<!-- Generator: Adobe Illustrator 16.0.0, SVG Export Plug-In . SVG Version: 6.00 Build 0)  -->
<!DOCTYPE svg PUBLIC "-//W3C//DTD SVG 1.1//EN" "http://www.w3.org/Graphics/SVG/1.1/DTD/svg11.dtd">
<svg version="1.1" id="Capa_1" xmlns="http://www.w3.org/2000/svg" xmlns:xlink="http://www.w3.org/1999/xlink" x="0px" y="0px"
	 width="24px" height="24px" viewBox="0 0 24 24" enable-background="new 0 0 24 24" xml:space="preserve">
<circle fill="#FFFFFF" stroke="#FFFFFF" stroke-miterlimit="10" cx="12.001" cy="10.25" r="9"/>
<g id="Capa_3">
	<path fill="#B5343A" d="M11.997,0.001L11.997,0.001c-5.66-0.085-10.315,4.434-10.4,10.093c0,0.044,0,0.089,0,0.133
		c0,3.126,1.311,5.527,3.563,7.753c2.972,2.929,5.813,5.599,5.813,5.599c0.311,0.3,0.736,0.45,1.167,0.412v-0.412l0,0V24
		c0.367-0.079,0.715-0.232,1.021-0.455c0,0,2.741-2.74,5.696-5.652c2.254-2.221,3.547-4.533,3.547-7.677
		C22.376,4.547,17.759-0.027,12.09,0C12.06,0,12.028,0,11.997,0.001z M11.997,19c-4.946,0.003-8.957-4.004-8.959-8.949
		c-0.003-4.945,4.003-8.956,8.948-8.959c4.944-0.002,8.956,4.003,8.958,8.949c0,0.003,0,0.007,0,0.011
		C20.939,14.995,16.936,19,11.991,19H11.997z"/>
</g>
<polygon fill="#B5343A" stroke="#B5343A" stroke-width="0.25" stroke-linecap="round" stroke-linejoin="round" stroke-miterlimit="10" points="
	6.8,6.712 12.001,2.551 17.201,6.712 "/>
<rect x="6.8" y="7.187" fill="#B5343A" stroke="#B5343A" stroke-width="0.25" stroke-linecap="round" stroke-linejoin="round" stroke-miterlimit="10" width="10.401" height="6.76"/>
<line fill="none" stroke="#B5343A" stroke-width="0.5" stroke-linecap="round" stroke-linejoin="round" stroke-miterlimit="10" x1="5.501" y1="14.604" x2="18.501" y2="14.604"/>
<path fill="#FFFFFF" d="M15.298,7.566c-0.437,0-0.791,0.275-0.791,0.613v5.387h1.581V8.179C16.088,7.841,15.734,7.566,15.298,7.566z
	"/>
<path fill="#FFFFFF" d="M8.479,7.567c-0.435,0-0.79,0.275-0.79,0.613v5.388h1.579V8.18C9.269,7.842,8.916,7.567,8.479,7.567z"/>
<g>
	<path fill="#FFFFFF" d="M13.03,12.316c0.104,0.095,0.244,0.035,0.339-0.066l0.24-0.258l-0.459-0.441l-0.242,0.256
		c-0.095,0.102-0.154,0.236-0.052,0.332l0.023,0.021c-0.188,0.148-0.456,0.142-0.639-0.014c0,0-0.585,0.258-0.523,0.833
		c0.013,0.271-0.074,0.538-0.246,0.748l0.663-0.718c-0.064-0.068-0.06-0.181,0.012-0.247c0.005-0.003,0.008-0.007,0.012-0.011
		c0.103-0.067,0.242-0.04,0.309,0.063c0.046,0.069,0.05,0.158,0.008,0.231c-0.066,0.073-0.175,0.092-0.257,0.039l-0.685,0.707
		c0.213-0.155,0.463-0.252,0.724-0.285c0.578,0.027,0.807-0.572,0.807-0.572c-0.166-0.172-0.189-0.437-0.053-0.635L13.03,12.316z"/>
	<path fill="#FFFFFF" d="M17.102,7.812c-0.168-0.157-1.223,0.693-2.385,1.932c-0.339,0.361-0.961,1.048-1.46,1.619l0.545,0.514
		c0.541-0.536,1.178-1.19,1.517-1.551C16.479,9.079,17.271,7.971,17.102,7.812z"/>
</g>
</svg>
