<?xml version="1.0" encoding="UTF-8" standalone="no"?>
<!-- Generator: Adobe Illustrator 16.0.0, SVG Export Plug-In . SVG Version: 6.00 Build 0)  -->

<svg
   version="1.1"
   id="Capa_1"
   x="0px"
   y="0px"
   width="26.458px"
   height="33.042px"
   viewBox="0 0 26.458 33.042"
   enable-background="new 0 0 26.458 33.042"
   xml:space="preserve"
   sodipodi:docname="sismos_5.svg"
   inkscape:version="1.2.1 (9c6d41e410, 2022-07-14)"
   xmlns:inkscape="http://www.inkscape.org/namespaces/inkscape"
   xmlns:sodipodi="http://sodipodi.sourceforge.net/DTD/sodipodi-0.dtd"
   xmlns="http://www.w3.org/2000/svg"
   xmlns:svg="http://www.w3.org/2000/svg"><defs
   id="defs28" /><sodipodi:namedview
   id="namedview26"
   pagecolor="#ffffff"
   bordercolor="#000000"
   borderopacity="0.25"
   inkscape:showpageshadow="2"
   inkscape:pageopacity="0.0"
   inkscape:pagecheckerboard="0"
   inkscape:deskcolor="#d1d1d1"
   showgrid="false"
   inkscape:zoom="24.635313"
   inkscape:cx="13.233037"
   inkscape:cy="16.561592"
   inkscape:window-width="1920"
   inkscape:window-height="1017"
   inkscape:window-x="1912"
   inkscape:window-y="-8"
   inkscape:window-maximized="1"
   inkscape:current-layer="g38" />
<g
   id="g13">
	<path
   fill="#BF7D63"
   d="M13.234,0.612c-6.706,0-12.318,5.701-12.318,12.511c0,4.119,2.184,6.812,4.991,9.982   c2.494,2.848,5.146,4.658,7.327,9.568c2.343-4.91,4.995-6.721,7.486-9.568c2.653-3.171,4.993-5.863,4.993-9.982   c0-6.811-5.611-12.511-12.478-12.511H13.234z"
   id="path9"
   style="fill:#fc8d59;fill-opacity:1" />
	<path
   fill="#FFFFFF"
   d="M13.243,2.082c-5.944,0-10.919,4.991-10.919,10.951c0,3.604,1.936,5.962,4.424,8.736   c2.211,2.49,4.561,4.076,6.496,8.375c2.075-4.299,4.428-5.885,6.637-8.375c2.353-2.775,4.425-5.132,4.425-8.736   c0-5.961-4.974-10.951-11.059-10.951H13.243L13.243,2.082z"
   id="path11" />
</g><g
   id="g38"
   transform="translate(0.7221646,0.31770743)">
	<path
   class="st2"
   d="m 6.7,14.7 0.1,0.2 C 6.9,15 7,15.1 7.1,15 7.2,14.9 7.3,14.8 7.2,14.7 L 7.1,14.6 v 0 c -0.2,-0.4 0,-0.9 0.3,-1.2 0.2,-0.1 0.3,-0.3 0.3,-0.5 0,-0.2 0,-0.4 -0.1,-0.5 v -0.1 c 0.1,-0.1 0.1,-0.3 0.1,-0.4 0,-0.1 0.1,-0.2 0.1,-0.2 0.1,-0.1 0.1,-0.2 0,-0.3 -0.1,-0.1 -0.2,-0.1 -0.3,0 -0.1,0.1 -0.2,0.2 -0.2,0.3 -0.1,0.3 -0.1,0.5 0,0.7 v 0.1 c 0,0.1 0.1,0.2 0,0.3 0,0.1 -0.1,0.2 -0.2,0.3 -0.4,0.4 -0.6,1 -0.4,1.6 z"
   id="path22"
   style="fill:#fc8d59;stroke:#706c66;stroke-width:0.1;stroke-miterlimit:10;fill-opacity:1" />
	<path
   class="st2"
   d="m 5.7,14.6 c 0.1,0.1 0.2,0.2 0.3,0.1 0.1,0 0.1,-0.2 0.1,-0.3 C 6,14.2 6,14 6.1,13.8 c 0,-0.2 0.2,-0.4 0.3,-0.5 0.2,-0.1 0.3,-0.3 0.3,-0.5 0,-0.2 0,-0.4 0,-0.5 v -0.1 0 C 6.6,12 6.6,11.9 6.6,11.7 c 0,-0.1 0.1,-0.2 0.1,-0.2 0.1,-0.1 0.1,-0.2 0,-0.3 -0.1,-0.1 -0.2,-0.1 -0.3,0 -0.1,0.1 -0.2,0.3 -0.2,0.4 -0.1,0.2 -0.1,0.5 0,0.7 v 0 0.1 c 0,0.1 0.1,0.2 0,0.3 0,0.1 -0.1,0.2 -0.2,0.3 -0.2,0.2 -0.4,0.5 -0.5,0.8 0,0.2 0,0.5 0.2,0.8 z"
   id="path24"
   style="fill:#fc8d59;stroke:#706c66;stroke-width:0.1;stroke-miterlimit:10;fill-opacity:1" />
	<path
   class="st2"
   d="m 4.7,14.2 c 0.1,0 0.2,0 0.3,-0.1 C 5,14 5,14 5,13.9 5,13.8 5,13.6 5,13.5 5,13.3 5.2,13.1 5.3,13 v 0 c 0.2,-0.1 0.3,-0.3 0.3,-0.5 0,-0.2 0,-0.4 0,-0.5 v -0.1 0 c -0.1,-0.1 -0.1,-0.3 0,-0.4 0,0 0,-0.1 0.1,-0.1 0.1,-0.1 0.1,-0.2 0,-0.3 0,0 -0.1,-0.1 -0.2,-0.1 -0.1,0 -0.1,0 -0.1,0 -0.1,0.1 -0.2,0.2 -0.2,0.3 -0.1,0.2 -0.1,0.5 0,0.7 v 0 0.1 c 0,0.1 0.1,0.2 0,0.3 0,0.1 -0.1,0.2 -0.2,0.3 -0.5,0.3 -0.6,0.9 -0.5,1.5 0.1,0 0.2,0 0.2,0 z"
   id="path26"
   style="fill:#fc8d59;stroke:#706c66;stroke-width:0.1;stroke-miterlimit:10;fill-opacity:1" />
	<path
   class="st2"
   d="m 17.9,12.6 c -0.1,0 -0.1,0 -0.2,0 -0.1,0.1 -0.2,0.2 -0.1,0.3 0,0.1 0.1,0.2 0.1,0.3 0,0.1 -0.1,0.3 -0.2,0.4 v 0 0 c -0.1,0.1 -0.2,0.3 -0.2,0.5 0,0.2 0.1,0.4 0.2,0.6 0.3,0.4 0.3,0.9 0,1.2 L 17.4,16 c -0.1,0.1 -0.1,0.2 0,0.3 l 0.1,0.1 v 0 c 0.1,0 0.1,0 0.2,-0.1 l 0.1,-0.1 c 0.4,-0.5 0.4,-1.2 0,-1.7 -0.1,-0.1 -0.1,-0.2 -0.1,-0.3 0,-0.1 0,-0.2 0.1,-0.2 v -0.1 0 C 18,13.7 18,13.5 18,13.2 c 0,-0.1 -0.1,-0.3 -0.1,-0.4 0.1,-0.1 0,-0.2 0,-0.2 z"
   id="path28"
   style="fill:#fc8d59;stroke:#706c66;stroke-width:0.1;stroke-miterlimit:10;fill-opacity:1" />
	<path
   class="st2"
   d="m 18.8,15.5 c 0,0.2 -0.1,0.4 -0.2,0.6 -0.1,0.1 0,0.2 0.1,0.3 0.1,0 0.2,0 0.3,0 0.2,-0.3 0.3,-0.6 0.3,-0.9 0,-0.3 -0.1,-0.6 -0.3,-0.9 -0.1,-0.1 -0.1,-0.2 -0.1,-0.3 0,-0.1 0,-0.2 0.1,-0.2 L 19.1,14 c 0.2,-0.2 0.2,-0.4 0.2,-0.7 0,-0.1 -0.1,-0.3 -0.1,-0.4 -0.1,-0.1 -0.2,-0.1 -0.3,-0.1 -0.1,0.1 -0.1,0.2 -0.1,0.3 0,0.1 0.1,0.2 0.1,0.3 0,0.1 -0.1,0.3 -0.2,0.4 v 0 0 c -0.1,0.1 -0.2,0.3 -0.2,0.5 0,0.2 0.1,0.4 0.2,0.6 0.1,0.1 0.1,0.3 0.1,0.6 z"
   id="path30"
   style="fill:#fc8d59;stroke:#706c66;stroke-width:0.1;stroke-miterlimit:10;fill-opacity:1" />
	<path
   class="st2"
   d="m 19.7,14.8 c 0.1,0.2 0.2,0.4 0.2,0.6 v 0 c 0,0.1 0,0.3 -0.1,0.4 -0.1,0.1 -0.1,0.2 0,0.3 l 0.1,0.1 v 0 c 0.1,0 0.1,0 0.2,-0.1 0.3,-0.5 0.3,-1.1 -0.1,-1.5 -0.1,-0.1 -0.1,-0.2 -0.1,-0.3 0,-0.1 0,-0.2 0.1,-0.2 L 20.1,14 c 0.2,-0.2 0.2,-0.4 0.2,-0.7 0,-0.1 0,-0.2 -0.1,-0.3 -0.1,-0.1 -0.2,-0.1 -0.3,-0.1 -0.1,0.1 -0.1,0.2 -0.1,0.3 v 0.1 c 0,0.1 -0.1,0.3 -0.2,0.4 v 0 0 c -0.1,0.1 -0.2,0.3 -0.2,0.5 0.1,0.3 0.1,0.4 0.3,0.6 z"
   id="path32"
   style="fill:#fc8d59;stroke:#706c66;stroke-width:0.1;stroke-miterlimit:10;fill-opacity:1" />
	<path
   class="st2"
   d="m 8.3,10.5 5,-2.8 4.2,3.9 c 0.1,0.1 0.3,0.1 0.4,0 0.1,-0.1 0.1,-0.3 0,-0.4 v 0 L 13.5,7.1 C 13.4,7 13.3,7 13.2,7.1 L 10.8,8.5 11,7.1 C 11,6.9 10.9,6.8 10.8,6.8 10.5,6.8 10.4,6.9 10.4,7 L 10.1,8.9 8,10.1 c -0.1,0 -0.2,0.2 -0.1,0.3 0.1,0.2 0.2,0.2 0.4,0.1 z"
   id="path34"
   style="fill:#fc8d59;stroke:#706c66;stroke-width:0.1;stroke-miterlimit:10;fill-opacity:1" />
	<path
   class="st2"
   d="m 19.3,17.6 h -3.1 l 0.7,-5.5 c 0,-0.1 0,-0.2 -0.1,-0.2 L 13.3,8.7 C 13.2,8.6 13.1,8.6 13,8.7 l -4.1,2.2 c -0.1,0 -0.1,0.1 -0.1,0.2 l -0.7,5.6 c 0,0.1 0.1,0.3 0.2,0.3 l 5.6,0.7 H 5.7 c -0.2,0 -0.3,0.1 -0.3,0.3 0,0.2 0.1,0.3 0.3,0.3 h 13.6 c 0.2,0 0.3,-0.1 0.3,-0.3 0,-0.3 -0.1,-0.4 -0.3,-0.4 z m -8.1,-0.8 0.4,-3.5 2,0.2 -0.4,3.5 z m 2.4,0.3 0.5,-3.7 c 0,-0.1 -0.1,-0.2 -0.2,-0.2 l -2.4,-0.4 c -0.1,0 -0.2,0.1 -0.2,0.2 l -0.5,3.7 -2.2,-0.3 0.6,-5.2 3.9,-2.2 3.3,3 -0.6,5.2 z"
   id="path36"
   style="fill:#fc8d59;stroke:#706c66;stroke-width:0.1;stroke-miterlimit:10;fill-opacity:1" />
</g>

</svg>
