<?xml version="1.0" encoding="utf-8"?>
<!-- Generator: Adobe Illustrator 16.0.0, SVG Export Plug-In . SVG Version: 6.00 Build 0)  -->
<!DOCTYPE svg PUBLIC "-//W3C//DTD SVG 1.1//EN" "http://www.w3.org/Graphics/SVG/1.1/DTD/svg11.dtd">
<svg version="1.1" id="Capa_1" xmlns="http://www.w3.org/2000/svg" xmlns:xlink="http://www.w3.org/1999/xlink" x="0px" y="0px"
	 width="26.458px" height="33.042px" viewBox="0 0 26.458 33.042" enable-background="new 0 0 26.458 33.042" xml:space="preserve">
<g>
	<path fill="#A1696B" d="M13.322,0.094c-6.889,0-12.656,5.858-12.656,12.855c0,4.229,2.243,6.998,5.128,10.255
		c2.563,2.927,5.288,4.787,7.528,9.832c2.406-5.045,5.131-6.905,7.693-9.832c2.726-3.258,5.13-6.025,5.13-10.255
		c0-6.998-5.767-12.855-12.819-12.855H13.322z"/>
	<path fill="#FFFFFF" d="M13.332,1.604c-6.106,0-11.219,5.128-11.219,11.25c0,3.704,1.989,6.127,4.545,8.977
		c2.272,2.56,4.686,4.188,6.673,8.604c2.132-4.416,4.55-6.045,6.821-8.604c2.415-2.852,4.545-5.273,4.545-8.977
		c0-6.124-5.11-11.25-11.363-11.25H13.332z"/>
</g>
<g id="Capa_3">
	<g>
		<path fill="#660000" stroke="#FFFFFF" stroke-width="0.01" stroke-miterlimit="10" d="M5.809,19.385
			c0,0.387,0.319,0.707,0.709,0.707l0,0h13.418c0.394,0,0.716-0.32,0.716-0.714c0-0.396-0.322-0.719-0.716-0.719H13.28
			c-2.879,0-5.799-1.684-5.799-4.933c0.028-2.996,2.423-5.434,5.417-5.514v1.826h-0.344c-0.389,0-0.709,0.318-0.709,0.708l0,0v2.968
			c0,0.392,0.32,0.711,0.709,0.711l0,0h5.546c0.391,0,0.71-0.32,0.71-0.711l0,0v-2.968c0-0.39-0.319-0.708-0.71-0.708l0,0h-0.347
			V3.61c0-0.392-0.313-0.71-0.709-0.71h-3.421c-0.396,0-0.711,0.318-0.711,0.71v3.17c-3.789,0.083-6.82,3.161-6.848,6.947
			C6.057,15.688,7,17.532,8.598,18.66H6.531c-0.393-0.002-0.718,0.306-0.725,0.696C5.809,19.367,5.809,19.374,5.809,19.385z
			 M14.333,4.332h1.987v5.72h-1.987V4.332z M13.28,11.483h4.11v1.536h-4.11V11.483z"/>
		<path fill="#660000" d="M14.374,16.385c-0.229,0-0.418,0.187-0.418,0.417c0,0.232,0.188,0.419,0.418,0.419l0,0h2.001
			c0.232,0,0.417-0.187,0.417-0.419c0-0.23-0.185-0.417-0.417-0.417H14.374z"/>
	</g>
</g>
</svg>
