<?xml version="1.0" encoding="utf-8"?>
<!-- Generator: Adobe Illustrator 16.0.0, SVG Export Plug-In . SVG Version: 6.00 Build 0)  -->
<!DOCTYPE svg PUBLIC "-//W3C//DTD SVG 1.1//EN" "http://www.w3.org/Graphics/SVG/1.1/DTD/svg11.dtd">
<svg version="1.1" id="Capa_1" xmlns="http://www.w3.org/2000/svg" xmlns:xlink="http://www.w3.org/1999/xlink" x="0px" y="0px"
	 width="26.458px" height="33.042px" viewBox="0 0 26.458 33.042" enable-background="new 0 0 26.458 33.042" xml:space="preserve">
<g>
	<path fill="#A1696B" d="M13.581,0.285c-6.489,0-11.921,5.518-11.921,12.108c0,3.985,2.113,6.592,4.83,9.659
		c2.414,2.757,4.98,4.509,7.091,9.261c2.266-4.752,4.834-6.504,7.246-9.261c2.567-3.068,4.831-5.674,4.831-9.659
		c0-6.591-5.431-12.108-12.074-12.108H13.581z"/>
	<path fill="#FFFFFF" d="M13.59,1.708c-5.752,0-10.567,4.83-10.567,10.597c0,3.488,1.873,5.77,4.281,8.454
		c2.14,2.412,4.414,3.946,6.286,8.105c2.008-4.159,4.286-5.693,6.424-8.105c2.275-2.686,4.281-4.966,4.281-8.454
		c0-5.768-4.813-10.597-10.702-10.597H13.59z"/>
</g>
<polygon fill="#92262B" stroke="#92262B" stroke-width="0.25" stroke-linecap="round" stroke-linejoin="round" stroke-miterlimit="10" points="
	6.589,7.111 13.658,4.283 20.726,7.111 "/>
<rect x="6.589" y="7.756" fill="#92262B" stroke="#92262B" stroke-width="0.25" stroke-linecap="round" stroke-linejoin="round" stroke-miterlimit="10" width="14.138" height="9.188"/>
<line fill="none" stroke="#92262B" stroke-width="0.5" stroke-linecap="round" stroke-linejoin="round" stroke-miterlimit="10" x1="5.823" y1="17.836" x2="21.479" y2="17.836"/>
<path fill="#FFFFFF" d="M19.094,12c-0.635,0-1.15,0.2-1.15,0.446v3.931h2.303v-3.931C20.247,12.201,19.733,12,19.094,12z"/>
<path fill="#FFFFFF" d="M13.657,12c-0.637,0-1.154,0.2-1.154,0.446v3.931h2.305v-3.931C14.808,12.201,14.293,12,13.657,12z"/>
<path fill="#FFFFFF" d="M8.22,12c-0.634,0-1.153,0.2-1.153,0.446v3.931h2.305v-3.931C9.373,12.201,8.858,12,8.22,12z"/>
</svg>
