<?xml version="1.0" encoding="UTF-8" standalone="no"?>
<!-- Generator: Adobe Illustrator 16.0.0, SVG Export Plug-In . SVG Version: 6.00 Build 0)  -->

<svg
   version="1.1"
   id="Capa_1"
   x="0px"
   y="0px"
   width="26.458px"
   height="33.042px"
   viewBox="0 0 26.458 33.042"
   enable-background="new 0 0 26.458 33.042"
   xml:space="preserve"
   sodipodi:docname="estaciones_meteorologicas_riesgo.svg"
   inkscape:version="1.2.1 (9c6d41e410, 2022-07-14)"
   xmlns:inkscape="http://www.inkscape.org/namespaces/inkscape"
   xmlns:sodipodi="http://sodipodi.sourceforge.net/DTD/sodipodi-0.dtd"
   xmlns="http://www.w3.org/2000/svg"
   xmlns:svg="http://www.w3.org/2000/svg"><defs
   id="defs28" /><sodipodi:namedview
   id="namedview26"
   pagecolor="#ffffff"
   bordercolor="#000000"
   borderopacity="0.25"
   inkscape:showpageshadow="2"
   inkscape:pageopacity="0.0"
   inkscape:pagecheckerboard="0"
   inkscape:deskcolor="#d1d1d1"
   showgrid="false"
   inkscape:zoom="24.635313"
   inkscape:cx="12.400898"
   inkscape:cy="16.399223"
   inkscape:window-width="1920"
   inkscape:window-height="1017"
   inkscape:window-x="1912"
   inkscape:window-y="-8"
   inkscape:window-maximized="1"
   inkscape:current-layer="g13" />
<g
   id="g13">
	<path
   fill="#BF7D63"
   d="M13.234,0.612c-6.706,0-12.318,5.701-12.318,12.511c0,4.119,2.184,6.812,4.991,9.982   c2.494,2.848,5.146,4.658,7.327,9.568c2.343-4.91,4.995-6.721,7.486-9.568c2.653-3.171,4.993-5.863,4.993-9.982   c0-6.811-5.611-12.511-12.478-12.511H13.234z"
   id="path9"
   style="fill:#12b5e1;fill-opacity:1" />
	<path
   fill="#FFFFFF"
   d="M13.243,2.082c-5.944,0-10.919,4.991-10.919,10.951c0,3.604,1.936,5.962,4.424,8.736   c2.211,2.49,4.561,4.076,6.496,8.375c2.075-4.299,4.428-5.885,6.637-8.375c2.353-2.775,4.425-5.132,4.425-8.736   c0-5.961-4.974-10.951-11.059-10.951H13.243L13.243,2.082z"
   id="path11" />
</g>

<g
   id="g24"
   transform="translate(0.38228049,0.6424445)">
	<g
   id="g20">
		<path
   class="st0"
   d="m 12.2,13 v 0 c 0.1,0 0.2,-0.1 0.2,-0.2 0,-0.1 -0.1,-0.2 -0.2,-0.2 v 0 L 11,12.9 c -0.1,0.1 -0.1,0.2 -0.1,0.3 0,0.1 0.1,0.1 0.2,0.1 z"
   id="path8"
   style="fill:#12b5e1" />
		<path
   class="st0"
   d="m 11.4,10.7 v 0 l 1,0.6 v 0 c 0.1,0.1 0.2,0 0.3,-0.1 v 0 c 0,-0.1 0,-0.2 -0.1,-0.3 l -1,-0.6 c -0.1,0 -0.2,0 -0.3,0.1 0.1,0.1 0.1,0.2 0.1,0.3 z"
   id="path10"
   style="fill:#12b5e1" />
		<path
   class="st0"
   d="m 13.8,10.1 c 0,0.1 0,0.1 0,0 0.1,0.1 0.2,0.2 0.3,0.1 0.1,0 0.1,-0.1 0.1,-0.2 L 13.9,8.8 c 0,-0.1 -0.1,-0.2 -0.2,-0.2 v 0 c -0.1,0 -0.2,0.1 -0.2,0.3 z"
   id="path12"
   style="fill:#12b5e1" />
		<path
   class="st0"
   d="m 15.6,10.6 c 0.1,0.1 0.2,0 0.3,-0.1 l 0.6,-1 c 0.1,-0.1 0,-0.2 -0.1,-0.3 h -0.1 c -0.1,0 -0.1,0 -0.2,0.1 l -0.6,1 v 0 c -0.1,0.1 -0.1,0.2 0.1,0.3 z"
   id="path14"
   style="fill:#12b5e1" />
		<path
   class="st0"
   d="m 13.1,13 2.6,-1.7 c -0.6,-0.7 -1.5,-0.7 -2.2,-0.2 -0.4,0.4 -0.6,1 -0.5,1.5 -0.1,0.2 -0.1,0.3 0.1,0.4 z"
   id="path16"
   style="fill:#12b5e1" />
		<path
   class="st0"
   d="m 17.8,13.4 v 0 c 0,-0.1 -0.1,-0.2 -0.2,-0.1 l -1.2,0.2 v 0 L 15,12.6 v 0 l 1.4,-0.9 v 0 l 1.1,0.3 c 0.1,0.1 0.2,0 0.3,-0.1 0.1,-0.1 0,-0.2 -0.1,-0.3 h -0.1 l -0.8,-0.2 0.8,-0.5 c 0.1,-0.1 0.1,-0.2 0.1,-0.3 0,-0.1 -0.1,-0.2 -0.2,-0.1 l -1.2,0.8 c -4.6,3 -4.8,3.1 -4.8,3.1 -0.1,0.1 0,0.2 0.1,0.3 0.1,0 0.1,0 0.2,0 l 0.7,-0.5 h 0.1 V 15 c -0.1,0.1 0,0.2 0.1,0.3 0.1,0.1 0.2,0 0.3,-0.1 v -0.1 l 0.2,-1.2 v 0 l 1.3,-0.8 v 0 1.6 0 l -0.8,0.8 c -0.1,0 -0.2,0.1 -0.1,0.2 0.1,0.1 0.2,0.1 0.3,0.1 0,0 0.1,0 0.1,-0.1 l 0.6,-0.5 v 0.1 c 0,0.5 0,0.8 0,0.9 0,0.1 0.1,0.2 0.1,0.2 0,0 0.1,0 0.2,0 L 15,16.3 c 0,-0.3 0,-0.6 0,-1 v -0.1 l 0.6,0.5 c 0.1,0.1 0.2,0.1 0.3,0 0.1,-0.1 0.1,-0.2 0,-0.3 l -0.8,-0.8 v -1.7 l 1.4,0.9 0.2,1.2 c 0,0.1 0.1,0.2 0.2,0.2 0.1,0 0.2,-0.1 0.2,-0.2 L 17,14.1 h 0.1 l 0.7,0.5 c 0.1,0.1 0.2,0 0.3,-0.1 0,-0.1 0,-0.1 0,-0.2 -0.3,-0.2 -0.5,-0.4 -0.8,-0.5 H 17.2 L 18,13.6 c -0.2,0 -0.2,-0.1 -0.2,-0.2 z"
   id="path18"
   style="fill:#12b5e1" />
	</g>
	<path
   class="st0"
   d="m 14.4,7.2 c -2.1,0 -3.9,1.2 -4.8,3 H 6.9 v -4 C 6.9,6 6.7,5.8 6.5,5.8 6.3,5.8 6.1,6 6.1,6.2 v 12.7 c 0,0.2 0.2,0.4 0.4,0.4 0.2,0 0.4,-0.2 0.4,-0.4 v -4 h 2.7 c 1.3,2.7 4.5,3.7 7.2,2.4 2.7,-1.3 3.7,-4.5 2.4,-7.2 -1,-1.8 -2.7,-2.9 -4.8,-2.9 z m -7.5,7 V 11 H 9.3 C 9,12 9,13.1 9.3,14.2 Z m 7.5,2.9 c -2.5,0 -4.6,-2.1 -4.6,-4.6 0,-2.5 2.1,-4.6 4.6,-4.6 2.5,0 4.6,2 4.6,4.6 0,2.6 -2,4.6 -4.6,4.6 0,0 0,0 0,0 z"
   id="path22"
   style="fill:#12b5e1" />
</g></svg>
