<?xml version="1.0" encoding="UTF-8" standalone="no"?>
<!-- Created with Inkscape (http://www.inkscape.org/) -->

<svg
   xmlns:dc="http://purl.org/dc/elements/1.1/"
   xmlns:cc="http://creativecommons.org/ns#"
   xmlns:rdf="http://www.w3.org/1999/02/22-rdf-syntax-ns#"
   xmlns:svg="http://www.w3.org/2000/svg"
   xmlns="http://www.w3.org/2000/svg"
   xmlns:sodipodi="http://sodipodi.sourceforge.net/DTD/sodipodi-0.dtd"
   xmlns:inkscape="http://www.inkscape.org/namespaces/inkscape"
   width="24"
   height="24"
   viewBox="0 0 6.3499999 6.3500002"
   version="1.1"
   id="svg12330"
   inkscape:version="0.92.3 (2405546, 2018-03-11)"
   sodipodi:docname="glaciar.svg">
  <defs
     id="defs12324" />
  <sodipodi:namedview
     id="base"
     pagecolor="#ffffff"
     bordercolor="#666666"
     borderopacity="1.0"
     inkscape:pageopacity="0.0"
     inkscape:pageshadow="2"
     inkscape:zoom="35.458333"
     inkscape:cx="12"
     inkscape:cy="12.992057"
     inkscape:document-units="mm"
     inkscape:current-layer="layer1"
     showgrid="false"
     units="px"
     inkscape:window-width="1920"
     inkscape:window-height="1018"
     inkscape:window-x="1912"
     inkscape:window-y="-8"
     inkscape:window-maximized="1" />
  <metadata
     id="metadata12327">
    <rdf:RDF>
      <cc:Work
         rdf:about="">
        <dc:format>image/svg+xml</dc:format>
        <dc:type
           rdf:resource="http://purl.org/dc/dcmitype/StillImage" />
        <dc:title></dc:title>
      </cc:Work>
    </rdf:RDF>
  </metadata>
  <g
     inkscape:label="Capa 1"
     inkscape:groupmode="layer"
     id="layer1"
     transform="translate(0,-290.64998)">
    <path
       d="m 0.04733715,294.46646 c 0,0 0.40744353,0.11221 0.24393355,0.11039 -0.2175268,-0.002 0.0668914,0.0587 0.0668914,0.0587 l 0.3158491,0.0375 0.0756626,0.026 0.20642091,0.0368 c 0,0 0.0481565,0.008 0.0481565,0.0326 0,0.0244 -0.0550532,0.0141 -0.0731925,0.0288 -0.0181382,0.0148 0.0688914,0.041 0.0688914,0.041 v 0 l -0.036277,0.0342 c 0,0 0,0.0268 0.018137,0.0416 0.018139,0.0147 -0.018137,0.009 0.10883149,0.0343 0.1269697,0.0244 0.2539394,0.0367 0.2539394,0.0367 l 0.1995241,0.0196 0.3083552,0.0343 0.235801,0.0147 0.2114034,0.0139 c 0,0 0.3151978,0.0138 0.4190599,0.008 l 0.6429815,0.0198 0.4822465,0.0107 c 0,0 -0.00335,-0.006 0.4315782,0.003 0.1634688,0.003 0.4046682,-4.1e-4 0.4046682,-4.1e-4 0,0 0.2495542,-0.002 0.4128008,0.0177 0.163247,0.0195 0.2776987,0.0225 0.2776987,0.0225 l 0.2151504,0.002 0.2683311,0.0145 0.4564182,-0.0612"
       style="fill:none;stroke:#00adef;stroke-width:0.03146875;stroke-linecap:butt;stroke-linejoin:miter;stroke-miterlimit:22.92560005;stroke-dasharray:none;stroke-opacity:1"
       id="path8038"
       inkscape:connector-curvature="0"
       sodipodi:nodetypes="csccccscccccccccccsccscccccc" />
    <path
       d="m 0.05853504,292.78425 c 0,0 0.0192364,0.27969 0.20309086,0.27426 l 0.26930386,-0.008 0.2089154,0.0562 0.0393689,0.0326 0.0949745,0.038 c 0,0 0.0108615,0.0217 0.15479444,0.0324 0.2700816,0.0199 0.3954637,0.0277 0.3750599,0.0427 -0.020402,0.0151 0.091574,0.0614 0.091574,0.0614 v 0 0 c 0,0 0.1738082,0.0204 0.1942105,0.0356 0.020404,0.0151 -0.3222799,0.0363 -0.1794592,0.0616 0.1428211,0.0252 0.2813796,0.0842 0.2813796,0.0842 l 0.1280688,0.0306 0.2919641,0.0281 0.2286477,0.0136 0.2377954,0.0172 c 0,0 0.2229677,-0.003 0.3341591,0.005 l 0.3390444,-0.004 0.3503472,0.005 c 0,0 0.3876836,-0.007 0.8788125,-0.0151 0.5765437,-0.009 0.2722319,-0.003 0.2722319,-0.003 0,0 0.1617873,-0.009 0.400301,-0.008 0.2283963,-0.0104 0.4312882,-0.0176 0.4312882,-0.0176 l 0.2469906,-0.0189 0.2053717,-0.0254 0.1076186,-0.0312 v 0"
       style="fill:none;stroke:#00adef;stroke-width:0.03388513;stroke-linecap:butt;stroke-linejoin:miter;stroke-miterlimit:22.92560005;stroke-dasharray:none;stroke-opacity:1"
       id="path8038-8-1-4"
       inkscape:connector-curvature="0"
       sodipodi:nodetypes="csccccscccccccccccsccsccccccc" />
    <path
       d="m 0.16413218,291.65532 c 0,0 0.2846538,0.22455 0.45066388,0.25668 l 0.30464247,0.059 0.19205857,0.0389 0.036194,0.0226 0.087312,0.0262 c 0,0 0.00999,0.0151 0.1423045,0.0224 0.2482894,0.0137 0.3635545,0.0191 0.3447972,0.0296 -0.018757,0.0105 0.084184,0.0426 0.084184,0.0426 v 0 0 c 0,0 0.159784,0.0142 0.17854,0.0247 0.018758,0.0105 0.029595,0.0368 0.1608904,0.0542 0.1312975,0.0175 0.033937,0.0338 0.033937,0.0338 l 0.09526,0.0329 0.1897475,0.0206 0.2101989,0.009 0.2186079,0.012 c 0,0 0.2049765,-0.002 0.3071961,0.003 l 0.3116875,-0.003 0.3220778,0.003 c 0,0 0.3564024,-0.005 0.8079031,-0.0105 0.5300232,-0.006 0.2502656,-0.002 0.2502656,-0.002 0,0 0.1487315,-0.006 0.3680011,-0.005 0.2099679,-0.007 0.3964888,-0.0122 0.3964888,-0.0122 l 0.2270613,-0.0131 0.1888002,-0.0176 0.098934,-0.0216 v 0"
       style="fill:none;stroke:#00adef;stroke-width:0.02703348;stroke-linecap:butt;stroke-linejoin:miter;stroke-miterlimit:22.92560005;stroke-dasharray:none;stroke-opacity:1"
       id="path8038-8-1-4-0-1-1"
       inkscape:connector-curvature="0"
       sodipodi:nodetypes="csccccscccccccccccsccsccccccc" />
    <path
       d="m 0.00519746,296.20441 c 0,0 0.40744354,0.11221 0.24393355,0.11039 -0.2175268,-0.002 0.0668914,0.0587 0.0668914,0.0587 l 0.31584909,0.0376 0.0756626,0.026 0.20642095,0.0368 c 0,0 0.0481565,0.008 0.0481565,0.0326 0,0.0244 -0.0550532,0.0141 -0.0731925,0.0288 -0.0181383,0.0148 0.0688914,0.041 0.0688914,0.041 v 0 l -0.0362775,0.0342 c 0,0 0,0.0268 0.0181372,0.0416 0.0181393,0.0147 -0.0181372,0.009 0.10883155,0.0343 0.1269696,0.0244 0.2539394,0.0367 0.2539394,0.0367 l 0.1995241,0.0196 0.3083552,0.0343 0.2358009,0.0147 0.2114034,0.0139 c 0,0 0.3151979,0.0138 0.41906,0.008 l 0.6429814,0.0198 0.4822465,0.0107 c 0,0 -0.00335,-0.006 0.4315782,0.003 0.1634687,0.003 0.4046683,-4.1e-4 0.4046683,-4.1e-4 0,0 0.2495541,-0.002 0.4128007,0.0177 0.163247,0.0196 0.2776986,0.0225 0.2776986,0.0225 l 0.2151506,0.002 0.268331,0.0145 0.4564184,-0.0613"
       style="fill:none;stroke:#00adef;stroke-width:0.03146875;stroke-linecap:butt;stroke-linejoin:miter;stroke-miterlimit:22.92560005;stroke-dasharray:none;stroke-opacity:1"
       id="path8038-84"
       inkscape:connector-curvature="0"
       sodipodi:nodetypes="csccccscccccccccccsccscccccc" />
    <path
       d="m 0.12760922,290.74525 0.520374,0.0725 c 0.1586876,0.0222 0.26105673,0.0578 0.26105673,0.0578 l 0.33388335,0.0471 v 0 0 c 0,0 0.00982,0.0187 0.1400691,0.0279 0.2443876,0.0171 0.440702,0.0767 0.4222393,0.0898 -0.018455,0.013 0,0 0,0 v 0 0 c 0,0 0.1572735,0.0176 0.1757357,0.0307 0.018455,0.0131 0.029129,0.0458 0.1583629,0.0675 0.1292341,0.0217 0.033404,0.0421 0.033404,0.0421 l 0.093761,0.0409 0.1867642,0.0256 0.2068945,0.0118 0.2151722,0.0149 c 0,0 0.201757,-0.002 0.3023686,0.005 l 0.3067894,-0.004 0.3170166,0.004 c 0,0 0.3508015,-0.006 0.7952065,-0.0131 0.521694,-0.007 0.2463326,-0.002 0.2463326,-0.002 0,0 0.1463941,-0.008 0.3622185,-0.006 0.2066681,-0.008 0.3902575,-0.0152 0.3902575,-0.0152 l 0.2234922,-0.0163 0.1858329,-0.0219 0.097378,-0.0269 v 0"
       style="fill:none;stroke:#00adef;stroke-width:0.02992416;stroke-linecap:butt;stroke-linejoin:miter;stroke-miterlimit:22.92560005;stroke-dasharray:none;stroke-opacity:1"
       id="path8038-8-1-4-0-1-3-6-4-3"
       inkscape:connector-curvature="0"
       sodipodi:nodetypes="csccccscccccccccccsccsccccccc" />
  </g>
</svg>
