<?xml version="1.0" encoding="UTF-8" standalone="no"?>
<!-- Created with Inkscape (http://www.inkscape.org/) -->

<svg
   xmlns:dc="http://purl.org/dc/elements/1.1/"
   xmlns:cc="http://creativecommons.org/ns#"
   xmlns:rdf="http://www.w3.org/1999/02/22-rdf-syntax-ns#"
   xmlns:svg="http://www.w3.org/2000/svg"
   xmlns="http://www.w3.org/2000/svg"
   xmlns:sodipodi="http://sodipodi.sourceforge.net/DTD/sodipodi-0.dtd"
   xmlns:inkscape="http://www.inkscape.org/namespaces/inkscape"
   width="24"
   height="24"
   viewBox="0 0 6.3499999 6.3500002"
   version="1.1"
   id="svg12330"
   inkscape:version="0.92.3 (2405546, 2018-03-11)"
   sodipodi:docname="morena_morrena.svg">
  <defs
     id="defs12324" />
  <sodipodi:namedview
     id="base"
     pagecolor="#ffffff"
     bordercolor="#666666"
     borderopacity="1.0"
     inkscape:pageopacity="0.0"
     inkscape:pageshadow="2"
     inkscape:zoom="35.458333"
     inkscape:cx="12"
     inkscape:cy="17.504395"
     inkscape:document-units="mm"
     inkscape:current-layer="layer1"
     showgrid="false"
     units="px"
     inkscape:window-width="1920"
     inkscape:window-height="1018"
     inkscape:window-x="1912"
     inkscape:window-y="-8"
     inkscape:window-maximized="1" />
  <metadata
     id="metadata12327">
    <rdf:RDF>
      <cc:Work
         rdf:about="">
        <dc:format>image/svg+xml</dc:format>
        <dc:type
           rdf:resource="http://purl.org/dc/dcmitype/StillImage" />
        <dc:title></dc:title>
      </cc:Work>
    </rdf:RDF>
  </metadata>
  <g
     inkscape:label="Capa 1"
     inkscape:groupmode="layer"
     id="layer1"
     transform="translate(0,-290.64998)">
    <path
       d="m 0.5745285,292.4926 c 0,-0.0221 -0.0220999,-0.0442 -0.0441998,-0.0442 -0.0222839,0 -0.044384,0.0221 -0.044384,0.0442 0,0.0221 0.0220999,0.0442 0.044384,0.0442 0.0220999,0 0.0441998,-0.0221 0.0441998,-0.0442 z"
       style="fill:none;stroke:#b39166;stroke-width:0.04293828;stroke-linecap:butt;stroke-linejoin:miter;stroke-miterlimit:22.92560005;stroke-dasharray:none;stroke-opacity:1"
       id="path2474"
       inkscape:connector-curvature="0" />
    <path
       d="m 1.4189787,293.01277 c 0,-0.0221 -0.0221,-0.0442 -0.0442,-0.0442 -0.022284,0 -0.044384,0.0221 -0.044384,0.0442 0,0.0221 0.0221,0.0442 0.044384,0.0442 0.0221,0 0.0442,-0.0221 0.0442,-0.0442 z"
       style="fill:none;stroke:#b39166;stroke-width:0.04293828;stroke-linecap:butt;stroke-linejoin:miter;stroke-miterlimit:22.92560005;stroke-dasharray:none;stroke-opacity:1"
       id="path2482"
       inkscape:connector-curvature="0" />
    <path
       d="m 1.6586514,293.80709 c 0,-0.0221 -0.022284,-0.0442 -0.044384,-0.0442 -0.021916,0 -0.044016,0.0221 -0.044016,0.0442 0,0.0221 0.0221,0.0442 0.044016,0.0442 0.0221,0 0.044384,-0.0221 0.044384,-0.0442 z"
       style="fill:none;stroke:#b39166;stroke-width:0.04293828;stroke-linecap:butt;stroke-linejoin:miter;stroke-miterlimit:22.92560005;stroke-dasharray:none;stroke-opacity:1"
       id="path2490"
       inkscape:connector-curvature="0" />
    <path
       d="m 0.37509657,294.93415 c 0,-0.0221 -0.011234,-0.0442 -0.03315,-0.0442 -0.033334,0 -0.0442,0.0221 -0.0442,0.0442 0,0.0221 0.010866,0.0442 0.0442,0.0442 0.021916,0 0.03315,-0.0221 0.03315,-0.0442 z"
       style="fill:none;stroke:#b39166;stroke-width:0.04293828;stroke-linecap:butt;stroke-linejoin:miter;stroke-miterlimit:22.92560005;stroke-dasharray:none;stroke-opacity:1"
       id="path2506"
       inkscape:connector-curvature="0" />
    <path
       d="m 0.61169171,294.19563 c 0,-0.0221 -0.010866,-0.0442 -0.044016,-0.0442 -0.0221,0 -0.03315,0.0221 -0.03315,0.0442 0,0.0221 0.01105,0.0442 0.03315,0.0442 0.03315,0 0.044016,-0.0221 0.044016,-0.0442 z"
       style="fill:none;stroke:#b39166;stroke-width:0.04293828;stroke-linecap:butt;stroke-linejoin:miter;stroke-miterlimit:22.92560005;stroke-dasharray:none;stroke-opacity:1"
       id="path2542"
       inkscape:connector-curvature="0" />
    <path
       d="m 0.48400659,291.57818 c 0,-0.0221 -0.0221,-0.0442 -0.044384,-0.0442 -0.0221,0 -0.044016,0.0221 -0.044016,0.0442 0,0.0221 0.021916,0.0442 0.044016,0.0442 0.022284,0 0.044384,-0.0221 0.044384,-0.0442 z"
       style="fill:none;stroke:#b39166;stroke-width:0.04293828;stroke-linecap:butt;stroke-linejoin:miter;stroke-miterlimit:22.92560005;stroke-dasharray:none;stroke-opacity:1"
       id="path2650"
       inkscape:connector-curvature="0" />
    <path
       d="m 3.7386126,295.50328 c 0,-0.0221 -0.022284,-0.0332 -0.044384,-0.0332 -0.021916,0 -0.044016,0.0111 -0.044016,0.0332 0,0.0331 0.0221,0.0442 0.044016,0.0442 0.0221,0 0.044384,-0.0111 0.044384,-0.0442 z"
       style="fill:none;stroke:#b39166;stroke-width:0.04293828;stroke-linecap:butt;stroke-linejoin:miter;stroke-miterlimit:22.92560005;stroke-dasharray:none;stroke-opacity:1"
       id="path2882"
       inkscape:connector-curvature="0" />
    <path
       d="m 3.7571404,296.22263 c 0,-0.0332 -0.0221,-0.0442 -0.044016,-0.0442 -0.0221,0 -0.0442,0.011 -0.0442,0.0442 0,0.0221 0.0221,0.0442 0.0442,0.0442 0.021916,0 0.044016,-0.0221 0.044016,-0.0442 z"
       style="fill:none;stroke:#b39166;stroke-width:0.04293828;stroke-linecap:butt;stroke-linejoin:miter;stroke-miterlimit:22.92560005;stroke-dasharray:none;stroke-opacity:1"
       id="path2914"
       inkscape:connector-curvature="0" />
    <path
       d="m 2.8195443,296.24024 c 0,-0.0221 -0.022284,-0.0442 -0.044384,-0.0442 -0.021916,0 -0.044016,0.0221 -0.044016,0.0442 0,0.0221 0.0221,0.0442 0.044016,0.0442 0.0221,0 0.044384,-0.0221 0.044384,-0.0442 z"
       style="fill:none;stroke:#b39166;stroke-width:0.04293828;stroke-linecap:butt;stroke-linejoin:miter;stroke-miterlimit:22.92560005;stroke-dasharray:none;stroke-opacity:1"
       id="path2918"
       inkscape:connector-curvature="0" />
    <path
       d="m 4.182524,294.94172 c 0,-0.0221 -0.01105,-0.0442 -0.044384,-0.0442 -0.021916,0 -0.03315,0.0221 -0.03315,0.0442 0,0.0221 0.011234,0.0442 0.03315,0.0442 0.033334,0 0.044384,-0.0221 0.044384,-0.0442 z"
       style="fill:none;stroke:#b39166;stroke-width:0.04293828;stroke-linecap:butt;stroke-linejoin:miter;stroke-miterlimit:22.92560005;stroke-dasharray:none;stroke-opacity:1"
       id="path2922"
       inkscape:connector-curvature="0" />
    <path
       d="m 5.7843448,296.62572 c 0,-0.0332 -0.021916,-0.0442 -0.044016,-0.0442 -0.0221,0 -0.044384,0.0111 -0.044384,0.0442 0,0.0221 0.022284,0.0442 0.044384,0.0442 0.0221,0 0.044016,-0.0221 0.044016,-0.0442 z"
       style="fill:none;stroke:#b39166;stroke-width:0.04293828;stroke-linecap:butt;stroke-linejoin:miter;stroke-miterlimit:22.92560005;stroke-dasharray:none;stroke-opacity:1"
       id="path2946"
       inkscape:connector-curvature="0" />
    <path
       d="m 2.6816052,293.37198 c 0,-0.0221 -0.0221,-0.0442 -0.044384,-0.0442 -0.0221,0 -0.044016,0.0221 -0.044016,0.0442 0,0.0221 0.021916,0.0442 0.044016,0.0442 0.022284,0 0.044384,-0.0221 0.044384,-0.0442 z"
       style="fill:none;stroke:#b39166;stroke-width:0.04293828;stroke-linecap:butt;stroke-linejoin:miter;stroke-miterlimit:22.92560005;stroke-dasharray:none;stroke-opacity:1"
       id="path3142"
       inkscape:connector-curvature="0" />
    <path
       d="m 1.5233364,292.15094 c 0,-0.0221 -0.0221,-0.0442 -0.044016,-0.0442 -0.0221,0 -0.0442,0.0221 -0.0442,0.0442 0,0.0221 0.0221,0.0442 0.0442,0.0442 0.021916,0 0.044016,-0.0221 0.044016,-0.0442 z"
       style="fill:none;stroke:#b39166;stroke-width:0.04293828;stroke-linecap:butt;stroke-linejoin:miter;stroke-miterlimit:22.92560005;stroke-dasharray:none;stroke-opacity:1"
       id="path3150"
       inkscape:connector-curvature="0" />
    <path
       d="m 2.9485333,293.93553 c 0,-0.0221 -0.021916,-0.0442 -0.044016,-0.0442 -0.0221,0 -0.044384,0.0221 -0.044384,0.0442 0,0.0221 0.022284,0.0442 0.044384,0.0442 0.0221,0 0.044016,-0.0221 0.044016,-0.0442 z"
       style="fill:none;stroke:#b39166;stroke-width:0.04293828;stroke-linecap:butt;stroke-linejoin:miter;stroke-miterlimit:22.92560005;stroke-dasharray:none;stroke-opacity:1"
       id="path3162"
       inkscape:connector-curvature="0" />
    <path
       d="m 2.970757,292.42963 c 0,-0.0332 -0.021916,-0.0442 -0.044016,-0.0442 -0.0221,0 -0.044384,0.011 -0.044384,0.0442 0,0.0221 0.022284,0.0331 0.044384,0.0331 0.0221,0 0.044016,-0.0111 0.044016,-0.0331 z"
       style="fill:none;stroke:#b39166;stroke-width:0.04293828;stroke-linecap:butt;stroke-linejoin:miter;stroke-miterlimit:22.92560005;stroke-dasharray:none;stroke-opacity:1"
       id="path3166"
       inkscape:connector-curvature="0" />
    <path
       d="m 3.8418122,291.77007 c 0,-0.0221 -0.022284,-0.0442 -0.044384,-0.0442 -0.021916,0 -0.044016,0.0221 -0.044016,0.0442 0,0.0221 0.0221,0.0442 0.044016,0.0442 0.0221,0 0.044384,-0.0221 0.044384,-0.0442 z"
       style="fill:none;stroke:#b39166;stroke-width:0.04293828;stroke-linecap:butt;stroke-linejoin:miter;stroke-miterlimit:22.92560005;stroke-dasharray:none;stroke-opacity:1"
       id="path3174"
       inkscape:connector-curvature="0" />
    <path
       d="m 4.3692312,293.14886 c 0,-0.0331 -0.01105,-0.0442 -0.044384,-0.0442 -0.021916,0 -0.03315,0.0111 -0.03315,0.0442 0,0.0221 0.011234,0.0332 0.03315,0.0332 0.033334,0 0.044384,-0.0111 0.044384,-0.0332 z"
       style="fill:none;stroke:#b39166;stroke-width:0.04293828;stroke-linecap:butt;stroke-linejoin:miter;stroke-miterlimit:22.92560005;stroke-dasharray:none;stroke-opacity:1"
       id="path3194"
       inkscape:connector-curvature="0" />
    <path
       d="m 4.3740627,292.52117 c 0,-0.0221 -0.021916,-0.0442 -0.044016,-0.0442 -0.0221,0 -0.044384,0.0221 -0.044384,0.0442 0,0.0221 0.022284,0.0442 0.044384,0.0442 0.0221,0 0.044016,-0.0221 0.044016,-0.0442 z"
       style="fill:none;stroke:#b39166;stroke-width:0.04293828;stroke-linecap:butt;stroke-linejoin:miter;stroke-miterlimit:22.92560005;stroke-dasharray:none;stroke-opacity:1"
       id="path3202"
       inkscape:connector-curvature="0" />
    <path
       d="m 3.7872101,293.77169 c 0,-0.0221 -0.01105,-0.0442 -0.044384,-0.0442 -0.021916,0 -0.03315,0.0221 -0.03315,0.0442 0,0.0221 0.011234,0.0442 0.03315,0.0442 0.033334,0 0.044384,-0.0221 0.044384,-0.0442 z"
       style="fill:none;stroke:#b39166;stroke-width:0.04293828;stroke-linecap:butt;stroke-linejoin:miter;stroke-miterlimit:22.92560005;stroke-dasharray:none;stroke-opacity:1"
       id="path3206"
       inkscape:connector-curvature="0" />
    <path
       d="m 5.023177,294.45145 c 0,-0.0221 -0.022283,-0.0442 -0.044384,-0.0442 -0.021917,0 -0.044016,0.0221 -0.044016,0.0442 0,0.0221 0.0221,0.0442 0.044016,0.0442 0.0221,0 0.044384,-0.0221 0.044384,-0.0442 z"
       style="fill:none;stroke:#b39166;stroke-width:0.04293828;stroke-linecap:butt;stroke-linejoin:miter;stroke-miterlimit:22.92560005;stroke-dasharray:none;stroke-opacity:1"
       id="path3210"
       inkscape:connector-curvature="0" />
    <path
       d="m 1.5130801,295.17109 c 0,-0.0221 -0.022284,-0.0442 -0.044384,-0.0442 -0.021916,0 -0.044016,0.0221 -0.044016,0.0442 0,0.0221 0.0221,0.0442 0.044016,0.0442 0.0221,0 0.044384,-0.0221 0.044384,-0.0442 z"
       style="fill:none;stroke:#b39166;stroke-width:0.04293828;stroke-linecap:butt;stroke-linejoin:miter;stroke-miterlimit:22.92560005;stroke-dasharray:none;stroke-opacity:1"
       id="path3218"
       inkscape:connector-curvature="0" />
    <path
       d="m 2.1405667,293.21198 c 0,-0.0221 -0.011234,-0.0442 -0.0442,-0.0442 -0.022284,0 -0.044384,0.0221 -0.044384,0.0442 0,0.0221 0.0221,0.0442 0.044384,0.0442 0.032966,0 0.0442,-0.0221 0.0442,-0.0442 z"
       style="fill:none;stroke:#b39166;stroke-width:0.04293828;stroke-linecap:butt;stroke-linejoin:miter;stroke-miterlimit:22.92560005;stroke-dasharray:none;stroke-opacity:1"
       id="path3222"
       inkscape:connector-curvature="0" />
    <path
       d="m 0.41672671,296.54003 c 0,-0.0221 -0.011234,-0.0442 -0.0442,-0.0442 -0.022284,0 -0.044384,0.0221 -0.044384,0.0442 0,0.0221 0.0221,0.0442 0.044384,0.0442 0.032966,0 0.0442,-0.0221 0.0442,-0.0442 z"
       style="fill:none;stroke:#b39166;stroke-width:0.04293828;stroke-linecap:butt;stroke-linejoin:miter;stroke-miterlimit:22.92560005;stroke-dasharray:none;stroke-opacity:1"
       id="path3226"
       inkscape:connector-curvature="0" />
    <path
       d="m 3.2796921,294.75456 c 0,-0.0221 -0.0221,-0.0442 -0.0442,-0.0442 -0.022284,0 -0.044384,0.0221 -0.044384,0.0442 0,0.0221 0.0221,0.0442 0.044384,0.0442 0.0221,0 0.0442,-0.0221 0.0442,-0.0442 z"
       style="fill:none;stroke:#b39166;stroke-width:0.04293828;stroke-linecap:butt;stroke-linejoin:miter;stroke-miterlimit:22.92560005;stroke-dasharray:none;stroke-opacity:1"
       id="path3230"
       inkscape:connector-curvature="0" />
    <path
       d="m 1.6379321,295.96184 c 0,-0.0221 -0.0221,-0.0331 -0.0442,-0.0331 -0.022284,0 -0.044384,0.0111 -0.044384,0.0331 0,0.0332 0.0221,0.0442 0.044384,0.0442 0.0221,0 0.0442,-0.011 0.0442,-0.0442 z"
       style="fill:none;stroke:#b39166;stroke-width:0.04293828;stroke-linecap:butt;stroke-linejoin:miter;stroke-miterlimit:22.92560005;stroke-dasharray:none;stroke-opacity:1"
       id="path3234"
       inkscape:connector-curvature="0" />
    <path
       d="m 2.0286938,294.49566 c 0,-0.0221 -0.010866,-0.0442 -0.044016,-0.0442 -0.0221,0 -0.033334,0.0221 -0.033334,0.0442 0,0.0221 0.011234,0.0442 0.033334,0.0442 0.03315,0 0.044016,-0.0221 0.044016,-0.0442 z"
       style="fill:none;stroke:#b39166;stroke-width:0.04293828;stroke-linecap:butt;stroke-linejoin:miter;stroke-miterlimit:22.92560005;stroke-dasharray:none;stroke-opacity:1"
       id="path3242"
       inkscape:connector-curvature="0" />
    <path
       d="m 2.6371582,295.19424 c 0,-0.0221 -0.0221,-0.0442 -0.044384,-0.0442 -0.0221,0 -0.044016,0.0221 -0.044016,0.0442 0,0.0221 0.021916,0.0442 0.044016,0.0442 0.022284,0 0.044384,-0.0221 0.044384,-0.0442 z"
       style="fill:none;stroke:#b39166;stroke-width:0.04293828;stroke-linecap:butt;stroke-linejoin:miter;stroke-miterlimit:22.92560005;stroke-dasharray:none;stroke-opacity:1"
       id="path3250"
       inkscape:connector-curvature="0" />
    <path
       d="m 4.7523914,294.94642 c 0,-0.0221 -0.0221,-0.0442 -0.0442,-0.0442 -0.022284,0 -0.044384,0.0221 -0.044384,0.0442 0,0.0221 0.0221,0.0442 0.044384,0.0442 0.0221,0 0.0442,-0.0221 0.0442,-0.0442 z"
       style="fill:none;stroke:#b39166;stroke-width:0.04293828;stroke-linecap:butt;stroke-linejoin:miter;stroke-miterlimit:22.92560005;stroke-dasharray:none;stroke-opacity:1"
       id="path3262"
       inkscape:connector-curvature="0" />
    <path
       d="m 4.0606667,294.28272 c 0,-0.0221 -0.021916,-0.0442 -0.044016,-0.0442 -0.0221,0 -0.044384,0.0221 -0.044384,0.0442 0,0.0221 0.022284,0.0442 0.044384,0.0442 0.0221,0 0.044016,-0.0221 0.044016,-0.0442 z"
       style="fill:none;stroke:#b39166;stroke-width:0.04293828;stroke-linecap:butt;stroke-linejoin:miter;stroke-miterlimit:22.92560005;stroke-dasharray:none;stroke-opacity:1"
       id="path3266"
       inkscape:connector-curvature="0" />
    <path
       d="m 4.5543488,295.649 c 0,-0.0221 -0.022284,-0.0442 -0.044384,-0.0442 -0.021916,0 -0.044016,0.0221 -0.044016,0.0442 0,0.0221 0.0221,0.0442 0.044016,0.0442 0.0221,0 0.044384,-0.0221 0.044384,-0.0442 z"
       style="fill:none;stroke:#b39166;stroke-width:0.04293828;stroke-linecap:butt;stroke-linejoin:miter;stroke-miterlimit:22.92560005;stroke-dasharray:none;stroke-opacity:1"
       id="path3270"
       inkscape:connector-curvature="0" />
    <path
       d="m 5.3720453,295.36932 c 0,-0.0221 -0.0221,-0.0442 -0.0442,-0.0442 -0.022283,0 -0.044384,0.0221 -0.044384,0.0442 0,0.0221 0.0221,0.0442 0.044384,0.0442 0.0221,0 0.0442,-0.0221 0.0442,-0.0442 z"
       style="fill:none;stroke:#b39166;stroke-width:0.04293828;stroke-linecap:butt;stroke-linejoin:miter;stroke-miterlimit:22.92560005;stroke-dasharray:none;stroke-opacity:1"
       id="path3274"
       inkscape:connector-curvature="0" />
    <path
       d="m 5.6129838,294.5779 c 0,-0.0221 -0.022283,-0.0442 -0.044384,-0.0442 -0.021917,0 -0.044016,0.0221 -0.044016,0.0442 0,0.0221 0.0221,0.0442 0.044016,0.0442 0.0221,0 0.044384,-0.0221 0.044384,-0.0442 z"
       style="fill:none;stroke:#b39166;stroke-width:0.04293828;stroke-linecap:butt;stroke-linejoin:miter;stroke-miterlimit:22.92560005;stroke-dasharray:none;stroke-opacity:1"
       id="path3278"
       inkscape:connector-curvature="0" />
    <path
       d="m 5.8280502,292.09886 c 0,-0.0221 -0.0221,-0.0442 -0.044016,-0.0442 -0.0221,0 -0.0442,0.0221 -0.0442,0.0442 0,0.0221 0.0221,0.0442 0.0442,0.0442 0.021917,0 0.044016,-0.0221 0.044016,-0.0442 z"
       style="fill:none;stroke:#b39166;stroke-width:0.04293828;stroke-linecap:butt;stroke-linejoin:miter;stroke-miterlimit:22.92560005;stroke-dasharray:none;stroke-opacity:1"
       id="path3282"
       inkscape:connector-curvature="0" />
    <path
       d="m 3.4311815,292.8371 c 0,-0.0111 -0.010866,-0.0221 -0.021916,-0.0221 -0.011234,0 -0.0221,0.0111 -0.0221,0.0221 0,0.011 0.010866,0.0221 0.0221,0.0221 0.01105,0 0.021916,-0.0111 0.021916,-0.0221 z"
       style="fill:none;stroke:#b39166;stroke-width:0.08744198;stroke-linecap:butt;stroke-linejoin:miter;stroke-miterlimit:22.92560005;stroke-dasharray:none;stroke-opacity:1"
       id="path3362"
       inkscape:connector-curvature="0" />
    <path
       d="m 1.2526114,291.05495 c 0,-0.0221 -0.011234,-0.0442 -0.0442,-0.0442 -0.022284,0 -0.044384,0.0221 -0.044384,0.0442 0,0.0221 0.0221,0.0442 0.044384,0.0442 0.032966,0 0.0442,-0.0221 0.0442,-0.0442 z"
       style="fill:none;stroke:#b39166;stroke-width:0.04293828;stroke-linecap:butt;stroke-linejoin:miter;stroke-miterlimit:22.92560005;stroke-dasharray:none;stroke-opacity:1"
       id="path3478"
       inkscape:connector-curvature="0" />
    <path
       d="m 2.5631965,291.12215 c 0,-0.0221 -0.0221,-0.0442 -0.0442,-0.0442 -0.022284,0 -0.044384,0.0221 -0.044384,0.0442 0,0.0221 0.0221,0.0442 0.044384,0.0442 0.0221,0 0.0442,-0.0221 0.0442,-0.0442 z"
       style="fill:none;stroke:#b39166;stroke-width:0.04293828;stroke-linecap:butt;stroke-linejoin:miter;stroke-miterlimit:22.92560005;stroke-dasharray:none;stroke-opacity:1"
       id="path3490"
       inkscape:connector-curvature="0" />
    <path
       d="m 4.2708632,290.95025 c 0,-0.0221 -0.021916,-0.0331 -0.044016,-0.0331 -0.0221,0 -0.044384,0.011 -0.044384,0.0331 0,0.0331 0.022284,0.0442 0.044384,0.0442 0.0221,0 0.044016,-0.0111 0.044016,-0.0442 z"
       style="fill:none;stroke:#b39166;stroke-width:0.04293828;stroke-linecap:butt;stroke-linejoin:miter;stroke-miterlimit:22.92560005;stroke-dasharray:none;stroke-opacity:1"
       id="path3510"
       inkscape:connector-curvature="0" />
    <path
       d="m 5.8079328,291.07796 c 0,-0.0331 -0.022284,-0.0442 -0.044384,-0.0442 -0.021916,0 -0.044016,0.0111 -0.044016,0.0442 0,0.0221 0.0221,0.0332 0.044016,0.0332 0.0221,0 0.044384,-0.0111 0.044384,-0.0332 z"
       style="fill:none;stroke:#b39166;stroke-width:0.04293828;stroke-linecap:butt;stroke-linejoin:miter;stroke-miterlimit:22.92560005;stroke-dasharray:none;stroke-opacity:1"
       id="path3526"
       inkscape:connector-curvature="0" />
    <path
       d="m 5.1926543,293.28668 c 0,-0.0221 -0.021917,-0.0442 -0.044016,-0.0442 -0.0221,0 -0.044384,0.0221 -0.044384,0.0442 0,0.0221 0.022283,0.0442 0.044384,0.0442 0.0221,0 0.044016,-0.0221 0.044016,-0.0442 z"
       style="fill:none;stroke:#b39166;stroke-width:0.04293828;stroke-linecap:butt;stroke-linejoin:miter;stroke-miterlimit:22.92560005;stroke-dasharray:none;stroke-opacity:1"
       id="path4210"
       inkscape:connector-curvature="0" />
  </g>
</svg>
