<?xml version="1.0" encoding="UTF-8" standalone="no"?>
<!-- Generator: Adobe Illustrator 16.0.0, SVG Export Plug-In . SVG Version: 6.00 Build 0)  -->

<svg
   version="1.1"
   id="Capa_1"
   x="0px"
   y="0px"
   width="26.458px"
   height="33.042px"
   viewBox="0 0 26.458 33.042"
   enable-background="new 0 0 26.458 33.042"
   xml:space="preserve"
   sodipodi:docname="verde_casa_2.svg"
   inkscape:version="1.2.1 (9c6d41e410, 2022-07-14)"
   xmlns:inkscape="http://www.inkscape.org/namespaces/inkscape"
   xmlns:sodipodi="http://sodipodi.sourceforge.net/DTD/sodipodi-0.dtd"
   xmlns="http://www.w3.org/2000/svg"
   xmlns:svg="http://www.w3.org/2000/svg"><defs
   id="defs28" /><sodipodi:namedview
   id="namedview26"
   pagecolor="#ffffff"
   bordercolor="#000000"
   borderopacity="0.25"
   inkscape:showpageshadow="2"
   inkscape:pageopacity="0.0"
   inkscape:pagecheckerboard="0"
   inkscape:deskcolor="#d1d1d1"
   showgrid="false"
   inkscape:zoom="24.635313"
   inkscape:cx="12.400898"
   inkscape:cy="16.561592"
   inkscape:window-width="1920"
   inkscape:window-height="1017"
   inkscape:window-x="1912"
   inkscape:window-y="-8"
   inkscape:window-maximized="1"
   inkscape:current-layer="Capa_1" />
<g
   id="g13">
	<path
   fill="#BF7D63"
   d="M13.234,0.612c-6.706,0-12.318,5.701-12.318,12.511c0,4.119,2.184,6.812,4.991,9.982   c2.494,2.848,5.146,4.658,7.327,9.568c2.343-4.91,4.995-6.721,7.486-9.568c2.653-3.171,4.993-5.863,4.993-9.982   c0-6.811-5.611-12.511-12.478-12.511H13.234z"
   id="path9"
   style="fill:#439d73;fill-opacity:1" />
	<path
   fill="#FFFFFF"
   d="M13.243,2.082c-5.944,0-10.919,4.991-10.919,10.951c0,3.604,1.936,5.962,4.424,8.736   c2.211,2.49,4.561,4.076,6.496,8.375c2.075-4.299,4.428-5.885,6.637-8.375c2.353-2.775,4.425-5.132,4.425-8.736   c0-5.961-4.974-10.951-11.059-10.951H13.243L13.243,2.082z"
   id="path11" />
</g><path
   class="st0"
   d="m 16.9525,13.777378 v -2.8 c 0,-0.1 0,-0.2 -0.1,-0.2 l -3.3,-2.3000002 c -0.1,-0.1 -0.2,-0.1 -0.3,0 l -3.3,2.3000002 c 0,0 -0.1,0.1 -0.1,0.2 v 2.8 c 0.2,0 0.3,-0.1 0.4,-0.1 v -2.7 l 3.1,-2.2000002 3.1,2.2000002 v 2.7 c 0.2,0 0.3,0 0.5,0.1 z"
   id="path257"
   style="fill:#439d73;fill-opacity:1" /><path
   class="st0"
   d="m 9.4525,10.477378 3.9,-2.8000002 3.9,2.8000002 c 0.1,0.1 0.3,0 0.3,-0.1 0,-0.1 0,-0.2 -0.1,-0.2 l -4.1,-2.9000002 c -0.1,-0.1 -0.2,-0.1 -0.3,0 l -1.8,1.4 v -1.2 c 0,-0.2 -0.1,-0.2 -0.3,-0.2 -0.2,0 0,0.1 0,0.2 v 1.5 l -1.8,1.2000002 c -0.1,0.1 -0.1,0.2 0,0.3 0.1,0 0.2,0.1 0.3,0 z"
   id="path259"
   style="fill:#439d73;fill-opacity:1" /><path
   class="st0"
   d="m 14.9525,14.077378 v -2.3 c 0,-0.1 -0.1,-0.2 -0.2,-0.2 h -2.5 c -0.1,0 -0.2,0.1 -0.2,0.2 v 2.4 0 c 0.1,-0.1 0.3,-0.2 0.3,-0.2 v -2.1 h 2.1 v 2 c 0.2,0 0.3,0.1 0.5,0.2 z"
   id="path261"
   style="fill:#439d73;fill-opacity:1" /><path
   class="st0"
   d="m 7.7525,14.477378 c 0.1,-0.1 0.2,-0.1 0.3,-0.1 0.2,0 0.3,0 0.5,0.2 l 0.1,0.1 c 0.3,0.3 0.9,0.3 1.3,0 0.2,-0.2 0.5,-0.2 0.8,-0.2 0.3,0 0.5,0.1 0.8,0.2 0.2,0.2 0.4,0.2 0.6,0.2 v 0 c 0.3,0 0.4,-0.1 0.7,-0.2 0.4,-0.3 1,-0.3 1.5,0 0.3,0.3 0.9,0.3 1.3,0 0.4,-0.3 1,-0.3 1.5,0 0.2,0.2 0.4,0.2 0.7,0.2 0.2,0 0.4,-0.1 0.6,-0.2 h -0.1 v 0 c 0.2,-0.1 0.3,-0.2 0.5,-0.2 0.1,0 0.3,0.1 0.3,0.1 0.1,0.1 0.3,0 0.3,-0.1 0.1,-0.1 0,-0.2 -0.1,-0.3 -0.3,-0.2 -0.5,-0.2 -0.7,-0.2 -0.3,0 -0.6,0.1 -0.8,0.2 v 0 h -0.1 c -0.1,0.1 -0.2,0.1 -0.3,0.1 -0.2,0 -0.3,-0.1 -0.4,-0.2 -0.6,-0.4 -1.4,-0.4 -2,0 -0.3,0.2 -0.5,0.2 -0.8,0 -0.3,-0.2 -0.6,-0.3 -1,-0.3 -0.3,0 -0.7,0.1 -1,0.3 -0.1,0.1 -0.3,0.2 -0.4,0.2 v 0 c -0.2,0 -0.3,-0.1 -0.3,-0.2 -0.3,-0.2 -0.7,-0.3 -1,-0.3 -0.3,0 -0.7,0.1 -1,0.3 -0.3,0.2 -0.5,0.2 -0.8,0 h -0.1 c -0.1,-0.1 -0.3,-0.2 -0.6,-0.2 -0.2,0 -0.3,0.1 -0.5,0.2 -0.1,0.1 -0.1999999,0.2 -0.1,0.3 0,0.1 0.2,0.1 0.3,0.1 z"
   id="path263"
   style="fill:#439d73;fill-opacity:1" /><path
   class="st0"
   d="m 19.2525,15.577378 c -0.2,-0.1 -0.3,-0.1 -0.5,-0.2 -0.3,0 -0.6,0.1 -0.8,0.2 v 0 h -0.1 c -0.1,0.1 -0.2,0.1 -0.3,0.1 -0.2,0 -0.3,-0.1 -0.4,-0.2 -0.6,-0.4 -1.4,-0.4 -2,0 -0.3,0.2 -0.5,0.2 -0.8,0 -0.3,-0.2 -0.6,-0.3 -1,-0.3 -0.3,0 -0.7,0.1 -1,0.3 -0.1,0.1 -0.3,0.2 -0.4,0.2 v 0 c -0.2,0 -0.3,-0.1 -0.4,-0.2 -0.3,-0.2 -0.7,-0.3 -1,-0.3 -0.3,0 -0.7,0.1 -1,0.3 -0.3,0.2 -0.5,0.2 -0.8,0 l 0.1,0.1 c -0.2,-0.2 -0.5,-0.2 -0.8,-0.2 -0.2,0 -0.3,0.1 -0.5,0.2 -0.1,0.1 -0.1999999,0.2 -0.1,0.2 0.1,0 0.2,0.2 0.3,0.1 v 0 c 0.1,-0.1 0.3,-0.1 0.3,-0.1 0.2,0 0.3,0 0.5,0.2 l 0.1,0.1 c 0.3,0.3 0.9,0.3 1.3,0 0.2,-0.2 0.5,-0.2 0.8,-0.2 0.3,0 0.5,0.1 0.8,0.2 0.2,0.2 0.4,0.2 0.6,0.2 v 0 c 0.3,0 0.4,-0.1 0.7,-0.2 0.4,-0.3 1,-0.3 1.5,0 0.3,0.3 0.9,0.3 1.3,0 0.4,-0.3 1,-0.3 1.5,0 0.2,0.2 0.4,0.2 0.7,0.2 0.2,0 0.4,-0.1 0.6,-0.2 h -0.1 v 0 c 0.2,-0.1 0.3,-0.2 0.5,-0.2 0.1,0 0.3,0.1 0.3,0.1 0.1,0.1 0.3,0 0.3,-0.1 0,-0.2 -0.1,-0.3 -0.2,-0.3 z"
   id="path265"
   style="fill:#439d73;fill-opacity:1" /><path
   class="st0"
   d="m 19.2525,16.977378 c -0.2,-0.1 -0.3,-0.1 -0.5,-0.2 -0.3,0 -0.6,0.1 -0.8,0.2 v 0 h -0.1 c -0.1,0.2 -0.2,0.2 -0.3,0.2 -0.2,0 -0.3,-0.1 -0.4,-0.2 -0.6,-0.4 -1.4,-0.4 -2,0 -0.3,0.2 -0.5,0.2 -0.8,0 -0.3,-0.2 -0.6,-0.3 -1,-0.3 -0.3,0 -0.7,0.1 -1,0.3 -0.1,0.1 -0.3,0.2 -0.4,0.2 v 0 c -0.2,0 -0.3,-0.1 -0.3,-0.2 -0.3,-0.2 -0.7,-0.3 -1,-0.3 -0.3,0 -0.7,0.1 -1,0.3 -0.3,0.2 -0.5,0.2 -0.8,0 l -0.1,-0.1 c -0.2,-0.2 -0.5,-0.2 -0.8,-0.2 -0.2,0 -0.3,0.1 -0.5,0.2 -0.1,0.1 -0.1999999,0.2 -0.1,0.4 0.1,0.1 0.1999999,0.2 0.2999999,0.1 0.2,-0.1 0.3,-0.1 0.4,-0.1 0.1,0 0.3,0 0.5,0.2 l 0.1,0.1 c 0.3,0.3 0.9,0.3 1.3,0 0.2000001,-0.2 0.5000001,-0.2 0.8000001,-0.2 0.3,0 0.5,0.1 0.8,0.2 0.2,0.2 0.4,0.2 0.6,0.2 v 0 c 0.3,0 0.4,-0.1 0.7,-0.2 0.4,-0.3 1,-0.3 1.5,0 0.3,0.3 0.9,0.3 1.3,0 0.4,-0.3 1,-0.3 1.5,0 0.2,0.2 0.4,0.2 0.7,0.2 0.2,0 0.4,-0.1 0.6,-0.2 h -0.1 v 0 c 0.1,-0.3 0.3,-0.3 0.4,-0.3 0.1,0 0.3,0.1 0.3,0.1 0.1,0.1 0.3,0 0.3,-0.1 0.1,-0.2 0,-0.3 -0.1,-0.3 z"
   id="path267"
   style="fill:#439d73;fill-opacity:1" />

</svg>
