<?xml version="1.0" encoding="utf-8"?>
<!-- Generator: Adobe Illustrator 25.2.0, SVG Export Plug-In . SVG Version: 6.00 Build 0)  -->
<svg version="1.1" id="Capa_1" xmlns="http://www.w3.org/2000/svg" xmlns:xlink="http://www.w3.org/1999/xlink" x="0px" y="0px"
	 width="26.5px" height="33px" viewBox="0 0 26.5 33" style="enable-background:new 0 0 26.5 33;" xml:space="preserve">
<style type="text/css">
	.st0{fill:#447DA9;}
	.st1{fill:#FFFFFF;}
</style>
<g>
	<path class="st0" d="M13.4,0.5C6.7,0.5,1.1,6.2,1.1,13c0,4.1,2.2,6.8,5,10c2.5,2.8,5.1,4.7,7.3,9.6c2.3-4.9,5-6.7,7.5-9.6
		c2.7-3.2,5-5.9,5-10C25.9,6.2,20.3,0.5,13.4,0.5L13.4,0.5z"/>
	<path class="st1" d="M13.5,2c-6,0-11,5-11,10.9c0,3.6,1.9,6,4.4,8.7c2.2,2.5,4.6,4.1,6.5,8.4c2.1-4.3,4.4-5.9,6.6-8.4
		c2.4-2.8,4.4-5.1,4.4-8.7C24.5,7,19.5,2,13.5,2L13.5,2z"/>
</g>
<circle class="st1" cx="11" cy="14.2" r="0.5"/>
<g>
	<path class="st0" d="M16.5,10.6l-1.4,1.5l-3.8,4.4h5.2V13c0.3,0.2,0.5,0.7,0.8,1c0.3,0.5,0.3,0.7,0.3,1.2V19c0,0.2,0.3,0.7,0.5,1
		c0.3,0.2,0.5,0.2,0.8,0c0.3-0.2,0.5-0.5,0.5-1v-3.7c0-1-0.3-2-0.8-2.7C18.2,11.8,17.3,11.1,16.5,10.6L16.5,10.6z"/>
	<path class="st0" d="M11.1,15l2.5-3l0.8-1l1.1-1c-0.3,0-0.5,0-0.8,0h-9c-0.3,0-0.5,0.2-0.8,0.5c-0.3,0.2-0.3,0.7,0,1
		c0.3,0.2,0.5,0.5,0.8,0.5h5.5C11.1,12.1,11.1,15,11.1,15z"/>
	<path class="st0" d="M11.1,18h5.5v3h-5.5V18z"/>
	<path class="st0" d="M13.5,9.3c0.5,0,1.1-0.2,1.6-0.7c0.3-0.5,0.5-1.2,0.3-2h-3.8c-0.3,0.7,0,1.2,0.3,2C12.4,9.1,13,9.3,13.5,9.3
		L13.5,9.3z"/>
	<path class="st0" d="M11.9,5.9h3c0,0,0.3,0,0.3-0.2V5.4V5.1c0-0.2,0-0.2-0.3-0.2c0,0-0.3-0.2-0.3,0l-3,0.2c0,0-0.3,0-0.3,0.2v0.2
		l0,0c0,0.2,0,0.2,0,0.2C11.9,5.9,11.9,5.9,11.9,5.9L11.9,5.9z"/>
</g>
</svg>
