<?xml version="1.0" encoding="utf-8"?>
<!-- Generator: Adobe Illustrator 16.0.0, SVG Export Plug-In . SVG Version: 6.00 Build 0)  -->
<!DOCTYPE svg PUBLIC "-//W3C//DTD SVG 1.1//EN" "http://www.w3.org/Graphics/SVG/1.1/DTD/svg11.dtd">
<svg version="1.1" id="Capa_1" xmlns="http://www.w3.org/2000/svg" xmlns:xlink="http://www.w3.org/1999/xlink" x="0px" y="0px"
	 width="26.5px" height="33px" viewBox="0 0 26.5 33" enable-background="new 0 0 26.5 33" xml:space="preserve">
<g>
	<path fill="#9A7D22" d="M13.2,0.6C6.5,0.6,0.9,6.3,0.9,13.1c0,4.1,2.2,6.8,5,10C8.4,25.9,11,27.8,13.2,32.7
		c2.3-4.9,5-6.7,7.5-9.601c2.7-3.199,5-5.899,5-10C25.7,6.3,20.1,0.6,13.2,0.6L13.2,0.6z"/>
	<path fill="#FFFFFF" d="M13.2,2.1c-5.9,0-10.9,5-10.9,11c0,3.6,1.9,6,4.4,8.7c2.2,2.5,4.6,4.101,6.5,8.4c2.1-4.3,4.399-5.9,6.6-8.4
		c2.4-2.8,4.4-5.1,4.4-8.7C24.3,7.1,19.3,2.1,13.2,2.1L13.2,2.1L13.2,2.1z"/>
</g>
<path fill="none" stroke="#9A7D22" stroke-width="2" stroke-miterlimit="10" d="M20.444,7.4c-2.8,0.2-5,2.6-4.8,5.5
	c0.2,2.7,2.2,4.8,4.8,5"/>
<path fill="none" stroke="#9A7D22" stroke-width="2" stroke-miterlimit="10" d="M5.944,7.4c3,0.2,5.1,2.7,5,5.5
	c-0.2,2.7-2.3,4.8-5,5"/>
</svg>
