<?xml version="1.0" encoding="utf-8"?>
<!-- Generator: Adobe Illustrator 25.2.0, SVG Export Plug-In . SVG Version: 6.00 Build 0)  -->
<svg version="1.1" xmlns="http://www.w3.org/2000/svg" xmlns:xlink="http://www.w3.org/1999/xlink" x="0px" y="0px" width="26.5px"
	 height="33px" viewBox="0 0 26.5 33" style="enable-background:new 0 0 26.5 33;" xml:space="preserve">
<style type="text/css">
	.st0{fill:#9A7D22;}
	.st1{fill:#FFFFFF;}
</style>
<g id="Capa_1">
	<g>
		<path class="st0" d="M13.7,0.5C7,0.5,1.4,6.2,1.4,13c0,4.1,2.2,6.8,5,10c2.5,2.8,5.1,4.7,7.3,9.6c2.3-4.9,5-6.7,7.5-9.6
			c2.7-3.2,5-5.9,5-10C26.2,6.2,20.6,0.5,13.7,0.5L13.7,0.5z"/>
		<path class="st1" d="M13.7,2C7.7,2,2.8,7,2.8,12.9c0,3.6,1.9,6,4.4,8.7c2.2,2.5,4.6,4.1,6.5,8.4c2.1-4.3,4.4-5.9,6.6-8.4
			c2.4-2.8,4.4-5.1,4.4-8.7C24.8,7,19.8,2,13.7,2L13.7,2L13.7,2z"/>
	</g>
	<g>
		<polygon class="st0" points="4.8,17.2 11.6,3.7 18.4,17.2 		"/>
		<polygon class="st0" points="10.7,17.2 16.7,5.3 22.8,17.2 		"/>
	</g>
</g>
<g id="Layer_1">
</g>
</svg>
