<?xml version="1.0" encoding="utf-8"?>
<!-- Generator: Adobe Illustrator 16.0.0, SVG Export Plug-In . SVG Version: 6.00 Build 0)  -->
<!DOCTYPE svg PUBLIC "-//W3C//DTD SVG 1.1//EN" "http://www.w3.org/Graphics/SVG/1.1/DTD/svg11.dtd">
<svg version="1.1" id="Capa_1" xmlns="http://www.w3.org/2000/svg" xmlns:xlink="http://www.w3.org/1999/xlink" x="0px" y="0px"
	 width="26.5px" height="33px" viewBox="0 0 26.5 33" enable-background="new 0 0 26.5 33" xml:space="preserve">
<g id="Capa_1_1_">
	<g>
		<path fill="#9A7D22" d="M13.1,0.5C6.4,0.5,0.8,6.2,0.8,13c0,4.1,2.2,6.8,5,10c2.5,2.8,5.1,4.7,7.3,9.6c2.3-4.899,5-6.699,7.5-9.6
			c2.7-3.2,5-5.9,5-10C25.6,6.2,20,0.5,13.1,0.5L13.1,0.5z"/>
		<path display="none" fill="#FFFFFF" d="M13.2,2c-6,0-11,5-11,10.9c0,3.6,1.9,6,4.4,8.7c2.2,2.5,4.6,4.101,6.5,8.4
			c2.1-4.3,4.4-5.9,6.6-8.4c2.399-2.8,4.399-5.1,4.399-8.7C24.2,7,19.2,2,13.2,2L13.2,2L13.2,2z"/>
	</g>
</g>
<path display="none" fill="#FCFCFC" d="M14.043,4.071c-0.1-0.2-0.5-0.3-0.8-0.2c-0.1,0-0.2,0.101-0.299,0.2
	c-0.602,1.101-1.5,2.7-1.5,2.7l-0.5-0.8c-0.102-0.2-0.5-0.3-0.701-0.2c-0.1,0.1-0.199,0.1-0.299,0.3l-2.201,3.8l-0.4-0.399
	c-0.1-0.101-0.398-0.2-0.5-0.101c-0.1,0-0.1,0.101-0.1,0.2l-2.1,5.4H3.342c-0.199,0-0.398,0.1-0.398,0.3c-0.102,0.1,0,0.3,0.299,0.3
	l0,0l0,0h1.4l2,3.5c0.1,0.2,0.4,0.2,0.6,0.101c0,0,0.1,0,0.1-0.101l0.301-0.3l2.199,3.101c0.201,0.199,0.602,0.3,0.9,0.1
	c0.1,0,0.1-0.1,0.201-0.1l0.5-0.601c0,0,0.898,1.3,1.5,2.2c0.099,0.3,0.5,0.3,0.799,0.2c0.1,0,0.1-0.101,0.2-0.2l1.1-1.6l0.41-0.138
	c0.1,0.1,0.362-0.26,0.563-0.359l0.5-0.5l0.728-1.003l0.8,0.3c0.2,0.1,0.5,0,0.601-0.2c0,0,0,0,0-0.1l0.6-1.801l1.1,0.2
	c0.301,0.101,0.5,0,0.601-0.3l1-2.5h1.899c0.2,0,0.4-0.1,0.4-0.3c0-0.2-0.2-0.3-0.4-0.3h-1.8l-1-4.2c-0.1-0.2-0.3-0.4-0.6-0.301l0,0
	l-1.101,0.301l-0.6-2.2c0-0.2-0.2-0.3-0.5-0.3c-0.1,0-0.1,0-0.1,0l-0.801,0.399 M12.444,17.972l-1.801,2.9l-2.5-3.601l-1.301,1.2
	l-1.5-2.8h15.901l-0.8,1.9l-1.7-0.5l-0.5,1.7l-0.6-0.5l-0.4-0.5l-1.228,0.994l-0.572,0.806l-1.5,3l-0.8-2.6 M15.843,16.472
	L15.843,16.472"/>
<polyline fill="#FFFFFF" stroke="#9A7D22" stroke-width="0.25" stroke-linecap="round" stroke-linejoin="round" stroke-miterlimit="10" points="
	11.021,5.271 20.5,9.583 21.553,18.133 21.553,18.225 4.947,18.225 6.167,10.375 9.792,10.626 "/>
</svg>
