<?xml version="1.0" encoding="utf-8"?>
<!-- Generator: Adobe Illustrator 25.2.0, SVG Export Plug-In . SVG Version: 6.00 Build 0)  -->
<svg version="1.1" id="Capa_1" xmlns="http://www.w3.org/2000/svg" xmlns:xlink="http://www.w3.org/1999/xlink" x="0px" y="0px"
	 width="26.5px" height="33px" viewBox="0 0 26.5 33" style="enable-background:new 0 0 26.5 33;" xml:space="preserve">
<style type="text/css">
	.st0{fill:#20547E;}
	.st1{fill:#FFFFFF;}
	.st2{fill:#20547E;stroke:#FFFFFF;stroke-width:0.75;stroke-linecap:round;stroke-linejoin:round;stroke-miterlimit:10;}
</style>
<g>
	<path class="st0" d="M13.5,0.3C6.8,0.3,1.1,6,1.1,12.8c0,4.1,2.2,6.8,5,10c2.5,2.8,5.1,4.7,7.3,9.6c2.3-4.9,5-6.7,7.5-9.6
		c2.7-3.2,5-5.9,5-10C25.9,6,20.3,0.3,13.5,0.3C13.5,0.3,13.5,0.3,13.5,0.3z"/>
	<path class="st1" d="M13.5,1.8c-5.9,0-10.9,5-10.9,11c0,3.6,1.9,6,4.4,8.7c2.2,2.5,4.6,4.1,6.5,8.4c2.1-4.3,4.4-5.9,6.6-8.4
		c2.4-2.8,4.4-5.1,4.4-8.7C24.5,6.8,19.6,1.8,13.5,1.8C13.5,1.8,13.5,1.8,13.5,1.8z"/>
</g>
<path class="st2" d="M13.5,25.2c0.4-1.1,2.7-1.8,2.7-1.8c2.6-1,3.8-2.8,3.8-2.8c2.6-3.1,0.9-6.7,0.9-6.7c-1.5-3.5,0.5-7.2,0.5-7.2
	l-2.5-2.9c0,0-2,2.4-5.3,0.6l0,0C10.2,6,8.2,3.7,8.2,3.7L5.7,6.6c0,0,1.9,3.7,0.5,7.2c0,0-1.7,3.6,0.9,6.7c0,0,1.2,1.7,3.8,2.8
	C10.8,23.3,13.1,24.1,13.5,25.2L13.5,25.2z"/>
<path class="st1" d="M10,12.2c0.1,0.4,0.2,0.7,0.1,1.1c0,0.4-0.2,0.5-0.4,0.8c-0.3,0.6-0.3,1.7-0.2,2.3c0.1,0.6,0.3,1.2,0.6,1.7
	c0.5,0.7,1.3,1.3,2.1,1.6c0.1,0.1,0.4,0.1,0.5,0.2c0,0-0.3-0.2-0.5-1.2c-0.3-1-0.8-3.7,0-4.7c0.8-1.1,1.4-1.2,1.4-1.2
	s-0.3,1.7,0.2,2.5c0.5,0.8,0.6,0.7,0.6,0.7s0-0.6,0.1-1l0.2-0.4c0,0,0.2,0.6,0.6,1.3c0.4,0.7,0.9,2,0.3,2.9
	c-0.6,0.9-0.4,1.2-0.4,1.2c1-0.5,1.9-1.8,1.9-1.8c1.6-1.8,0-5.3-0.3-6.1c-0.3-0.8-0.2-1.2-0.2-1.2l-0.6,0.4
	c-0.6,0.5-0.6,0.2-0.6,0.2c-0.6-0.6-0.6-4-0.6-4c-1,0.5-1.8,1.2-2.5,1.9c0,0-0.7,1.7-0.7,2.3c0,0.8-1.8-0.9-2-1.1
	C9.6,10.9,9.9,11.7,10,12.2z"/>
</svg>
