<?xml version="1.0" encoding="utf-8"?>
<!-- Generator: Adobe Illustrator 16.0.0, SVG Export Plug-In . SVG Version: 6.00 Build 0)  -->
<!DOCTYPE svg PUBLIC "-//W3C//DTD SVG 1.1//EN" "http://www.w3.org/Graphics/SVG/1.1/DTD/svg11.dtd">
<svg version="1.1" id="Capa_1" xmlns="http://www.w3.org/2000/svg" xmlns:xlink="http://www.w3.org/1999/xlink" x="0px" y="0px"
	 width="26.458px" height="33.042px" viewBox="0 0 26.458 33.042" enable-background="new 0 0 26.458 33.042" xml:space="preserve">
<g>
	<path fill="#20547E" d="M13.234,0.612c-6.706,0-12.318,5.701-12.318,12.511c0,4.119,2.184,6.812,4.991,9.982
		c2.494,2.848,5.146,4.658,7.327,9.568c2.343-4.91,4.995-6.721,7.486-9.568c2.653-3.171,4.993-5.863,4.993-9.982
		C25.713,6.312,20.102,0.612,13.234,0.612L13.234,0.612z"/>
	<path fill="#FFFFFF" d="M13.243,2.082c-5.944,0-10.919,4.991-10.919,10.951c0,3.604,1.936,5.962,4.424,8.736
		c2.211,2.49,4.561,4.076,6.496,8.375c2.075-4.299,4.428-5.885,6.637-8.375c2.353-2.775,4.425-5.132,4.425-8.736
		c0-5.961-4.974-10.951-11.059-10.951H13.243L13.243,2.082z"/>
</g>
<g>
	<path fill="#20547E" d="M13.348,5.32c2.181,0.165,8.932,5.208,9.855,5.778c0.918,0.57,0.346,1.343,0,1.656
		c-0.351,0.313-1.108,1.839-1.108,1.839c-3.873-1.382-7.417-1.418-8.72-1.372h-0.117c-1.306-0.043-4.846-0.01-8.724,1.372
		c0,0-0.754-1.526-1.105-1.839c-0.347-0.313-0.92-1.085,0-1.656c0.92-0.57,7.672-5.612,9.855-5.778H13.348z"/>
	<path fill="#20547E" d="M13.369,14.189c0,0,5.292,0.111,8.471,0.939c0,0,0.662,1.515-1.084,2.075
		c-1.75,0.559-4.03,1.09-7.289,1.129h-0.285c-3.259-0.039-5.543-0.57-7.288-1.129c-1.749-0.561-1.086-2.075-1.086-2.075
		c3.185-0.827,8.473-0.939,8.473-0.939H13.369z"/>
	<path fill="#FFFFFF" d="M13.316,12.093c0.093-0.209,0.642-0.363,0.642-0.363c0.604-0.206,0.896-0.55,0.896-0.55
		c0.618-0.612,0.224-1.334,0.224-1.334c-0.35-0.703,0.108-1.437,0.108-1.437l-0.603-0.585c0,0-0.476,0.466-1.268,0.113l0,0
		c-0.79,0.354-1.267-0.113-1.267-0.113l-0.601,0.584c0,0,0.456,0.735,0.106,1.438c0,0-0.393,0.722,0.222,1.333
		c0,0,0.292,0.343,0.899,0.549C12.675,11.728,13.223,11.883,13.316,12.093L13.316,12.093z"/>
</g>
</svg>
