<?xml version="1.0" encoding="utf-8"?>
<!-- Generator: Adobe Illustrator 16.0.0, SVG Export Plug-In . SVG Version: 6.00 Build 0)  -->
<!DOCTYPE svg PUBLIC "-//W3C//DTD SVG 1.1//EN" "http://www.w3.org/Graphics/SVG/1.1/DTD/svg11.dtd">
<svg version="1.1" id="Capa_1" xmlns="http://www.w3.org/2000/svg" xmlns:xlink="http://www.w3.org/1999/xlink" x="0px" y="0px"
	 width="26.458px" height="33.042px" viewBox="0 0 26.458 33.042" enable-background="new 0 0 26.458 33.042" xml:space="preserve">
<g>
	<path fill="#20547E" d="M13.234,0.612c-6.706,0-12.318,5.701-12.318,12.511c0,4.119,2.184,6.812,4.991,9.982
		c2.494,2.848,5.146,4.658,7.327,9.568c2.343-4.91,4.995-6.721,7.486-9.568c2.653-3.171,4.993-5.863,4.993-9.982
		C25.713,6.312,20.102,0.612,13.234,0.612L13.234,0.612z"/>
	<path fill="#FFFFFF" d="M13.243,2.082c-5.944,0-10.919,4.991-10.919,10.951c0,3.604,1.936,5.962,4.424,8.736
		c2.211,2.49,4.561,4.076,6.496,8.375c2.075-4.299,4.428-5.885,6.637-8.375c2.353-2.775,4.425-5.132,4.425-8.736
		c0-5.961-4.974-10.951-11.059-10.951H13.243L13.243,2.082z"/>
</g>
<path fill="none" stroke="#20547E" stroke-width="1.1" stroke-miterlimit="10" d="M12.69,4.968h-1.263v2.147h-1.84V4.968h-1.66
	v3.863c0,0,3.701,3.702,0,8.816v3.837h5.385h0.251h5.139v-3.837c-3.699-5.114,0-8.816,0-8.816V4.968h-1.66v2.147h-1.838V4.968
	h-0.732H12.69z"/>
<line fill="none" stroke="#20547E" stroke-width="0.5" stroke-miterlimit="10" x1="8.032" y1="7.3" x2="18.426" y2="7.3"/>
<line fill="none" stroke="#20547E" stroke-width="0.7" stroke-miterlimit="10" x1="8.565" y1="9.668" x2="18.225" y2="9.668"/>
<line fill="none" stroke="#20547E" stroke-width="0.7" stroke-miterlimit="10" x1="8.582" y1="16.775" x2="18.225" y2="16.775"/>
<line fill="none" stroke="#20547E" stroke-width="0.9" stroke-miterlimit="10" x1="8.186" y1="19.146" x2="18.577" y2="19.146"/>
<line fill="none" stroke="#20547E" stroke-width="0.5" stroke-miterlimit="10" x1="10.501" y1="7.3" x2="10.501" y2="9.668"/>
<line fill="none" stroke="#20547E" stroke-width="0.5" stroke-miterlimit="10" x1="16.172" y1="7.3" x2="16.172" y2="9.668"/>
<line fill="none" stroke="#20547E" stroke-width="0.5" stroke-miterlimit="10" x1="16.172" y1="16.752" x2="16.172" y2="19.121"/>
<line fill="none" stroke="#20547E" stroke-width="0.5" stroke-miterlimit="10" x1="10.501" y1="16.752" x2="10.501" y2="19.121"/>
<line fill="none" stroke="#20547E" stroke-width="0.5" stroke-miterlimit="10" x1="13.315" y1="19.146" x2="13.315" y2="21.515"/>
<ellipse fill="#20547E" cx="13.315" cy="13.113" rx="0.818" ry="1.383"/>
</svg>
