<?xml version="1.0" encoding="utf-8"?>
<!-- Generator: Adobe Illustrator 16.0.0, SVG Export Plug-In . SVG Version: 6.00 Build 0)  -->
<!DOCTYPE svg PUBLIC "-//W3C//DTD SVG 1.1//EN" "http://www.w3.org/Graphics/SVG/1.1/DTD/svg11.dtd">
<svg version="1.1" id="Capa_1" xmlns="http://www.w3.org/2000/svg" xmlns:xlink="http://www.w3.org/1999/xlink" x="0px" y="0px"
	 width="26.458px" height="33.042px" viewBox="0 0 26.458 33.042" enable-background="new 0 0 26.458 33.042" xml:space="preserve">
<g>
	<path fill="#20547E" d="M13.234,0.612c-6.706,0-12.318,5.701-12.318,12.511c0,4.119,2.184,6.812,4.991,9.982
		c2.494,2.848,5.146,4.658,7.327,9.568c2.343-4.91,4.995-6.721,7.486-9.568c2.653-3.171,4.993-5.863,4.993-9.982
		C25.713,6.312,20.102,0.612,13.234,0.612L13.234,0.612z"/>
	<path fill="#FFFFFF" d="M13.243,2.082c-5.944,0-10.919,4.991-10.919,10.951c0,3.604,1.936,5.962,4.424,8.736
		c2.211,2.49,4.561,4.076,6.496,8.375c2.075-4.299,4.428-5.885,6.637-8.375c2.353-2.775,4.425-5.132,4.425-8.736
		c0-5.961-4.974-10.951-11.059-10.951H13.243L13.243,2.082z"/>
</g>
<g>
	<path fill="#20547E" d="M11.459,17.449l0.202-2.907c0.006-0.087,0.043-0.163,0.111-0.227c0.067-0.065,0.145-0.096,0.232-0.096
		h2.747c0.086,0,0.164,0.031,0.231,0.096c0.067,0.063,0.104,0.139,0.11,0.227l0.203,2.907c0.006,0.09-0.021-0.16-0.082-0.096
		c-0.061,0.063,0.228,0.096,0.14,0.096H22.1c0.311,0,0.465-0.244,0.465-0.737c0-0.363-0.087-0.753-0.264-1.171L18.092,5
		c-0.055-0.128-0.143-0.239-0.264-0.333s-0.248-0.142-0.384-0.142h-3.422c0.283,0,0.248,0.032,0.313,0.096
		c0.066,0.064,0.021,0.14,0.029,0.228l0.15,1.938c0.008,0.094-0.02,0.172-0.08,0.232c-0.063,0.06-0.137,0.09-0.223,0.09h-1.676
		c-0.087,0-0.161-0.03-0.221-0.09c-0.061-0.061-0.088-0.138-0.082-0.232l0.152-2.262c0.006-0.087-0.06,0.057,0.008-0.008
		c0.067-0.063-0.021,0.008,0.067,0.008H9.309c-0.135,0-0.262,0.047-0.383,0.142C8.805,4.762,8.717,4.872,8.663,5l-4.21,10.541
		c-0.175,0.418-0.263,0.808-0.263,1.171c0,0.493,0.155,0.737,0.464,0.737 M14.903,11.997c0.006,0.081-0.021,0.148-0.081,0.202
		c-0.061,0.054-0.132,0.081-0.212,0.081h-2.464c-0.082,0-0.151-0.027-0.212-0.081c-0.061-0.054-0.088-0.121-0.081-0.202v-0.041
		l0.243-3.231c0.006-0.087,0.043-0.163,0.11-0.227s0.146-0.096,0.232-0.096h1.877c0.088,0,0.166,0.032,0.232,0.096
		s0.104,0.14,0.111,0.227l0.241,3.231L14.903,11.997L14.903,11.997z"/>
</g>
</svg>
