<?xml version="1.0" encoding="utf-8"?>
<!-- Generator: Adobe Illustrator 21.0.0, SVG Export Plug-In . SVG Version: 6.00 Build 0)  -->
<svg version="1.1" id="Capa_1" xmlns="http://www.w3.org/2000/svg" xmlns:xlink="http://www.w3.org/1999/xlink" x="0px" y="0px"
	 viewBox="0 0 24 24" style="enable-background:new 0 0 24 24;" xml:space="preserve">
<style type="text/css">
	.st0{fill:#FFFFFF;stroke:#FFFFFF;stroke-miterlimit:10;}
	.st1{display:none;}
	.st2{display:inline;fill:#9A7D22;}
	.st3{fill:#20547E;}
</style>
<circle class="st0" cx="12" cy="10.2" r="9"/>
<g id="Capa_1_1_" class="st1">
	<circle class="st2" cx="12" cy="10.4" r="10"/>
</g>
<g id="Capa_3">
	<path class="st3" d="M12,0L12,0C6.3-0.1,1.7,4.4,1.6,10.1v0.1c0,3.1,1.3,5.5,3.6,7.8c3,2.9,5.8,5.6,5.8,5.6
		c0.3,0.3,0.7,0.5,1.2,0.4v-0.4l0,0V24c0.4-0.1,0.7-0.2,1-0.5c0,0,2.7-2.7,5.7-5.7c2.3-2.2,3.5-4.5,3.5-7.7C22.4,4.5,17.8,0,12,0
		C12.1,0,12,0,12,0z M12,19c-4.9,0-9-4-9-8.9s4-9,8.9-9s9,4,9,8.9l0,0C20.9,15,16.9,19,12,19L12,19z"/>
</g>
<path class="st3" d="M17.8,8c-0.3-0.6-0.5-0.7,0-1.3c0.1-0.1,0.1-0.2,0-0.3c0,0,0,0,0,0c-0.6-0.5-0.4-0.4,0-1v0
	C18,5,17.9,4.6,17.7,4.2c-0.3-0.3-0.7-0.4-1.2-0.3c-0.9,0.3-2.3,0.2-3.3-0.1c-0.3-0.1-0.7-0.1-1-0.2h0H12c-0.1,0-0.1,0-0.2,0h0
	c-0.4,0-0.7,0.1-1,0.2C9.8,4.1,8.4,4.2,7.5,3.9C7,3.8,6.6,3.9,6.3,4.2C6,4.6,6,5,6.2,5.4v0c0.3,0.6,0.5,0.5,0,1C6,6.5,6,6.6,6.1,6.7
	c0,0,0,0,0,0c0.6,0.5,0.4,0.6,0,1.3v0C6,8.4,6,8.8,6.3,9C6.6,9.4,7,9.5,7.5,9.3c0.9-0.3,2.7-0.1,3,0c0.1,0,0.2,0.1,0.3,0.2h0
	c-0.2,0-0.3,0.1-0.3,0.3s0.1,0.3,0.3,0.3l-2,4.4c0,0,0,0.1,0,0.1v1.6c0,0.1,0.1,0.2,0.2,0.2H15c0.1,0,0.2-0.1,0.2-0.2v-1.6l0,0
	c0,0,0,0,0,0v0c0,0,0,0,0,0v0l-2.1-4.5c0.2,0,0.3-0.1,0.3-0.3s-0.1-0.3-0.3-0.3h-0.1c0.1-0.1,0.2-0.2,0.4-0.2c0.3-0.1,2.1-0.3,3,0
	c0.5,0.1,0.9,0,1.2-0.3C18,8.8,18,8.3,17.8,8L17.8,8z M12.7,10.1l0.4,0.9L12,11.8l-1.1-0.9l0.4-0.8L12.7,10.1z M14.4,13.9l-2.1-1.7
	l0.9-0.8L14.4,13.9z M10.7,11.3l1,0.8l-2.1,1.7L10.7,11.3z M12,12.4l2.4,2H9.5L12,12.4z M9.2,14.9h5.6V16H9.2V14.9z"/>
</svg>
