<?xml version="1.0" encoding="utf-8"?>
<!-- Generator: Adobe Illustrator 16.0.0, SVG Export Plug-In . SVG Version: 6.00 Build 0)  -->
<!DOCTYPE svg PUBLIC "-//W3C//DTD SVG 1.1//EN" "http://www.w3.org/Graphics/SVG/1.1/DTD/svg11.dtd">
<svg version="1.1" id="Capa_1" xmlns="http://www.w3.org/2000/svg" xmlns:xlink="http://www.w3.org/1999/xlink" x="0px" y="0px"
	 width="24px" height="24px" viewBox="0 0 24 24" enable-background="new 0 0 24 24" xml:space="preserve">
<circle fill="#FFFFFF" stroke="#FFFFFF" stroke-miterlimit="10" cx="12.001" cy="10.25" r="9"/>
<g id="Capa_1_1_" display="none">
	<circle display="inline" fill="#9A7D22" cx="12" cy="10.4" r="10"/>
</g>
<g id="Capa_3">
	<path fill="#B5343A" d="M11.997,0.001L11.997,0.001c-5.66-0.085-10.315,4.434-10.4,10.093c0,0.044,0,0.089,0,0.133
		c0,3.126,1.311,5.527,3.563,7.753c2.972,2.929,5.813,5.599,5.813,5.599c0.311,0.3,0.736,0.45,1.167,0.412v-0.412l0,0V24
		c0.367-0.079,0.715-0.232,1.021-0.455c0,0,2.741-2.74,5.696-5.652c2.254-2.221,3.547-4.533,3.547-7.677
		C22.376,4.547,17.759-0.027,12.09,0C12.06,0,12.028,0,11.997,0.001z M11.997,19c-4.946,0.003-8.957-4.004-8.959-8.949
		c-0.003-4.945,4.003-8.956,8.948-8.959c4.944-0.002,8.956,4.003,8.958,8.949c0,0.003,0,0.007,0,0.011
		C20.939,14.995,16.936,19,11.991,19H11.997z"/>
</g>
<g>
	<path fill="#B5343A" d="M8.16,10.765c0,0,0.171-0.212,0.441-0.382c0.267-0.172,0.443-0.5,0.404-0.639
		c-0.04-0.14-0.371-0.811-0.371-0.811S8.381,8.59,8.563,8.495c0.185-0.094,0.042-0.247,0.042-0.247s0.06,0.01,0.007-0.252
		c-0.053-0.264-0.154-0.27-0.154-0.27s-0.067-0.413,0.025-0.33C8.575,7.478,8.62,7.34,8.568,7.252
		c-0.05-0.086,0.069,0.018,0.08-0.126c0.01-0.145-0.206-0.575,0.03-0.533c0.239,0.043,0.326,0,0.227-0.158
		C8.803,6.279,9.269,6.221,9.269,6.221s0.021-0.22,0.209-0.342c0.188-0.119,0.23-0.123,0.406-0.301
		c0.173-0.179,0.412-0.313,0.453-0.258c0.038,0.055,0.173,0.143,0.075,0.169C10.313,5.516,10.1,5.48,10.058,5.567
		c-0.04,0.089-0.016,0.162-0.071,0.269C9.929,5.943,9.872,5.873,9.748,5.97C9.622,6.066,9.539,6.235,9.539,6.235
		S9.337,6.399,9.347,6.49c0.01,0.091-0.119,0.155-0.021,0.221c0.1,0.065,0.023-0.021,0.156-0.042
		c0.132-0.022,0.209-0.004,0.177,0.09c-0.032,0.094-0.166,0.186-0.274,0.18c-0.108-0.004-0.3,0.016-0.3,0.091
		C9.083,7.106,9.12,7.127,9.044,7.218C8.969,7.31,8.915,7.351,8.897,7.512c-0.016,0.16-0.022,0.271-0.015,0.337
		c0.007,0.067-0.023,0.246,0.111,0.257c0.136,0.012,0.102-0.068,0.186-0.144c0.085-0.076,0.219,0.003,0.15,0.064
		C9.26,8.086,9.397,8.199,9.397,8.199s0.228,0.49,0.295,0.583c0.068,0.094,0.105,0.19,0.086,0.26C9.76,9.11,9.831,8.979,9.886,9.173
		c0.055,0.196,0.059,0.162,0.065,0.304c0.006,0.143,0.042,0.4,0.046,0.44c0.004,0.042,0.05,0.079,0.065,0.228
		c0.016,0.151-0.004,0.295-0.014,0.371c-0.007,0.078-0.029,0.274-0.084,0.312c-0.055,0.039-0.219,0.065-0.218,0.157
		c0.001,0.091-0.022,0.262-0.022,0.262s-0.314,0.226-0.47,0.419c-0.157,0.192-0.201,0.332-0.201,0.332L8.645,12.1L8.16,10.765z"/>
	<path fill="#B5343A" d="M7.942,10.039c0,0-0.13-0.113-0.069-0.269c0.059-0.158,0.018-0.221,0.156-0.269
		C8.167,9.453,8.451,9.44,8.34,9.343C8.229,9.244,8.026,9.307,7.999,9.202C7.97,9.095,8.023,8.956,7.956,8.794
		c-0.069-0.161-0.052-0.381,0.027-0.39c0.083-0.009,0.05-0.013,0.246,0.194c0.198,0.206,0.152,0.335,0.327,0.563
		c0.175,0.226,0.218,0.397,0.203,0.518c-0.01,0.118-0.18,0.345-0.18,0.345s-0.19,0.18-0.268,0.179c-0.076,0-0.227-0.161-0.227-0.161
		L7.942,10.039z"/>
	<path fill="#B5343A" stroke="#B5343A" stroke-width="0.2" stroke-miterlimit="10" d="M9.335,13.902c0,0,0.194,0.098,0.307,0.045
		c0.11-0.055,0.411,0.175,0.494,0.227c0.083,0.051,0.469,0.23,0.456,0.256c-0.015,0.024-0.124,0.247,0.022,0.197
		c0.145-0.048,0.203-0.223,0.242-0.251s0.256-0.215,0.491-0.251c0.236-0.032,0.429,0.047,0.498-0.003
		c0.071-0.049,0.152-0.101,0.228-0.164c0.077-0.067,0.102-0.163,0.287-0.149c0.186,0.015,0.33,0.018,0.401-0.022
		c0.07-0.044,0.384-0.007,0.438-0.164c0.05-0.156-0.031-0.199,0.066-0.233c0.098-0.035,0.408-0.103,0.303-0.16
		c-0.107-0.057-0.495-0.082-0.495-0.082s-0.274-0.123-0.241-0.387c0.029-0.264,0.264-0.213,0.298-0.358
		c0.034-0.146,0.604-0.341,0.604-0.341l0.457-0.123l0.336-0.068l0.033-0.003l-3.594,5.935L9.335,13.902z"/>
	<path fill="#B5343A" d="M11.353,12.954c0,0-0.038-0.45,0.195-0.565c0.231-0.117,0.272-0.214,0.337-0.095
		c0.067,0.119,0.214,0.33,0.118,0.358c-0.098,0.023-0.142,0.014-0.065,0.147s0.08,0.329,0.08,0.329s-0.08,0.2-0.11,0.221
		c-0.03,0.021-0.275,0.18-0.301,0.183c-0.024,0.002-0.319,0.032-0.319,0.032s-0.452,0.232-0.354-0.045
		c0.097-0.279,0.256-0.289,0.316-0.328C11.307,13.152,11.353,12.954,11.353,12.954z"/>
	<path fill="none" stroke="#B5343A" stroke-width="0.25" stroke-miterlimit="10" d="M9.553,12.93c0,0-0.051,0.168-0.058,0.26
		c-0.007,0.094-0.317,0.023-0.038-0.365C9.736,12.433,9.553,12.93,9.553,12.93z"/>
	<path fill="none" stroke="#B5343A" stroke-width="0.25" stroke-miterlimit="10" d="M10.106,13.479c0,0,0.2-0.088,0.199-0.181
		c-0.002-0.093,0.111-0.301,0.125-0.173c0.013,0.125,0.048,0.465-0.004,0.521c-0.054,0.056-0.219-0.088-0.276-0.059
		c-0.055,0.032-0.324-0.049-0.219-0.169C10.036,13.301,10.106,13.479,10.106,13.479z"/>
	<path fill="none" stroke="#B5343A" stroke-width="0.25" stroke-miterlimit="10" d="M14.559,11.866L17.951,4.9
		C11.854,2.66,6.05,4.533,6.05,4.533l2.108,6.231l1.176,3.138"/>
</g>
</svg>
