<?xml version="1.0" encoding="utf-8"?>
<!-- Generator: Adobe Illustrator 25.2.0, SVG Export Plug-In . SVG Version: 6.00 Build 0)  -->
<svg version="1.1" xmlns="http://www.w3.org/2000/svg" xmlns:xlink="http://www.w3.org/1999/xlink" x="0px" y="0px" width="26.5px"
	 height="33px" viewBox="0 0 26.5 33" style="enable-background:new 0 0 26.5 33;" xml:space="preserve">
<style type="text/css">
	.st0{fill:#5484A9;}
	.st1{fill:#FFFFFF;}
	.st2{fill:#447EA9;stroke:#447EA9;stroke-width:0.4;stroke-linejoin:round;stroke-miterlimit:10;}
</style>
<g id="Capa_1">
	<g>
		<path class="st0" d="M13.6,0.3C7.1,0.3,1.7,5.8,1.7,12.4c0,4,2.1,6.6,4.8,9.7c2.4,2.8,5,4.5,7.1,9.3c2.3-4.8,4.8-6.5,7.2-9.3
			c2.6-3.1,4.8-5.7,4.8-9.7C25.7,5.8,20.2,0.3,13.6,0.3C13.6,0.3,13.6,0.3,13.6,0.3z"/>
		<path class="st1" d="M13.6,1.7C7.8,1.7,3,6.5,3,12.3c0,3.5,1.9,5.8,4.3,8.5c2.1,2.4,4.4,3.9,6.3,8.1c2-4.2,4.3-5.7,6.4-8.1
			c2.3-2.7,4.3-5,4.3-8.5C24.3,6.5,19.5,1.7,13.6,1.7C13.6,1.7,13.6,1.7,13.6,1.7z"/>
	</g>
</g>
<g id="Modo_de_aislamiento">
	<g id="Capa_2_2_">
		<path class="st2" d="M13.6,6c1.3,0.3,1.1,4.3,1.1,4.3l5.1,5l-0.1,0.8l-5-2.4l0,2.7l1.4,2l0,1.4l-2.5-1.6l0,0l-2.5,1.7l0-1.4l1.4-2
			l0-2.7l-5,2.5l-0.1-0.8l5.1-5.1C12.6,10.3,12.3,6.2,13.6,6C13.6,6,13.6,6,13.6,6z"/>
	</g>
</g>
</svg>
