<?xml version="1.0" encoding="utf-8"?>
<!-- Generator: Adobe Illustrator 16.0.0, SVG Export Plug-In . SVG Version: 6.00 Build 0)  -->
<!DOCTYPE svg PUBLIC "-//W3C//DTD SVG 1.1//EN" "http://www.w3.org/Graphics/SVG/1.1/DTD/svg11.dtd">
<svg version="1.1" id="Capa_1" xmlns="http://www.w3.org/2000/svg" xmlns:xlink="http://www.w3.org/1999/xlink" x="0px" y="0px"
	 width="26.458px" height="33.042px" viewBox="0 0 26.458 33.042" enable-background="new 0 0 26.458 33.042" xml:space="preserve">
<g>
	<path fill="#20547E" d="M13.234,0.612c-6.706,0-12.318,5.701-12.318,12.511c0,4.119,2.184,6.812,4.991,9.982
		c2.494,2.848,5.146,4.658,7.327,9.568c2.343-4.91,4.995-6.721,7.486-9.568c2.653-3.171,4.993-5.863,4.993-9.982
		C25.713,6.312,20.102,0.612,13.234,0.612L13.234,0.612z"/>
	<path fill="#FFFFFF" d="M13.243,2.082c-5.944,0-10.919,4.991-10.919,10.951c0,3.604,1.936,5.962,4.424,8.736
		c2.211,2.49,4.561,4.076,6.496,8.375c2.075-4.299,4.428-5.885,6.637-8.375c2.353-2.775,4.425-5.132,4.425-8.736
		c0-5.961-4.974-10.951-11.059-10.951H13.243L13.243,2.082z"/>
</g>
<g>
	<path fill="#20547E" d="M12.292,21.815l0.112-1.608c0.003-0.048,0.024-0.09,0.061-0.124c0.037-0.037,0.08-0.054,0.128-0.054h1.521
		c0.047,0,0.091,0.017,0.127,0.054c0.038,0.034,0.059,0.076,0.063,0.124l0.111,1.608c0.004,0.05-0.011-0.088-0.045-0.052
		c-0.033,0.035,0.126,0.052,0.077,0.052h3.733c0.171,0,0.257-0.134,0.257-0.407c0-0.201-0.048-0.417-0.146-0.647l-2.329-5.833
		c-0.03-0.071-0.078-0.132-0.146-0.185c-0.068-0.052-0.138-0.078-0.212-0.078h-1.894c0.157,0,0.137,0.018,0.174,0.053
		c0.036,0.036,0.012,0.078,0.015,0.126l0.085,1.073c0.004,0.052-0.011,0.095-0.045,0.129c-0.034,0.032-0.076,0.05-0.123,0.05H12.89
		c-0.048,0-0.089-0.018-0.123-0.05c-0.034-0.034-0.049-0.077-0.045-0.129l0.084-1.251c0.003-0.048-0.033,0.031,0.004-0.004
		c0.037-0.035-0.012,0.004,0.037,0.004h-1.746c-0.075,0-0.145,0.026-0.212,0.078s-0.116,0.113-0.146,0.185l-2.33,5.833
		c-0.097,0.23-0.145,0.446-0.145,0.647c0,0.273,0.085,0.407,0.257,0.407 M14.198,18.799c0.003,0.044-0.012,0.081-0.045,0.111
		s-0.072,0.046-0.116,0.046h-1.364c-0.045,0-0.084-0.016-0.118-0.046s-0.049-0.067-0.045-0.111v-0.023l0.134-1.787
		c0.004-0.049,0.024-0.091,0.061-0.125c0.038-0.036,0.081-0.054,0.128-0.054h1.04c0.048,0,0.092,0.018,0.129,0.054
		c0.037,0.035,0.057,0.077,0.061,0.125l0.135,1.787V18.799L14.198,18.799z"/>
</g>
<g>
	
		<polygon fill="#20547E" stroke="#20547E" stroke-width="0.25" stroke-linecap="round" stroke-linejoin="round" stroke-miterlimit="10" points="
		7.905,7.572 13.402,3.232 18.9,7.572 	"/>
	
		<rect x="7.905" y="7.861" fill="#20547E" stroke="#20547E" stroke-width="0.25" stroke-linecap="round" stroke-linejoin="round" stroke-miterlimit="10" width="10.898" height="7.137"/>
</g>
</svg>
