<?xml version="1.0" encoding="utf-8"?>
<!-- Generator: Adobe Illustrator 21.0.0, SVG Export Plug-In . SVG Version: 6.00 Build 0)  -->
<svg version="1.1" id="Capa_1" xmlns="http://www.w3.org/2000/svg" xmlns:xlink="http://www.w3.org/1999/xlink" x="0px" y="0px"
	 viewBox="0 0 24 24" style="enable-background:new 0 0 24 24;" xml:space="preserve">
<style type="text/css">
	.st0{fill:#FFFFFF;stroke:#FFFFFF;stroke-miterlimit:10;}
	.st1{display:none;}
	.st2{display:inline;fill:#9A7D22;}
	.st3{fill:#20547E;}
	.st4{fill:#20547E;stroke:#20547E;stroke-width:0.25;stroke-linecap:round;stroke-linejoin:round;stroke-miterlimit:10;}
	.st5{fill:none;stroke:#20547E;stroke-width:0.5;stroke-linecap:round;stroke-linejoin:round;stroke-miterlimit:10;}
	.st6{fill:#FFFFFF;}
</style>
<circle class="st0" cx="12" cy="10.2" r="9"/>
<g id="Capa_1_1_" class="st1">
	<circle class="st2" cx="12" cy="10.4" r="10"/>
</g>
<g id="Capa_3">
	<path class="st3" d="M12,0L12,0C6.3-0.1,1.7,4.4,1.6,10.1v0.1c0,3.1,1.3,5.5,3.6,7.8c3,2.9,5.8,5.6,5.8,5.6
		c0.3,0.3,0.7,0.5,1.2,0.4v-0.4l0,0V24c0.4-0.1,0.7-0.2,1-0.5c0,0,2.7-2.7,5.7-5.7c2.3-2.2,3.5-4.5,3.5-7.7C22.4,4.5,17.8,0,12,0
		C12.1,0,12,0,12,0z M12,19c-4.9,0-9-4-9-8.9s4-9,8.9-9s9,4,9,8.9l0,0C20.9,15,16.9,19,12,19L12,19z"/>
</g>
<polygon class="st4" points="6.3,7.5 12,3 17.7,7.5 "/>
<rect x="6.3" y="7.8" class="st4" width="11.3" height="7.4"/>
<line class="st5" x1="5.5" y1="15.3" x2="18.5" y2="15.3"/>
<path class="st6" d="M16.2,9.3c-0.2-0.4-0.4-0.5,0-0.9c0.1-0.1,0.1-0.2,0-0.2c0,0,0,0,0,0c-0.4-0.4-0.3-0.3,0-0.7v0
	c0.1-0.3,0.1-0.6-0.1-0.8c-0.2-0.2-0.5-0.3-0.8-0.2c-0.6,0.2-1.7,0.1-2.3-0.1c-0.2-0.1-0.5-0.1-0.7-0.1h0H12c-0.1,0-0.1,0-0.1,0h0
	c-0.3,0-0.5,0-0.7,0.1c-0.7,0.2-1.7,0.3-2.3,0.1c-0.4-0.1-0.7,0-0.9,0.2C7.7,6.8,7.7,7.1,7.8,7.4v0c0.2,0.4,0.4,0.4,0,0.7
	c-0.1,0.1-0.1,0.2,0,0.2c0,0,0,0,0,0c0.4,0.4,0.3,0.5,0,0.9v0C7.7,9.5,7.7,9.8,7.9,10c0.2,0.2,0.5,0.3,0.9,0.2
	c0.7-0.2,1.9-0.1,2.2,0c0.1,0,0.2,0.1,0.2,0.1h0c-0.1,0-0.2,0.1-0.2,0.2s0.1,0.2,0.2,0.2L9.7,14c0,0,0,0,0,0.1v1.1
	c0,0.1,0.1,0.2,0.2,0.2h4.3c0.1,0,0.2-0.1,0.2-0.2V14l0,0c0,0,0,0,0,0v0c0,0,0,0,0,0v0l-1.5-3.2c0.1,0,0.2-0.1,0.2-0.2
	c0-0.1-0.1-0.2-0.2-0.2h0c0.1-0.1,0.2-0.1,0.3-0.1c0.2-0.1,1.5-0.2,2.2,0c0.3,0.1,0.7,0,0.9-0.2C16.3,9.8,16.3,9.5,16.2,9.3
	L16.2,9.3z M12.5,10.8l0.3,0.6L12,12l-0.8-0.7l0.3-0.6L12.5,10.8z M13.7,13.5l-1.5-1.2l0.7-0.5L13.7,13.5z M11.1,11.7l0.7,0.6
	l-1.5,1.2L11.1,11.7z M12,12.4l1.7,1.4h-3.5L12,12.4z M10,14.2h4V15h-4V14.2z"/>
</svg>
