<?xml version="1.0" encoding="utf-8"?>
<!-- Generator: Adobe Illustrator 16.0.0, SVG Export Plug-In . SVG Version: 6.00 Build 0)  -->
<!DOCTYPE svg PUBLIC "-//W3C//DTD SVG 1.1//EN" "http://www.w3.org/Graphics/SVG/1.1/DTD/svg11.dtd">
<svg version="1.1" id="Capa_1" xmlns="http://www.w3.org/2000/svg" xmlns:xlink="http://www.w3.org/1999/xlink" x="0px" y="0px"
	 width="26.458px" height="33.042px" viewBox="0 0 26.458 33.042" enable-background="new 0 0 26.458 33.042" xml:space="preserve">
<g>
	<path fill="#A1696B" d="M13.234,0.612c-6.706,0-12.318,5.701-12.318,12.511c0,4.118,2.184,6.812,4.991,9.982
		c2.494,2.848,5.146,4.658,7.327,9.568c2.342-4.91,4.995-6.721,7.486-9.568c2.653-3.171,4.994-5.864,4.994-9.982
		c0-6.811-5.612-12.511-12.478-12.511H13.234z"/>
	<path fill="#FFFFFF" d="M13.243,2.082c-5.944,0-10.919,4.991-10.919,10.951c0,3.604,1.936,5.962,4.424,8.736
		c2.211,2.491,4.561,4.076,6.496,8.375c2.075-4.299,4.428-5.884,6.638-8.375c2.352-2.776,4.424-5.132,4.424-8.736
		c0-5.961-4.974-10.951-11.059-10.951H13.243z"/>
</g>
<g id="Capa_8">
	<polygon fill="#DD3A3A" stroke="#FFFFFF" stroke-width="1.5" stroke-miterlimit="10" points="9.449,18.848 9.449,21.933 
		17.188,21.933 17.188,16.714 22.407,16.714 22.407,8.951 17.188,8.951 17.188,3.749 9.449,3.749 9.449,8.951 4.223,8.951 
		4.223,16.714 9.449,16.714 	"/>
</g>
</svg>
