<?xml version="1.0" encoding="utf-8"?>
<!-- Generator: Adobe Illustrator 16.0.0, SVG Export Plug-In . SVG Version: 6.00 Build 0)  -->
<!DOCTYPE svg PUBLIC "-//W3C//DTD SVG 1.1//EN" "http://www.w3.org/Graphics/SVG/1.1/DTD/svg11.dtd">
<svg version="1.1" id="Capa_1" xmlns="http://www.w3.org/2000/svg" xmlns:xlink="http://www.w3.org/1999/xlink" x="0px" y="0px"
	 width="26.5px" height="33px" viewBox="0 0 26.5 33" enable-background="new 0 0 26.5 33" xml:space="preserve">
<g>
	<path fill="#447DA9" d="M13.6,0.5C6.9,0.5,1.3,6.2,1.3,13c0,4.1,2.2,6.8,5,10c2.5,2.8,5.1,4.7,7.3,9.6c2.3-4.899,5-6.699,7.5-9.6
		c2.7-3.2,5-5.9,5-10C26.1,6.2,20.5,0.5,13.6,0.5L13.6,0.5z"/>
	<path fill="#FFFFFF" d="M13.7,2c-6,0-11,5-11,10.9c0,3.6,1.9,6,4.4,8.7c2.2,2.5,4.6,4.101,6.5,8.4c2.1-4.3,4.4-5.9,6.6-8.4
		c2.399-2.8,4.399-5.1,4.399-8.7C24.7,7,19.7,2,13.7,2L13.7,2z"/>
</g>
<g>
	<path fill="#FFFFFF" d="M11.6,8.3c0,0.2,0.2,0.4,0.4,0.4h3.3c0.2,0,0.4-0.2,0.4-0.4c0-0.2-0.2-0.4-0.4-0.4H12
		C11.8,7.8,11.6,8,11.6,8.3C11.6,8.3,11.6,8,11.6,8.3z"/>
</g>
<g>
	<path fill="#FFFFFF" d="M9.9,10.7c0,0.9,0.7,1.6,1.6,1.6h4.4c0.899,0,1.6-0.7,1.6-1.6c0-0.9-0.7-1.6-1.6-1.6h-4.4
		C10.7,9.1,9.9,9.8,9.9,10.7C9.9,10.7,9.9,9.8,9.9,10.7z"/>
</g>
<circle fill="#FFFFFF" cx="11" cy="14.2" r="0.5"/>
<path fill="#447DA9" d="M23.166,13.159c-0.139,5.161-4.323,9.346-9.625,9.207c-5.162-0.141-9.346-4.325-9.207-9.626
	c0.14-5.161,4.324-9.345,9.625-9.206C19.12,3.673,23.166,7.998,23.166,13.159"/>
<g id="Capa_2_1_">
	<polygon fill="#FFFFFF" points="9.078,18.879 11.31,18.879 11.31,13.857 16.053,13.857 16.053,18.879 18.423,18.879 18.423,7.161 
		16.053,7.161 16.053,11.904 11.31,11.904 11.31,7.161 9.078,7.161 	"/>
</g>
</svg>
