<?xml version="1.0" encoding="utf-8"?>
<!-- Generator: Adobe Illustrator 16.0.0, SVG Export Plug-In . SVG Version: 6.00 Build 0)  -->
<!DOCTYPE svg PUBLIC "-//W3C//DTD SVG 1.1//EN" "http://www.w3.org/Graphics/SVG/1.1/DTD/svg11.dtd">
<svg version="1.1" id="Capa_1" xmlns="http://www.w3.org/2000/svg" xmlns:xlink="http://www.w3.org/1999/xlink" x="0px" y="0px"
	 width="24px" height="24px" viewBox="0 0 24 24" enable-background="new 0 0 24 24" xml:space="preserve">
<circle fill="#FFFFFF" stroke="#FFFFFF" stroke-miterlimit="10" cx="12.001" cy="10.25" r="9"/>
<g id="Capa_1_1_" display="none">
	<circle display="inline" fill="#9A7D22" cx="12" cy="10.4" r="10"/>
</g>
<g id="Capa_3">
	<path fill="#EBC32E" d="M11.997,0.001L11.997,0.001c-5.66-0.085-10.315,4.434-10.4,10.093c0,0.044,0,0.089,0,0.133
		c0,3.126,1.311,5.527,3.563,7.753c2.972,2.929,5.813,5.599,5.813,5.599c0.311,0.3,0.736,0.45,1.167,0.412v-0.412l0,0V24
		c0.367-0.079,0.715-0.232,1.021-0.455c0,0,2.741-2.74,5.696-5.652c2.254-2.221,3.547-4.533,3.547-7.677
		C22.376,4.547,17.759-0.027,12.09,0C12.06,0,12.028,0,11.997,0.001z M11.997,19c-4.946,0.003-8.957-4.004-8.959-8.949
		c-0.003-4.945,4.003-8.956,8.948-8.959c4.944-0.002,8.956,4.003,8.958,8.949c0,0.003,0,0.007,0,0.011
		C20.939,14.995,16.936,19,11.991,19H11.997z"/>
</g>
<path fill="#EBC32E" d="M17.738,7.105c-0.104-0.056-0.229-0.056-0.331,0l-2.421,1.209l-0.03-0.915
	c-0.006-0.196-0.168-0.35-0.36-0.345c-0.053,0.001-0.104,0.014-0.15,0.039l-2.419,1.208l-0.032-0.915
	c-0.005-0.196-0.166-0.351-0.36-0.345c-0.052,0.001-0.104,0.015-0.15,0.039L9.351,8.153L9.12,4.388
	C9.112,4.076,8.863,3.824,8.554,3.816H6.717C6.408,3.822,6.159,4.073,6.151,4.384L5.5,15.2c-0.008,0.155,0.042,0.308,0.14,0.427
	c0.106,0.128,0.262,0.203,0.427,0.203h11.867c0.164,0,0.319-0.075,0.426-0.203c0.102-0.121,0.148-0.275,0.141-0.432
	c-0.176-3.476-0.575-7.755-0.575-7.808C17.914,7.268,17.844,7.162,17.738,7.105z"/>
<g>
	<path fill="#FFFFFF" d="M9.856,10.348l1.153,0.636c0.041,0.022,0.092,0.007,0.114-0.034l0.784-1.365
		c-0.11-0.182-0.204-0.335-0.246-0.424c-0.148-0.225-0.305-0.424-0.585-0.424l0,0c-0.083,0.002-0.165,0.018-0.242,0.047
		C10.653,8.863,10.504,9,10.41,9.174L9.814,10.22c-0.022,0.041-0.007,0.092,0.034,0.114L9.856,10.348z"/>
	<path fill="#FFFFFF" d="M12.688,10.432L12.688,10.432v0.038l0,0l0,0l0,0l0,0l0,0l0,0l0,0l0,0l0,0l0,0l0,0l0,0l0,0l-0.309,0.188
		l1.547,0.127L14.4,9.423l-0.279,0.169l0,0h-0.025l0,0H14.07h-0.034H13.98l0,0c-0.019-0.008-0.033-0.02-0.047-0.034l0,0V9.534
		L13.51,8.821l0,0c-0.083-0.157-0.246-0.256-0.424-0.258c-0.221,0-0.848,0-1.36,0c0.07,0.081,0.134,0.167,0.19,0.258
		C11.976,9.237,12.658,10.398,12.688,10.432z"/>
	<path fill="#FFFFFF" d="M13.488,11.861l0.789,1.374h0.475c0.256,0.026,0.508-0.084,0.661-0.293l0,0
		c0.04-0.071,0.067-0.15,0.081-0.232c0.025-0.202-0.02-0.407-0.127-0.581l-0.607-1.042c-0.023-0.041-0.074-0.055-0.115-0.032
		c0,0.001-0.002,0.001-0.002,0.002l-1.123,0.691C13.479,11.77,13.466,11.821,13.488,11.861z"/>
	<path fill="#FFFFFF" d="M13.137,13.477h-0.059l0,0l0,0l0,0l0,0l0,0l0,0l0,0v-0.039l0,0l0,0l0,0v-0.359l-0.882,1.271l0.941,1.088
		v-0.33l0,0c0-0.01,0-0.02,0-0.028l0,0v-0.024l0,0l0,0l0,0c0.01-0.018,0.023-0.031,0.038-0.044l0,0l0.052-0.024h0.033h0.848l0,0
		c0.172,0.004,0.334-0.084,0.425-0.229c0.114-0.19,0.424-0.741,0.683-1.179c-0.104,0.021-0.212,0.033-0.316,0.038
		C14.52,13.468,13.195,13.477,13.137,13.477z"/>
	<path fill="#FFFFFF" d="M11.552,13.398l-1.581-0.021c-0.106,0.188-0.195,0.345-0.229,0.424c-0.154,0.208-0.186,0.483-0.085,0.722
		l0,0c0.043,0.071,0.097,0.137,0.161,0.189c0.157,0.113,0.346,0.171,0.539,0.166h1.204c0.047,0,0.085-0.038,0.085-0.085l0,0v-1.317
		C11.641,13.43,11.599,13.395,11.552,13.398L11.552,13.398z"/>
	<path fill="#FFFFFF" d="M9.36,14.021c0.036-0.101,0.08-0.198,0.131-0.291c0.127-0.252,0.806-1.408,0.848-1.458l0,0l0,0l0,0l0,0l0,0
		l0,0l0,0h0.102l0,0l0,0l0.314,0.178l-0.648-1.412l-1.42,0.254l0.289,0.161l0,0H9l0,0l0,0l0,0l0,0l0,0
		c0.003,0.018,0.003,0.037,0,0.055l0,0c0.004,0.02,0.004,0.04,0,0.06l0,0v0.029l-0.424,0.729l0,0c-0.092,0.146-0.1,0.33-0.021,0.482
		C8.797,13.03,9.11,13.586,9.36,14.021z"/>
</g>
</svg>
