<?xml version="1.0" encoding="utf-8"?>
<!-- Generator: Adobe Illustrator 25.2.0, SVG Export Plug-In . SVG Version: 6.00 Build 0)  -->
<svg version="1.1" id="Capa_1" xmlns="http://www.w3.org/2000/svg" xmlns:xlink="http://www.w3.org/1999/xlink" x="0px" y="0px"
	 width="26.5px" height="33px" viewBox="0 0 26.5 33" style="enable-background:new 0 0 26.5 33;" xml:space="preserve">
<style type="text/css">
	.st0{fill:#447DA9;}
	.st1{fill:#FFFFFF;}
	.st2{fill:none;stroke:#447DA9;stroke-miterlimit:10;}
</style>
<g>
	<path class="st0" d="M13.5,0.3C6.8,0.3,1.1,6,1.1,12.8c0,4.1,2.2,6.8,5,10c2.5,2.8,5.1,4.7,7.3,9.6c2.3-4.9,5-6.7,7.5-9.6
		c2.7-3.2,5-5.9,5-10C25.9,6,20.3,0.3,13.5,0.3C13.5,0.3,13.5,0.3,13.5,0.3z"/>
	<path class="st1" d="M13.5,1.8c-5.9,0-10.9,5-10.9,11c0,3.6,1.9,6,4.4,8.7c2.2,2.5,4.6,4.1,6.5,8.4c2.1-4.3,4.4-5.9,6.6-8.4
		c2.4-2.8,4.4-5.1,4.4-8.7C24.5,6.8,19.6,1.8,13.5,1.8C13.5,1.8,13.5,1.8,13.5,1.8z"/>
</g>
<g>
	<line class="st2" x1="13.6" y1="9.4" x2="13.6" y2="19.8"/>
	<line class="st2" x1="11.6" y1="9.1" x2="15.6" y2="9.1"/>
	<path class="st2" d="M7.8,17.3c1,1.7,3.2,2.9,5.9,2.9c2.6,0,4.9-1.2,5.9-2.9"/>
	<g>
		<polygon class="st2" points="7.2,19 7.2,17 9.2,17.1 8.4,16.2 6.4,16.1 6.4,18.2 		"/>
	</g>
	<g>
		<polygon class="st2" points="20,18.8 19.7,16.8 17.8,17.1 18.4,16.1 20.4,15.8 20.7,17.8 		"/>
	</g>
	<ellipse class="st2" cx="13.6" cy="6.4" rx="1.8" ry="1.8"/>
</g>
</svg>
