<?xml version="1.0" encoding="utf-8"?>
<!-- Generator: Adobe Illustrator 16.0.0, SVG Export Plug-In . SVG Version: 6.00 Build 0)  -->
<!DOCTYPE svg PUBLIC "-//W3C//DTD SVG 1.1//EN" "http://www.w3.org/Graphics/SVG/1.1/DTD/svg11.dtd">
<svg version="1.1" id="Capa_1" xmlns="http://www.w3.org/2000/svg" xmlns:xlink="http://www.w3.org/1999/xlink" x="0px" y="0px"
	 width="24px" height="24px" viewBox="0 0 24 24" enable-background="new 0 0 24 24" xml:space="preserve">
<g id="Capa_2" display="none">
	
		<image display="inline" overflow="visible" enable-background="new    " width="21" height="21" xlink:href="../../../COMPU VIEJA/User - Geocarto-03/Geoportal/PNG/SVG/E00D7D74.jpg"  transform="matrix(0.9524 0 0 0.9524 2 2)">
	</image>
</g>
<g id="Capa_3" opacity="0.2">
	<g>
		<rect x="4.913" y="4.913" fill="#18793C" width="14.174" height="14.174"/>
		<g>
			<polyline fill="none" stroke="#0DDCBA" stroke-width="0.5" stroke-miterlimit="10" points="4.913,7.413 4.913,4.913 7.413,4.913 
							"/>
			
				<line fill="none" stroke="#0DDCBA" stroke-width="0.5" stroke-miterlimit="10" stroke-dasharray="3.0579,3.0579" x1="10.471" y1="4.913" x2="15.058" y2="4.913"/>
			<polyline fill="none" stroke="#0DDCBA" stroke-width="0.5" stroke-miterlimit="10" points="16.587,4.913 19.087,4.913 
				19.087,7.413 			"/>
			
				<line fill="none" stroke="#0DDCBA" stroke-width="0.5" stroke-miterlimit="10" stroke-dasharray="3.0579,3.0579" x1="19.087" y1="10.471" x2="19.087" y2="15.058"/>
			<polyline fill="none" stroke="#0DDCBA" stroke-width="0.5" stroke-miterlimit="10" points="19.087,16.587 19.087,19.087 
				16.587,19.087 			"/>
			
				<line fill="none" stroke="#0DDCBA" stroke-width="0.5" stroke-miterlimit="10" stroke-dasharray="3.0579,3.0579" x1="13.529" y1="19.087" x2="8.942" y2="19.087"/>
			<polyline fill="none" stroke="#0DDCBA" stroke-width="0.5" stroke-miterlimit="10" points="7.413,19.087 4.913,19.087 
				4.913,16.587 			"/>
			
				<line fill="none" stroke="#0DDCBA" stroke-width="0.5" stroke-miterlimit="10" stroke-dasharray="3.0579,3.0579" x1="4.913" y1="13.529" x2="4.913" y2="8.942"/>
		</g>
	</g>
</g>
<g id="Capa_3_1_">
	<g>
		<g>
			<polyline fill="none" stroke="#89CD66" stroke-width="0.5" stroke-miterlimit="10" points="4.913,7.413 4.913,4.913 7.413,4.913 
							"/>
			
				<line fill="none" stroke="#89CD66" stroke-width="0.5" stroke-miterlimit="10" stroke-dasharray="3.0579,3.0579" x1="10.471" y1="4.913" x2="15.058" y2="4.913"/>
			<polyline fill="none" stroke="#89CD66" stroke-width="0.5" stroke-miterlimit="10" points="16.587,4.913 19.087,4.913 
				19.087,7.413 			"/>
			
				<line fill="none" stroke="#89CD66" stroke-width="0.5" stroke-miterlimit="10" stroke-dasharray="3.0579,3.0579" x1="19.087" y1="10.471" x2="19.087" y2="15.058"/>
			<polyline fill="none" stroke="#89CD66" stroke-width="0.5" stroke-miterlimit="10" points="19.087,16.587 19.087,19.087 
				16.587,19.087 			"/>
			
				<line fill="none" stroke="#89CD66" stroke-width="0.5" stroke-miterlimit="10" stroke-dasharray="3.0579,3.0579" x1="13.529" y1="19.087" x2="8.942" y2="19.087"/>
			<polyline fill="none" stroke="#89CD66" stroke-width="0.5" stroke-miterlimit="10" points="7.413,19.087 4.913,19.087 
				4.913,16.587 			"/>
			
				<line fill="none" stroke="#89CD66" stroke-width="0.5" stroke-miterlimit="10" stroke-dasharray="3.0579,3.0579" x1="4.913" y1="13.529" x2="4.913" y2="8.942"/>
		</g>
	</g>
</g>
</svg>
