<?xml version="1.0" encoding="utf-8"?>
<!-- Generator: Adobe Illustrator 16.0.0, SVG Export Plug-In . SVG Version: 6.00 Build 0)  -->
<!DOCTYPE svg PUBLIC "-//W3C//DTD SVG 1.1//EN" "http://www.w3.org/Graphics/SVG/1.1/DTD/svg11.dtd">
<svg version="1.1" id="Capa_1" xmlns="http://www.w3.org/2000/svg" xmlns:xlink="http://www.w3.org/1999/xlink" x="0px" y="0px"
	 width="24px" height="24px" viewBox="0 0 24 24" enable-background="new 0 0 24 24" xml:space="preserve">
<g id="Capa_2" display="none">
</g>
<g id="Capa_3">
	<g>
		<rect x="4.913" y="4.913" fill="#B5623E" stroke="#B5623E" stroke-miterlimit="10" width="14.174" height="14.174"/>
		<g>
			<polyline fill="#B5623E" stroke="#B5623E" stroke-width="0.5" stroke-miterlimit="10" points="4.913,7.413 4.913,4.913 
				7.413,4.913 			"/>
			
				<line fill="#B5623E" stroke="#B5623E" stroke-width="0.5" stroke-miterlimit="10" x1="10.471" y1="4.913" x2="15.059" y2="4.913"/>
			<polyline fill="#B5623E" stroke="#B5623E" stroke-width="0.5" stroke-miterlimit="10" points="16.587,4.913 19.087,4.913 
				19.087,7.413 			"/>
			
				<line fill="#B5623E" stroke="#B5623E" stroke-width="0.5" stroke-miterlimit="10" x1="19.087" y1="10.471" x2="19.087" y2="15.059"/>
			<polyline fill="#B5623E" stroke="#B5623E" stroke-width="0.5" stroke-miterlimit="10" points="19.087,16.587 19.087,19.087 
				16.587,19.087 			"/>
			
				<line fill="#B5623E" stroke="#B5623E" stroke-width="0.5" stroke-miterlimit="10" x1="13.529" y1="19.087" x2="8.942" y2="19.087"/>
			<polyline fill="#B5623E" stroke="#B5623E" stroke-width="0.5" stroke-miterlimit="10" points="7.413,19.087 4.913,19.087 
				4.913,16.587 			"/>
			
				<line fill="#B5623E" stroke="#B5623E" stroke-width="0.5" stroke-miterlimit="10" x1="4.913" y1="13.529" x2="4.913" y2="8.942"/>
		</g>
	</g>
</g>
<g id="Capa_3_1_">
	<g>
		<rect x="9.496" y="4.913" fill="#F29485" stroke="#F29485" stroke-miterlimit="10" width="9.591" height="14.174"/>
		<g>
			<polyline fill="#F29485" stroke="#F29485" stroke-width="0.5" stroke-miterlimit="10" points="9.496,7.413 9.496,4.913 
				11.188,4.913 			"/>
			
				<line fill="#F29485" stroke="#F29485" stroke-width="0.5" stroke-miterlimit="10" x1="13.256" y1="4.913" x2="16.361" y2="4.913"/>
			<polyline fill="#F29485" stroke="#F29485" stroke-width="0.5" stroke-miterlimit="10" points="17.396,4.913 19.087,4.913 
				19.087,7.413 			"/>
			
				<line fill="#F29485" stroke="#F29485" stroke-width="0.5" stroke-miterlimit="10" x1="19.087" y1="10.471" x2="19.087" y2="15.059"/>
			<polyline fill="#F29485" stroke="#F29485" stroke-width="0.5" stroke-miterlimit="10" points="19.087,16.587 19.087,19.087 
				17.396,19.087 			"/>
			
				<line fill="#F29485" stroke="#F29485" stroke-width="0.5" stroke-miterlimit="10" x1="15.325" y1="19.087" x2="12.223" y2="19.087"/>
			<polyline fill="#F29485" stroke="#F29485" stroke-width="0.5" stroke-miterlimit="10" points="11.188,19.087 9.496,19.087 
				9.496,16.587 			"/>
			
				<line fill="#F29485" stroke="#F29485" stroke-width="0.5" stroke-miterlimit="10" x1="9.496" y1="13.529" x2="9.496" y2="8.942"/>
		</g>
	</g>
</g>
<g id="Capa_3_2_">
	<g>
		<rect x="14.664" y="4.913" fill="#709959" stroke="#709959" stroke-miterlimit="10" width="4.423" height="14.174"/>
		<g>
			<polyline fill="#709959" stroke="#709959" stroke-width="0.5" stroke-miterlimit="10" points="14.664,7.413 14.664,4.913 
				15.445,4.913 			"/>
			
				<line fill="#709959" stroke="#709959" stroke-width="0.5" stroke-miterlimit="10" x1="16.398" y1="4.913" x2="17.83" y2="4.913"/>
			<polyline fill="#709959" stroke="#709959" stroke-width="0.5" stroke-miterlimit="10" points="18.307,4.913 19.087,4.913 
				19.087,7.413 			"/>
			
				<line fill="#709959" stroke="#709959" stroke-width="0.5" stroke-miterlimit="10" x1="19.087" y1="10.471" x2="19.087" y2="15.059"/>
			<polyline fill="#709959" stroke="#709959" stroke-width="0.5" stroke-miterlimit="10" points="19.087,16.587 19.087,19.087 
				18.307,19.087 			"/>
			
				<line fill="#709959" stroke="#709959" stroke-width="0.5" stroke-miterlimit="10" x1="17.353" y1="19.087" x2="15.922" y2="19.087"/>
			<polyline fill="#709959" stroke="#709959" stroke-width="0.5" stroke-miterlimit="10" points="15.445,19.087 14.664,19.087 
				14.664,16.587 			"/>
			
				<line fill="#709959" stroke="#709959" stroke-width="0.5" stroke-miterlimit="10" x1="14.664" y1="13.529" x2="14.664" y2="8.942"/>
		</g>
	</g>
</g>
</svg>
