<?xml version="1.0" encoding="UTF-8" standalone="no"?>
<!-- Generator: Adobe Illustrator 16.0.0, SVG Export Plug-In . SVG Version: 6.00 Build 0)  -->

<svg
   version="1.1"
   id="Capa_1"
   x="0px"
   y="0px"
   width="26.458px"
   height="33.042px"
   viewBox="0 0 26.458 33.042"
   enable-background="new 0 0 26.458 33.042"
   xml:space="preserve"
   sodipodi:docname="anticipando_crecida_emas_visor.svg"
   inkscape:version="1.2.1 (9c6d41e410, 2022-07-14)"
   xmlns:inkscape="http://www.inkscape.org/namespaces/inkscape"
   xmlns:sodipodi="http://sodipodi.sourceforge.net/DTD/sodipodi-0.dtd"
   xmlns="http://www.w3.org/2000/svg"
   xmlns:svg="http://www.w3.org/2000/svg"><defs
   id="defs28" /><sodipodi:namedview
   id="namedview26"
   pagecolor="#ffffff"
   bordercolor="#000000"
   borderopacity="0.25"
   inkscape:showpageshadow="2"
   inkscape:pageopacity="0.0"
   inkscape:pagecheckerboard="0"
   inkscape:deskcolor="#d1d1d1"
   showgrid="false"
   inkscape:zoom="24.635313"
   inkscape:cx="12.400898"
   inkscape:cy="16.561592"
   inkscape:window-width="1920"
   inkscape:window-height="1017"
   inkscape:window-x="1912"
   inkscape:window-y="-8"
   inkscape:window-maximized="1"
   inkscape:current-layer="g13" />
<g
   id="g13">
	<path
   fill="#BF7D63"
   d="M13.234,0.612c-6.706,0-12.318,5.701-12.318,12.511c0,4.119,2.184,6.812,4.991,9.982   c2.494,2.848,5.146,4.658,7.327,9.568c2.343-4.91,4.995-6.721,7.486-9.568c2.653-3.171,4.993-5.863,4.993-9.982   c0-6.811-5.611-12.511-12.478-12.511H13.234z"
   id="path9"
   style="fill:#12b5e1;fill-opacity:1" />
	<path
   fill="#FFFFFF"
   d="M13.243,2.082c-5.944,0-10.919,4.991-10.919,10.951c0,3.604,1.936,5.962,4.424,8.736   c2.211,2.49,4.561,4.076,6.496,8.375c2.075-4.299,4.428-5.885,6.637-8.375c2.353-2.775,4.425-5.132,4.425-8.736   c0-5.961-4.974-10.951-11.059-10.951H13.243L13.243,2.082z"
   id="path11" />
</g><g
   id="g156"
   transform="translate(1.2297316,-0.63577907)">
	<path
   class="st0"
   d="M 11.8,8.8 C 11.7,8.8 11.7,8.7 11.6,8.7 11.3,8.8 11.1,8.9 10.8,9 L 11,8.5 c 0,-0.1 0,-0.3 -0.2,-0.3 -0.1,0 -0.3,0 -0.3,0.2 l -0.3,1 -1.3,0.5 V 8.5 L 9.7,7.8 C 9.8,7.7 9.8,7.5 9.7,7.4 9.6,7.3 9.4,7.3 9.3,7.4 v 0 L 8.8,7.8 V 7 C 8.8,6.9 8.6,6.7 8.5,6.8 8.4,6.8 8.3,6.9 8.3,7 V 7.7 L 7.9,7.4 C 7.8,7.3 7.6,7.3 7.5,7.4 7.4,7.5 7.4,7.7 7.5,7.8 L 8.3,8.5 V 9.9 L 7,9.3 6.7,8.3 C 6.7,8.2 6.5,8.1 6.4,8.1 6.3,8.1 6.2,8.3 6.2,8.4 v 0 L 6.4,8.9 C 6.1,8.9 5.9,8.8 5.6,8.7 5.5,8.7 5.3,8.8 5.3,8.9 5.3,9 5.4,9.2 5.5,9.2 L 6.2,9.5 5.6,9.7 C 5.5,9.8 5.4,9.9 5.5,10 v 0 c 0.1,0.1 0.2,0.2 0.3,0.1 v 0 l 1,-0.4 1.2,0.7 -1.1,0.7 -1,-0.3 c -0.1,0 -0.1,0 -0.2,0 -0.1,0.1 -0.1,0.2 -0.1,0.2 0,0.1 0.1,0.3 0.2,0.3 l 0.5,0.1 c -0.2,0.2 -0.5,0.4 -0.7,0.5 0,0.1 -0.1,0.1 -0.1,0.2 0,0.1 0,0.1 0.1,0.2 0.1,0.1 0.2,0.1 0.3,0 l 0.7,-0.4 -0.1,0.6 c 0,0.1 0.1,0.3 0.2,0.3 0.1,0 0.2,0 0.2,0 C 7,12.7 7,12.6 7,12.6 l 0.2,-1 1.1,-0.7 v 1.4 l -0.7,0.6 c -0.1,0 -0.1,0.1 -0.1,0.2 0,0.1 0,0.1 0.1,0.2 0,0.1 0.1,0.1 0.2,0.1 0.1,0 0.1,0 0.2,-0.1 l 0.4,-0.4 v 0.7 c 0,0.1 0.1,0.2 0.2,0.3 h 0.1 v 0 h 0.1 c 0.1,0 0.2,-0.1 0.2,-0.3 0,0 0,-0.2 0,-0.4 v -0.3 l 0.4,0.4 c 0.1,0.1 0.3,0.1 0.4,0 0,0 0.1,-0.1 0.1,-0.2 0,-0.1 0,-0.1 -0.1,-0.2 L 8.9,12.2 v -1.4 l 1.1,0.7 0.2,1 c 0,0.1 0.1,0.1 0.1,0.2 0.1,0 0.1,0.1 0.2,0 0.1,0 0.1,-0.1 0.2,-0.1 0,-0.1 0.1,-0.1 0,-0.2 l -0.1,-0.5 0.6,0.4 c 0.1,0.1 0.2,0.1 0.3,0 0.1,-0.1 0.1,-0.3 0,-0.4 -0.1,-0.1 -0.4,-0.3 -0.6,-0.4 l 0.5,-0.1 c 0.1,0 0.2,-0.2 0.2,-0.3 0,-0.1 0,-0.2 -0.1,-0.2 -0.1,0 -0.1,0 -0.2,0 l -1,0.3 -1.1,-0.8 1.3,-0.6 1,0.4 c 0.1,0.1 0.3,0 0.3,-0.1 0.1,-0.1 0,-0.3 -0.1,-0.3 L 11.1,9.5 11.7,9.2 c 0.1,0 0.2,-0.2 0.1,-0.4 v 0 c 0.1,0.1 0,0 0,0 z"
   id="path140"
   style="fill:#12b5e1" />
	<path
   class="st0"
   d="m 15.4,17.2 v -1.3 c 0,-0.1 -0.1,-0.2 -0.2,-0.2 h -0.4 c -0.1,0 -0.2,0.1 -0.2,0.2 v 1.3 c -0.8,0.2 -1.3,1 -1.1,1.8 0.2,0.8 1,1.3 1.8,1.1 0.8,-0.2 1.3,-1 1.1,-1.8 0,-0.5 -0.5,-0.9 -1,-1.1 z"
   id="path142"
   style="fill:#12b5e1" />
	<path
   class="st0"
   d="m 16.7,15.9 v -9 c 0,-0.4 -0.3,-0.8 -0.8,-0.8 h -1.8 c -0.4,0 -0.8,0.3 -0.8,0.8 v 9 c -0.5,0.3 -0.9,0.8 -1.2,1.4 -0.4,0.8 -0.4,1.7 -0.1,2.5 0.3,0.8 0.9,1.5 1.7,1.8 0.4,0.1 0.8,0.2 1.2,0.2 1.7,0 3.2,-1.4 3.2,-3.1 0.2,-1.2 -0.4,-2.2 -1.4,-2.8 z M 15,21 c -0.3,0 -0.6,-0.1 -0.9,-0.2 -0.6,-0.2 -1.1,-0.7 -1.3,-1.3 -0.5,-1.2 0.1,-2.6 1.4,-3.1 V 6.9 H 16 v 9.4 c 1.2,0.5 1.8,1.9 1.3,3.1 -0.4,1 -1.2,1.6 -2.3,1.6 z"
   id="path144"
   style="fill:#12b5e1" />
	<path
   class="st0"
   d="m 14.7,11.6 h 0.7 c 0.1,0 0.2,-0.1 0.2,-0.2 0,-0.1 -0.1,-0.2 -0.2,-0.2 v 0 h -0.7 c -0.1,0 -0.2,0.1 -0.2,0.2 0,0.1 0.1,0.2 0.2,0.2 z"
   id="path146"
   style="fill:#12b5e1" />
	<path
   class="st0"
   d="m 14.7,8.3 h 0.7 c 0.1,0 0.2,-0.1 0.2,-0.2 0,-0.1 -0.1,-0.2 -0.2,-0.2 v 0 h -0.7 c -0.1,0 -0.2,0.1 -0.2,0.2 0,0.1 0.1,0.2 0.2,0.2 z"
   id="path148"
   style="fill:#12b5e1" />
	<path
   class="st0"
   d="m 14.7,9.9 h 0.7 c 0.1,0 0.2,-0.1 0.2,-0.2 0,-0.1 -0.1,-0.2 -0.2,-0.2 v 0 h -0.7 c -0.1,0 -0.2,0.1 -0.2,0.2 0,0.1 0.1,0.2 0.2,0.2 z"
   id="path150"
   style="fill:#12b5e1" />
	<path
   class="st0"
   d="m 14.7,14.8 h 0.7 c 0.1,0 0.2,-0.1 0.2,-0.2 0,-0.1 -0.1,-0.2 -0.2,-0.2 v 0 h -0.7 c -0.1,0 -0.2,0.1 -0.2,0.2 0,0.2 0.1,0.2 0.2,0.2 z"
   id="path152"
   style="fill:#12b5e1" />
	<path
   class="st0"
   d="m 14.7,13.2 h 0.7 c 0.1,0 0.2,-0.1 0.2,-0.2 0,-0.1 -0.1,-0.2 -0.2,-0.2 v 0 h -0.7 c -0.1,0 -0.2,0.1 -0.2,0.2 0,0.1 0.1,0.2 0.2,0.2 z"
   id="path154"
   style="fill:#12b5e1" />
</g>

</svg>
