<?xml version="1.0" encoding="UTF-8" standalone="no"?>
<!-- Generator: Adobe Illustrator 16.0.0, SVG Export Plug-In . SVG Version: 6.00 Build 0)  -->

<svg
   version="1.1"
   id="Capa_1"
   x="0px"
   y="0px"
   width="26.458px"
   height="33.042px"
   viewBox="0 0 26.458 33.042"
   enable-background="new 0 0 26.458 33.042"
   xml:space="preserve"
   sodipodi:docname="anticipando_crecida_pluviometros_visor.svg"
   inkscape:version="1.2.1 (9c6d41e410, 2022-07-14)"
   xmlns:inkscape="http://www.inkscape.org/namespaces/inkscape"
   xmlns:sodipodi="http://sodipodi.sourceforge.net/DTD/sodipodi-0.dtd"
   xmlns="http://www.w3.org/2000/svg"
   xmlns:svg="http://www.w3.org/2000/svg"><defs
   id="defs28" /><sodipodi:namedview
   id="namedview26"
   pagecolor="#ffffff"
   bordercolor="#000000"
   borderopacity="0.25"
   inkscape:showpageshadow="2"
   inkscape:pageopacity="0.0"
   inkscape:pagecheckerboard="0"
   inkscape:deskcolor="#d1d1d1"
   showgrid="false"
   inkscape:zoom="24.635313"
   inkscape:cx="12.400898"
   inkscape:cy="16.561592"
   inkscape:window-width="1920"
   inkscape:window-height="1017"
   inkscape:window-x="1912"
   inkscape:window-y="-8"
   inkscape:window-maximized="1"
   inkscape:current-layer="Capa_1" />
<g
   id="g13">
	<path
   fill="#BF7D63"
   d="M13.234,0.612c-6.706,0-12.318,5.701-12.318,12.511c0,4.119,2.184,6.812,4.991,9.982   c2.494,2.848,5.146,4.658,7.327,9.568c2.343-4.91,4.995-6.721,7.486-9.568c2.653-3.171,4.993-5.863,4.993-9.982   c0-6.811-5.611-12.511-12.478-12.511H13.234z"
   id="path9"
   style="fill:#12b5e1;fill-opacity:1" />
	<path
   fill="#FFFFFF"
   d="M13.243,2.082c-5.944,0-10.919,4.991-10.919,10.951c0,3.604,1.936,5.962,4.424,8.736   c2.211,2.49,4.561,4.076,6.496,8.375c2.075-4.299,4.428-5.885,6.637-8.375c2.353-2.775,4.425-5.132,4.425-8.736   c0-5.961-4.974-10.951-11.059-10.951H13.243L13.243,2.082z"
   id="path11" />
</g><g
   id="g18041"
   transform="translate(1.7636951,0.32658948)">
	<path
   class="st0"
   d="M 17.4,9 C 17.3,7.5 15.9,6.2 14.1,6.2 c -1.2,0 -2.2,0.6 -2.8,1.5 -1,-0.6 -2.3,-0.4 -3,0.5 0,0.1 -0.1,0.1 -0.1,0.2 -0.2,0 -0.3,0 -0.5,0 -1.8,0 -3.2,1.5 -3.2,3.2 0,1.1 0.6,2.2 1.6,2.8 0.1,0 0.1,0 0.2,0 0.1,0 0.3,-0.1 0.3,-0.2 C 6.7,14 6.6,13.8 6.5,13.7 5.3,13 4.9,11.5 5.6,10.3 6,9.5 6.8,9.1 7.7,9.1 c 0,0 0.1,0 0.2,0 0,0.1 0,0.2 0,0.3 0,0.2 0.1,0.4 0.3,0.4 0.2,0 0.4,-0.1 0.4,-0.3 0,0 0,0 0,-0.1 0,-0.7 0.7,-1.3 1.4,-1.3 0.4,0 0.8,0.2 1.1,0.5 0.1,0.1 0.2,0.2 0.3,0.1 0.1,0 0.2,-0.1 0.3,-0.2 0.4,-1 1.4,-1.6 2.4,-1.5 1.4,0 2.5,1 2.5,2.2 0,0.1 0,0.1 0,0.2 0,0.2 0.1,0.4 0.4,0.4 v 0 c 1.2,0 2.2,1 2.2,2.2 0,0.7 -0.3,1.3 -0.8,1.7 -0.2,0.1 -0.2,0.4 -0.1,0.5 0.1,0.1 0.2,0.1 0.3,0.1 0.1,0 0.2,0 0.2,-0.1 0.7,-0.5 1.1,-1.4 1.1,-2.3 0,-1.5 -1.1,-2.7 -2.5,-2.9 z"
   id="path18021"
   style="fill:#12b5e1" />
	<path
   class="st0"
   d="M 7.2,15.4 C 7,15.4 6.8,15.2 6.8,15 c 0,-0.1 0,-0.2 0.1,-0.2 L 7.4,14.2 C 7.5,14 7.8,14 7.9,14.1 8.1,14.2 8.1,14.5 8,14.6 l -0.5,0.6 c -0.1,0.1 -0.2,0.2 -0.3,0.2 z"
   id="path18023"
   style="fill:#12b5e1" />
	<path
   class="st0"
   d="m 10.3,15.4 c -0.1,0 -0.2,0 -0.2,-0.1 C 9.9,15.2 9.9,14.9 10,14.8 l 0.5,-0.6 C 10.6,14 10.9,14 11,14.1 c 0.2,0.1 0.2,0.4 0.1,0.5 l -0.5,0.6 c 0,0.2 -0.1,0.2 -0.3,0.2 z"
   id="path18025"
   style="fill:#12b5e1" />
	<path
   class="st0"
   d="m 13.5,15.4 c -0.1,0 -0.2,0 -0.2,-0.1 -0.2,-0.1 -0.2,-0.4 -0.1,-0.5 l 0.5,-0.6 C 13.8,14 14,14 14.2,14.1 c 0.2,0.1 0.2,0.3 0.1,0.5 v 0 l -0.5,0.7 c -0.1,0.1 -0.2,0.1 -0.3,0.1 z"
   id="path18027"
   style="fill:#12b5e1" />
	<path
   class="st0"
   d="m 16.7,15.4 c -0.1,0 -0.2,0 -0.2,-0.1 -0.2,-0.1 -0.2,-0.4 -0.1,-0.5 l 0.5,-0.6 C 17,14 17.2,14 17.4,14.1 c 0.2,0.1 0.2,0.3 0.1,0.5 v 0 L 17,15.2 c -0.1,0.2 -0.2,0.2 -0.3,0.2 z"
   id="path18029"
   style="fill:#12b5e1" />
	<path
   class="st0"
   d="m 8.8,17.7 c -0.1,0 -0.2,0 -0.2,-0.1 C 8.4,17.5 8.4,17.3 8.5,17.1 v 0 L 9,16.5 c 0.1,-0.2 0.3,-0.2 0.5,-0.1 v 0 c 0.2,0.1 0.2,0.4 0.1,0.5 L 9.1,17.6 C 9,17.7 8.9,17.7 8.8,17.7 Z"
   id="path18031"
   style="fill:#12b5e1" />
	<path
   class="st0"
   d="m 11.9,17.7 c -0.1,0 -0.2,0 -0.2,-0.1 -0.2,-0.1 -0.2,-0.3 -0.1,-0.5 v 0 l 0.5,-0.6 c 0.1,-0.2 0.3,-0.2 0.5,-0.1 v 0 c 0.2,0.1 0.2,0.4 0.1,0.5 l -0.5,0.7 c -0.1,0.1 -0.2,0.1 -0.3,0.1 z"
   id="path18033"
   style="fill:#12b5e1" />
	<path
   class="st0"
   d="m 15.1,17.7 c -0.1,0 -0.2,0 -0.2,-0.1 -0.2,-0.1 -0.2,-0.4 -0.1,-0.5 l 0.5,-0.6 c 0.1,-0.2 0.3,-0.2 0.5,-0.1 0.2,0.1 0.2,0.3 0.1,0.5 v 0 l -0.5,0.7 c -0.1,0.1 -0.2,0.1 -0.3,0.1 z"
   id="path18035"
   style="fill:#12b5e1" />
	<path
   class="st0"
   d="m 10.3,20.1 c -0.2,0 -0.4,-0.2 -0.4,-0.4 0,-0.1 0,-0.2 0.1,-0.2 l 0.5,-0.7 c 0.1,-0.2 0.4,-0.2 0.5,-0.1 0.2,0.1 0.2,0.4 0.1,0.5 l -0.5,0.7 c 0,0.1 -0.1,0.2 -0.3,0.2 z"
   id="path18037"
   style="fill:#12b5e1" />
	<path
   class="st0"
   d="m 13.5,20.1 c -0.1,0 -0.2,0 -0.2,-0.1 -0.2,-0.1 -0.2,-0.4 -0.1,-0.5 l 0.5,-0.7 c 0.1,-0.2 0.4,-0.2 0.5,-0.1 0.2,0.1 0.2,0.4 0.1,0.5 v 0 l -0.5,0.7 c -0.1,0.1 -0.2,0.2 -0.3,0.2 z"
   id="path18039"
   style="fill:#12b5e1" />
</g>

</svg>
