<?xml version="1.0" encoding="UTF-8" standalone="no"?>
<!-- Generator: Adobe Illustrator 16.0.0, SVG Export Plug-In . SVG Version: 6.00 Build 0)  -->

<svg
   version="1.1"
   id="Capa_1"
   x="0px"
   y="0px"
   width="26.458px"
   height="33.042px"
   viewBox="0 0 26.458 33.042"
   enable-background="new 0 0 26.458 33.042"
   xml:space="preserve"
   sodipodi:docname="presa_azud.svg"
   inkscape:version="1.2.1 (9c6d41e410, 2022-07-14)"
   xmlns:inkscape="http://www.inkscape.org/namespaces/inkscape"
   xmlns:sodipodi="http://sodipodi.sourceforge.net/DTD/sodipodi-0.dtd"
   xmlns="http://www.w3.org/2000/svg"
   xmlns:svg="http://www.w3.org/2000/svg"><defs
   id="defs28" /><sodipodi:namedview
   id="namedview26"
   pagecolor="#ffffff"
   bordercolor="#000000"
   borderopacity="0.25"
   inkscape:showpageshadow="2"
   inkscape:pageopacity="0.0"
   inkscape:pagecheckerboard="0"
   inkscape:deskcolor="#d1d1d1"
   showgrid="false"
   inkscape:zoom="24.635313"
   inkscape:cx="12.400898"
   inkscape:cy="16.561592"
   inkscape:window-width="1920"
   inkscape:window-height="1017"
   inkscape:window-x="1912"
   inkscape:window-y="-8"
   inkscape:window-maximized="1"
   inkscape:current-layer="g13" />
<g
   id="g13">
	<path
   fill="#BF7D63"
   d="M13.234,0.612c-6.706,0-12.318,5.701-12.318,12.511c0,4.119,2.184,6.812,4.991,9.982   c2.494,2.848,5.146,4.658,7.327,9.568c2.343-4.91,4.995-6.721,7.486-9.568c2.653-3.171,4.993-5.863,4.993-9.982   c0-6.811-5.611-12.511-12.478-12.511H13.234z"
   id="path9"
   style="fill:#65b4e1;fill-opacity:1" />
	<path
   fill="#FFFFFF"
   d="M13.243,2.082c-5.944,0-10.919,4.991-10.919,10.951c0,3.604,1.936,5.962,4.424,8.736   c2.211,2.49,4.561,4.076,6.496,8.375c2.075-4.299,4.428-5.885,6.637-8.375c2.353-2.775,4.425-5.132,4.425-8.736   c0-5.961-4.974-10.951-11.059-10.951H13.243L13.243,2.082z"
   id="path11" />
</g><g
   id="g16"
   transform="translate(1.015,0.54823448)">
	<path
   class="st0"
   d="m 13.5,9.3 c 0.1,0 0.2,-0.1 0.2,-0.2 v 0 -1 C 13.7,8 13.6,7.9 13.5,7.9 v 0 H 11.2 C 11.1,7.9 11,8 11,8.1 v 0 1 c 0,0.1 0.1,0.2 0.2,0.2 -0.2,1.4 -0.7,4.8 -0.7,7.5 0,0.1 0.1,0.2 0.2,0.2 0.1,0 0.2,-0.1 0.2,-0.2 0,-2.9 0.6,-6.9 0.7,-7.7 h 1.3 c 0.1,0.8 0.8,4.9 0.8,7.7 0,0.1 0,0.1 0.1,0.2 0,0 0.1,0.1 0.2,0.1 0.1,0 0.2,-0.1 0.2,-0.2 v 0 c 0,-2.7 -0.5,-6.2 -0.7,-7.6 z m -0.3,-1 v 0.3 h -0.1 -1.6 c 0,0 0,0 -0.1,0 V 8.3 Z"
   id="path8"
   style="fill:#65b4e1" />
	<path
   class="st0"
   d="M 17.6,12 V 7.1 C 17.6,7 17.5,6.9 17.4,6.9 H 7.4 C 7.2,6.9 7.1,7 7.1,7.1 V 12 c -0.4,1.4 -0.7,2.9 -0.9,4.4 0,0.1 0.1,0.3 0.2,0.3 0.1,0 0.3,-0.1 0.3,-0.2 v 0 C 7,13.3 8.3,9.9 8.6,9.2 h 1.2 c 0,0.1 0,0.3 -0.1,0.4 0,0.4 -0.1,1.1 -0.2,1.8 -0.1,1.6 -0.1,3.3 -0.1,5 0,0.1 0.1,0.2 0.2,0.2 0.1,0 0.2,-0.1 0.2,-0.2 C 9.7,14 9.9,11.7 10.1,9.3 h 0.1 c 0.1,0 0.2,-0.1 0.2,-0.2 v 0 -1 C 10.4,8 10.3,7.9 10.2,7.9 v 0 H 8.1 C 8,7.9 7.9,8 7.9,8.1 v 1 C 7.9,9.2 8,9.3 8.1,9.3 7.9,9.6 7.8,10 7.6,10.5 V 7.4 h 9.5 v 3.1 C 16.9,10 16.8,9.6 16.7,9.3 c 0.1,0 0.2,-0.1 0.2,-0.2 v -1 C 16.9,8 16.8,7.9 16.7,7.9 h -2.3 c -0.1,0 -0.2,0.1 -0.2,0.2 v 0 1 c 0,0.1 0.1,0.2 0.2,0.2 v 0 h 0.1 c 0.3,2.4 0.4,4.8 0.3,7.1 0,0.1 0.1,0.2 0.2,0.2 v 0 c 0.1,0 0.2,-0.1 0.2,-0.2 v 0 C 15.3,14.7 15.2,13 15.1,11.3 15,10.5 15,9.9 14.9,9.5 c 0,-0.2 0,-0.3 -0.1,-0.4 h 1.3 c 0.3,0.7 1.6,4.2 1.9,7.4 0,0.1 0.1,0.2 0.2,0.2 v 0 c 0.1,0 0.2,-0.1 0.2,-0.3 C 18.3,15 18,13.5 17.6,12 Z M 10.2,8.6 c -0.1,0 -0.1,0 0,0 H 8.5 c -0.1,0 -0.1,0 -0.2,0.1 V 8.3 h 1.9 z m 6.2,-0.3 v 0.3 c 0,0 -0.1,-0.1 -0.2,-0.1 H 14.6 14.5 V 8.3 Z"
   id="path10"
   style="fill:#65b4e1" />
	<path
   class="st0"
   d="m 18.3,17.3 c -0.2,-0.1 -0.3,-0.1 -0.5,-0.1 -0.3,0 -0.6,0.1 -0.8,0.3 v 0 h -0.1 c -0.1,0.1 -0.2,0.1 -0.3,0.1 -0.1,0 -0.3,-0.1 -0.4,-0.1 -0.6,-0.4 -1.4,-0.4 -2,0 -0.2,0.2 -0.6,0.2 -0.8,0 -0.6,-0.4 -1.4,-0.4 -2,0 -0.1,0.1 -0.2,0.1 -0.4,0.1 v 0 c -0.1,0 -0.3,-0.1 -0.4,-0.2 -0.3,-0.2 -0.7,-0.3 -1,-0.3 -0.4,0 -0.7,0.1 -1,0.3 -0.2,0.2 -0.6,0.2 -0.8,0 H 7.7 C 7.5,17.2 7.2,17.1 6.9,17.1 c -0.2,0 -0.4,0.1 -0.5,0.2 -0.1,0 -0.2,0.2 -0.1,0.3 0,0.1 0.2,0.2 0.3,0.1 v 0 c 0.1,-0.1 0.2,-0.1 0.3,-0.1 0.2,0 0.4,0 0.5,0.2 l 0.1,0.1 c 0.4,0.3 0.9,0.3 1.3,0 0.2,-0.2 0.5,-0.3 0.8,-0.2 0.3,0 0.5,0.1 0.8,0.2 0.2,0.1 0.4,0.2 0.6,0.2 v 0 c 0.2,0 0.5,-0.1 0.6,-0.2 0.4,-0.3 1.1,-0.3 1.5,0 0.4,0.3 0.9,0.3 1.3,0 0.4,-0.3 1.1,-0.3 1.5,0 0.2,0.1 0.4,0.2 0.6,0.2 0.2,0 0.4,-0.1 0.6,-0.2 h 0.1 v 0 c 0.1,-0.1 0.3,-0.2 0.5,-0.2 0.1,0 0.2,0.1 0.3,0.1 0.1,0 0.2,0 0.3,-0.1 0.1,-0.2 0.1,-0.3 0,-0.4 z"
   id="path12"
   style="fill:#65b4e1" />
	<path
   class="st0"
   d="M 18.3,18.8 C 18.1,18.7 18,18.7 17.8,18.7 17.5,18.7 17.2,18.8 17,19 v 0 h -0.1 c -0.1,0.1 -0.2,0.1 -0.3,0.1 -0.1,0 -0.3,-0.1 -0.4,-0.1 -0.6,-0.4 -1.4,-0.4 -2,0 -0.2,0.2 -0.6,0.2 -0.8,0 -0.6,-0.4 -1.4,-0.4 -2,0 -0.1,0.1 -0.2,0.1 -0.4,0.1 v 0 c -0.1,0 -0.3,-0.1 -0.4,-0.2 -0.3,-0.2 -0.7,-0.3 -1,-0.3 -0.4,0 -0.7,0.1 -1,0.3 -0.2,0.2 -0.6,0.2 -0.8,0 L 7.7,18.8 C 7.5,18.6 7.2,18.5 6.9,18.5 c -0.2,0 -0.4,0.1 -0.5,0.2 -0.1,0 -0.2,0.2 -0.1,0.3 0,0.1 0.2,0.2 0.3,0.1 v 0 C 6.7,19 6.8,19 6.9,19 c 0.2,0 0.4,0 0.5,0.2 l 0.1,0.1 c 0.4,0.3 0.9,0.3 1.3,0 0.2,-0.2 0.5,-0.3 0.8,-0.2 0.3,0 0.5,0.1 0.8,0.2 0.2,0.1 0.4,0.2 0.6,0.2 v 0 c 0.2,0 0.5,-0.1 0.6,-0.2 0.4,-0.3 1.1,-0.3 1.5,0 0.4,0.3 0.9,0.3 1.3,0 0.4,-0.3 1.1,-0.3 1.5,0 0.2,0.1 0.4,0.2 0.6,0.2 0.2,0 0.4,-0.1 0.6,-0.2 h 0.1 v 0 c 0.1,-0.1 0.3,-0.2 0.5,-0.2 0.1,0 0.2,0.1 0.3,0.1 0.1,0 0.2,0 0.3,-0.1 0.1,-0.1 0.1,-0.2 0,-0.3 z"
   id="path14"
   style="fill:#65b4e1" />
</g>

</svg>
