<?xml version="1.0" encoding="UTF-8" standalone="no"?>
<!-- Generator: Adobe Illustrator 16.0.0, SVG Export Plug-In . SVG Version: 6.00 Build 0)  -->

<svg
   version="1.1"
   id="Capa_1"
   x="0px"
   y="0px"
   width="26.458px"
   height="33.042px"
   viewBox="0 0 26.458 33.042"
   enable-background="new 0 0 26.458 33.042"
   xml:space="preserve"
   sodipodi:docname="protocolos_remocion_masa.svg"
   inkscape:version="1.2.1 (9c6d41e410, 2022-07-14)"
   xmlns:inkscape="http://www.inkscape.org/namespaces/inkscape"
   xmlns:sodipodi="http://sodipodi.sourceforge.net/DTD/sodipodi-0.dtd"
   xmlns="http://www.w3.org/2000/svg"
   xmlns:svg="http://www.w3.org/2000/svg"><defs
   id="defs28" /><sodipodi:namedview
   id="namedview26"
   pagecolor="#ffffff"
   bordercolor="#000000"
   borderopacity="0.25"
   inkscape:showpageshadow="2"
   inkscape:pageopacity="0.0"
   inkscape:pagecheckerboard="0"
   inkscape:deskcolor="#d1d1d1"
   showgrid="false"
   inkscape:zoom="24.635313"
   inkscape:cx="12.380602"
   inkscape:cy="16.358631"
   inkscape:window-width="1920"
   inkscape:window-height="1017"
   inkscape:window-x="-8"
   inkscape:window-y="-8"
   inkscape:window-maximized="1"
   inkscape:current-layer="g13" />
<g
   id="g13">
	<path
   fill="#BF7D63"
   d="M13.234,0.612c-6.706,0-12.318,5.701-12.318,12.511c0,4.119,2.184,6.812,4.991,9.982   c2.494,2.848,5.146,4.658,7.327,9.568c2.343-4.91,4.995-6.721,7.486-9.568c2.653-3.171,4.993-5.863,4.993-9.982   c0-6.811-5.611-12.511-12.478-12.511H13.234z"
   id="path9"
   style="fill:#fc8d59;fill-opacity:1" />
	<path
   fill="#FFFFFF"
   d="M13.243,2.082c-5.944,0-10.919,4.991-10.919,10.951c0,3.604,1.936,5.962,4.424,8.736   c2.211,2.49,4.561,4.076,6.496,8.375c2.075-4.299,4.428-5.885,6.637-8.375c2.353-2.775,4.425-5.132,4.425-8.736   c0-5.961-4.974-10.951-11.059-10.951H13.243L13.243,2.082z"
   id="path11" /><path
   class="cls-1"
   d="M 15.68071,7.3362589 A 5.9102892,5.9102892 0 0 0 10.36703,10.671258 H 7.3625251 V 6.2460531 a 0.4292149,0.4292149 0 1 0 -0.8584294,0 V 20.229874 a 0.4292149,0.4292149 0 0 0 0.8584294,0 V 15.873343 H 10.392783 A 5.9017049,5.9017049 0 1 0 15.68071,7.3362589 Z M 7.3925708,15.002037 v -3.463765 h 2.6568402 a 5.8974127,5.8974127 0 0 0 0,3.463765 z m 8.2881392,3.287785 a 5.0346907,5.0346907 0 1 1 5.05186,-5.051859 5.0389829,5.0389829 0 0 1 -5.05186,5.051859 z"
   id="path4329"
   style="fill:#fc8d59;stroke-width:0.429215;fill-opacity:1" />
<g
   id="g153"
   transform="matrix(0.51465437,0,0,0.45790874,2.0030212,3.6769743)"><ellipse
     class="cls-1"
     cx="35.686752"
     cy="25.469833"
     id="circle785"
     style="fill:#fc8d59;fill-opacity:1;stroke-width:0.623139"
     rx="0.38078251"
     ry="0.28644717" /><path
     class="cls-1"
     d="m 32.940747,17.383366 -1.615238,0.0751 a 0.33464872,0.35202671 0 0 0 -0.316801,0.295703 l -0.294491,1.877476 a 0.33464872,0.35202671 0 0 0 0.330187,0.40835 h 0.06246 l 1.949889,-0.394269 a 0.33464872,0.35202671 0 0 0 0.272181,-0.356723 l -0.04016,-1.553611 A 0.33464872,0.35202671 0 0 0 33.18169,17.486627 0.30787683,0.32386457 0 0 0 32.940743,17.383366 Z m -1.485841,1.877476 0.174018,-1.107711 1.003946,-0.04694 0.02231,0.910576 z"
     id="path773"
     style="fill:#fc8d59;fill-opacity:1;stroke-width:0.457637" /><path
     class="cls-1"
     d="m 32.273061,24.301453 a 0.4461777,0.34727922 0 0 0 -0.352886,-0.157854 l -1.25741,-0.04736 0.405616,-2.209958 a 0.4461777,0.34727922 0 0 0 -0.129797,-0.293609 0.45429003,0.35359338 0 0 0 -0.397503,-0.0884 l -1.297972,0.148382 0.292044,-2.083675 a 0.4461777,0.34727922 0 0 0 -0.07301,-0.233624 l -1.354759,-1.556437 a 0.4461777,0.34727922 0 0 0 -0.356942,-0.15154 0.47051467,0.36622172 0 0 0 -0.369111,0.135754 l -0.616536,0.631417 -0.620593,-2.276257 a 0.4461777,0.34727922 0 0 0 -0.381279,-0.27151 0.43806538,0.34096505 0 0 0 -0.45429,0.192582 c -6.95226,11.229747 -6.95226,11.229747 -6.95226,11.311832 a 0.4461777,0.34727922 0 0 0 0.446178,0.347279 h 15.502647 a 0.4461777,0.34727922 0 0 0 0.373167,-0.536704 z m -12.764738,2.702464 6.035567,-9.745918 0.547582,2.007905 a 0.4461777,0.34727922 0 0 0 0.790951,0.138912 l 0.811233,-0.836627 0.932917,1.041837 -0.336662,2.402541 a 0.4461777,0.34727922 0 0 0 0.133853,0.287294 0.45429003,0.35359338 0 0 0 0.373167,0.09471 l 1.285803,-0.145226 -0.373166,2.12156 a 0.4461777,0.34727922 0 0 0 0.405616,0.394636 l 1.517004,0.05367 1.829328,2.17523 z"
     id="path767"
     style="fill:#fc8d59;fill-opacity:1;stroke-width:0.35785" /><path
     class="cls-1"
     d="m 28.279474,15.838647 h 3.264688 a 0.3419714,0.38417059 0 0 0 0.341971,-0.399538 l -0.05927,-1.75694 a 0.3419714,0.38417059 0 0 0 -0.113994,-0.271481 0.34653102,0.38929286 0 0 0 -0.25078,-0.09732 l -1.048712,0.08196 -0.09119,-1.48546 a 0.3419714,0.38417059 0 0 0 -0.487881,-0.31758 l -1.025915,0.553205 a 0.3419714,0.38417059 0 0 0 -0.182385,0.250992 l -0.674823,2.965797 a 0.3419714,0.38417059 0 0 0 0.332852,0.481494 z m 0.966639,-3.073365 0.428605,-0.230503 0.07751,1.301058 a 0.3419714,0.38417059 0 0 0 0.11855,0.261236 0.34653102,0.38929286 0 0 0 0.24622,0.0922 l 1.039593,-0.08196 0.03192,0.962988 h -2.471314 z"
     id="path771"
     style="fill:#fc8d59;fill-opacity:1;stroke-width:0.483276" /><path
     class="cls-1"
     d="m 25.012594,12.124765 a 0.48947397,0.51022732 0 0 0 0.03263,0.496621 l 1.305264,2.074924 a 0.48947397,0.51022732 0 0 0 0.411158,0.231303 h 0.06526 a 0.48947397,0.51022732 0 0 0 0.398111,-0.353757 l 0.685263,-2.33344 a 0.48947397,0.51022732 0 0 0 -0.528632,-0.680303 l -1.957896,0.258515 a 0.48947397,0.51022732 0 0 0 -0.411158,0.306137 z m 1.742528,0.557848 -0.156632,0.53744 -0.280632,-0.476212 z"
     id="path769"
     style="fill:#fc8d59;fill-opacity:1;stroke-width:0.666324" /><path
     class="cls-1"
     d="m 35.705586,21.025118 c -0.03718,0 -0.130115,0 -1.976512,0.236951 a 0.46469727,0.42312686 0 0 0 -0.303602,0.677003 l 1.338328,1.579674 a 0.46469727,0.42312686 0 0 0 0.365562,0.163609 h 0.08674 a 0.46469727,0.42312686 0 0 0 0.359366,-0.29901 l 0.570029,-1.816624 a 0.46469727,0.42312686 0 0 0 -0.439911,-0.564169 z m -0.768299,1.325798 -0.291211,-0.338502 0.408934,-0.05077 z"
     id="path775"
     style="fill:#fc8d59;fill-opacity:1;stroke-width:0.591234" /></g></g>

</svg>
