<?xml version="1.0" encoding="UTF-8" standalone="no"?>
<!-- Generator: Adobe Illustrator 16.0.0, SVG Export Plug-In . SVG Version: 6.00 Build 0)  -->

<svg
   version="1.1"
   id="Capa_1"
   x="0px"
   y="0px"
   width="26.458px"
   height="33.042px"
   viewBox="0 0 26.458 33.042"
   enable-background="new 0 0 26.458 33.042"
   xml:space="preserve"
   sodipodi:docname="puerto.svg"
   inkscape:version="1.2.1 (9c6d41e410, 2022-07-14)"
   xmlns:inkscape="http://www.inkscape.org/namespaces/inkscape"
   xmlns:sodipodi="http://sodipodi.sourceforge.net/DTD/sodipodi-0.dtd"
   xmlns="http://www.w3.org/2000/svg"
   xmlns:svg="http://www.w3.org/2000/svg"><defs
   id="defs28" /><sodipodi:namedview
   id="namedview26"
   pagecolor="#ffffff"
   bordercolor="#000000"
   borderopacity="0.25"
   inkscape:showpageshadow="2"
   inkscape:pageopacity="0.0"
   inkscape:pagecheckerboard="0"
   inkscape:deskcolor="#d1d1d1"
   showgrid="false"
   inkscape:zoom="24.635313"
   inkscape:cx="12.421194"
   inkscape:cy="16.378927"
   inkscape:window-width="1350"
   inkscape:window-height="1040"
   inkscape:window-x="247"
   inkscape:window-y="47"
   inkscape:window-maximized="0"
   inkscape:current-layer="g13" />
<g
   id="g13">
	<path
   fill="#BF7D63"
   d="M13.234,0.612c-6.706,0-12.318,5.701-12.318,12.511c0,4.119,2.184,6.812,4.991,9.982   c2.494,2.848,5.146,4.658,7.327,9.568c2.343-4.91,4.995-6.721,7.486-9.568c2.653-3.171,4.993-5.863,4.993-9.982   c0-6.811-5.611-12.511-12.478-12.511H13.234z"
   id="path9"
   style="fill:#6992b3;fill-opacity:1" />
	<path
   fill="#FFFFFF"
   d="M13.243,2.082c-5.944,0-10.919,4.991-10.919,10.951c0,3.604,1.936,5.962,4.424,8.736   c2.211,2.49,4.561,4.076,6.496,8.375c2.075-4.299,4.428-5.885,6.637-8.375c2.353-2.775,4.425-5.132,4.425-8.736   c0-5.961-4.974-10.951-11.059-10.951H13.243L13.243,2.082z"
   id="path11" /><path
   class="cls-1"
   d="M 15.84836,7.6970752 A 5.9102892,5.9102892 0 0 0 10.53468,11.032074 H 7.5301749 V 6.6068702 a 0.4292149,0.4292149 0 1 0 -0.858429,0 V 20.59069 a 0.4292149,0.4292149 0 0 0 0.858429,0 V 16.23416 H 10.560433 A 5.9017049,5.9017049 0 1 0 15.84836,7.6970752 Z M 7.5602209,15.362853 v -3.463765 h 2.6568401 a 5.8974127,5.8974127 0 0 0 0,3.463765 z m 8.2881391,3.287786 a 5.0346907,5.0346907 0 1 1 5.05186,-5.05186 5.0389829,5.0389829 0 0 1 -5.05186,5.05186 z"
   id="path4329"
   style="fill:#6992b3;fill-opacity:1;stroke-width:0.429215" />
<g
   id="g3799"
   transform="matrix(0.6752629,0,0,0.6752629,-2.935163,2.7079972)"><g
     id="Capa_1_1_"
     display="none">
	<circle
   display="inline"
   fill="#9a7d22"
   cx="12"
   cy="10.4"
   r="10"
   id="circle3756" />
</g><g
     id="g3778"
     transform="translate(15.852067,5.7640835)">
	<circle
   fill="none"
   stroke="#6992b3"
   stroke-width="0.7"
   stroke-miterlimit="10"
   cx="12"
   cy="5.4000001"
   r="1.5190001"
   id="circle3762" />
	<line
   fill="none"
   stroke="#6992b3"
   stroke-width="0.7"
   stroke-miterlimit="10"
   x1="12"
   y1="6.9190001"
   x2="12"
   y2="16.120001"
   id="line3764" />
	<line
   fill="none"
   stroke="#6992b3"
   stroke-width="0.7"
   stroke-miterlimit="10"
   x1="10.145"
   y1="7.855"
   x2="13.853"
   y2="7.855"
   id="line3766" />
	<path
   fill="none"
   stroke="#6992b3"
   stroke-width="0.7"
   stroke-miterlimit="10"
   d="m 6.647,13.438 c 0.904,1.499 2.959,2.547 5.353,2.547 2.395,0 4.447,-1.048 5.353,-2.547"
   id="path3768" />
	<g
   id="g3772">
		<polygon
   fill="#6992b3"
   points="6.307,15.336 6.738,13.589 8.482,14.022 7.925,13.098 6.181,12.667 5.75,14.411 "
   id="polygon3770" />
	</g>
	<g
   id="g3776">
		<polygon
   fill="#6992b3"
   points="17.691,15.336 17.263,13.589 15.517,14.022 16.075,13.098 17.819,12.667 18.25,14.411 "
   id="polygon3774" />
	</g>
</g></g></g>

</svg>
