<?xml version="1.0" encoding="UTF-8" standalone="no"?>
<!-- Generator: Adobe Illustrator 16.0.0, SVG Export Plug-In . SVG Version: 6.00 Build 0)  -->

<svg
   version="1.1"
   id="Capa_1"
   x="0px"
   y="0px"
   width="26.458px"
   height="33.042px"
   viewBox="0 0 26.458 33.042"
   enable-background="new 0 0 26.458 33.042"
   xml:space="preserve"
   sodipodi:docname="volcanes_5.svg"
   inkscape:version="1.2.1 (9c6d41e410, 2022-07-14)"
   xmlns:inkscape="http://www.inkscape.org/namespaces/inkscape"
   xmlns:sodipodi="http://sodipodi.sourceforge.net/DTD/sodipodi-0.dtd"
   xmlns="http://www.w3.org/2000/svg"
   xmlns:svg="http://www.w3.org/2000/svg"><defs
   id="defs28" /><sodipodi:namedview
   id="namedview26"
   pagecolor="#ffffff"
   bordercolor="#000000"
   borderopacity="0.25"
   inkscape:showpageshadow="2"
   inkscape:pageopacity="0.0"
   inkscape:pagecheckerboard="0"
   inkscape:deskcolor="#d1d1d1"
   showgrid="false"
   inkscape:zoom="24.635313"
   inkscape:cx="13.233037"
   inkscape:cy="16.561592"
   inkscape:window-width="1920"
   inkscape:window-height="1017"
   inkscape:window-x="1912"
   inkscape:window-y="-8"
   inkscape:window-maximized="1"
   inkscape:current-layer="g19199" />
<g
   id="g13">
	<path
   fill="#BF7D63"
   d="M13.234,0.612c-6.706,0-12.318,5.701-12.318,12.511c0,4.119,2.184,6.812,4.991,9.982   c2.494,2.848,5.146,4.658,7.327,9.568c2.343-4.91,4.995-6.721,7.486-9.568c2.653-3.171,4.993-5.863,4.993-9.982   c0-6.811-5.611-12.511-12.478-12.511H13.234z"
   id="path9"
   style="fill:#b30000;fill-opacity:1" />
	<path
   fill="#FFFFFF"
   d="M13.243,2.082c-5.944,0-10.919,4.991-10.919,10.951c0,3.604,1.936,5.962,4.424,8.736   c2.211,2.49,4.561,4.076,6.496,8.375c2.075-4.299,4.428-5.885,6.637-8.375c2.353-2.775,4.425-5.132,4.425-8.736   c0-5.961-4.974-10.951-11.059-10.951H13.243L13.243,2.082z"
   id="path11" />
</g><g
   id="g15837"
   transform="translate(0.39889172,-0.02235891)"><g
     id="g19199"><path
       class="st0"
       d="M 19.4,18.7 14.1,10.1 C 14,10 13.9,9.9 13.8,9.9 c -0.1,0 -0.3,0.1 -0.3,0.2 l -0.6,1.3 -0.5,-0.6 c -0.1,-0.1 -0.4,-0.2 -0.5,0 l -0.1,0.1 -0.4,0.7 -0.6,-1.4 c 0,-0.2 -0.1,-0.3 -0.3,-0.3 -0.1,0 -0.3,0.1 -0.3,0.2 -4.6,8.7 -4.6,8.7 -4.6,8.8 0,0.2 0.2,0.4 0.4,0.4 h 13.1 c 0.2,0 0.4,-0.2 0.4,-0.4 -0.1,0 -0.1,-0.1 -0.1,-0.2 z m -12.9,-0.2 3.9,-7.4 0.7,1.5 c 0,0.1 0.1,0.2 0.3,0.2 0.2,0 0.3,-0.1 0.3,-0.2 l 0.5,-0.9 0.5,0.6 c 0.2,0.1 0.4,0.1 0.6,0 l 0.1,-0.1 0.5,-1.1 4.6,7.5 -12,-0.1 c 0,0.1 0,0 0,0 z"
       id="path15799"
       style="fill:#b30000;fill-opacity:1" /><path
       class="st0"
       d="m 11.2,9.3 c 0.2,0.1 0.4,0.1 0.6,0.2 0.1,0.1 0.1,0.1 0.2,0.1 h 0.1 c 0.1,0 0.2,-0.1 0.2,-0.2 C 12.3,8.9 12.1,8.5 11.8,8.1 11.5,7.8 11.1,7.8 10.7,7.9 10.4,8.1 10.2,8.4 10.3,8.7 v 0 c 0.1,0.6 0.6,0.6 0.9,0.6 z m -0.3,-1 v 0 c 0.4,0 0.7,0.3 0.7,0.6 h -0.4 c -0.4,0 -0.5,-0.1 -0.5,-0.2 0,-0.1 0.1,-0.3 0.2,-0.4 z"
       id="path15801"
       style="fill:#b30000;fill-opacity:1" /><path
       class="st0"
       d="m 13.6,8.1 v 0 c 0.1,0 0.2,-0.1 0.3,-0.1 0,-0.1 0,-0.1 0.1,-0.1 v 0 0 C 14.3,7.6 14.7,7.4 15.2,7.4 15.7,7.5 16.3,7.2 16.5,6.7 16.7,6.2 16.6,5.7 16.2,5.4 15.6,5 14.9,5 14.3,5.4 13.6,6 13.2,7 13.4,8 c 0.1,0.1 0.1,0.1 0.2,0.1 z m 0.9,-2.4 c 0.2,-0.2 0.4,-0.3 0.7,-0.3 0.2,0 0.4,0.1 0.5,0.2 0.2,0.2 0.3,0.4 0.2,0.7 -0.2,0.4 -0.4,0.4 -0.8,0.4 -0.5,0 -0.9,0.1 -1.3,0.4 0,-0.5 0.3,-1 0.7,-1.4 z"
       id="path15803"
       style="fill:#b30000;fill-opacity:1" /><path
       class="st0"
       d="m 10.6,6.6 c 0.4,-0.1 0.9,0.1 1.2,0.4 0.5,0.5 0.8,1.3 0.8,2 0,0.1 0.1,0.2 0.2,0.2 v 0 C 12.9,9.2 13,9.1 13,9 13,8.1 12.7,7.2 12,6.6 11.6,6.2 11.1,6 10.5,6.1 c -0.1,0 -0.2,0.1 -0.2,0.3 0,0.2 0.1,0.2 0.3,0.2 z"
       id="path15805"
       style="fill:#b30000;fill-opacity:1" /><path
       class="st0"
       d="m 14.6,8.1 c -0.7,0.5 -1,1.2 -1,2 0,0.1 0.1,0.2 0.2,0.2 0.1,0 0.2,-0.1 0.2,-0.2 0,-0.6 0.3,-1.2 0.8,-1.6 0.5,-0.3 1.1,-0.3 1.6,0 0.1,0.1 0.3,0.1 0.3,0 0,-0.1 0.1,-0.3 0,-0.3 v 0 C 16.1,7.7 15.2,7.7 14.6,8.1 Z"
       id="path15807"
       style="fill:#b30000;fill-opacity:1" /><circle
       class="st0"
       cx="9.6999998"
       cy="6.5"
       r="0.2"
       id="circle15809"
       style="fill:#b30000;fill-opacity:1" /><circle
       class="st0"
       cx="9.1000004"
       cy="7"
       r="0.2"
       id="circle15811"
       style="fill:#b30000;fill-opacity:1" /><circle
       class="st0"
       cx="17.200001"
       cy="8.6999998"
       r="0.2"
       id="circle15813"
       style="fill:#b30000;fill-opacity:1" /><circle
       class="st0"
       cx="17.700001"
       cy="9.3000002"
       r="0.2"
       id="circle15815"
       style="fill:#b30000;fill-opacity:1" /></g></g><g
   id="g38"
   transform="translate(0.7221646,0.31770743)">
	
	
	
	
	
	
	
	
</g>

</svg>
