<?xml version="1.0" encoding="UTF-8" standalone="no"?>
<!-- Generator: Adobe Illustrator 16.0.0, SVG Export Plug-In . SVG Version: 6.00 Build 0)  -->

<svg
   version="1.1"
   id="Capa_1"
   x="0px"
   y="0px"
   width="26.458px"
   height="33.042px"
   viewBox="0 0 26.458 33.042"
   enable-background="new 0 0 26.458 33.042"
   xml:space="preserve"
   sodipodi:docname="comunidad.svg"
   inkscape:version="1.2.1 (9c6d41e410, 2022-07-14)"
   xmlns:inkscape="http://www.inkscape.org/namespaces/inkscape"
   xmlns:sodipodi="http://sodipodi.sourceforge.net/DTD/sodipodi-0.dtd"
   xmlns="http://www.w3.org/2000/svg"
   xmlns:svg="http://www.w3.org/2000/svg"><defs
   id="defs28"><style
     id="style379">.cls-1{fill:#65b4e1;}</style></defs><sodipodi:namedview
   id="namedview26"
   pagecolor="#ffffff"
   bordercolor="#000000"
   borderopacity="0.25"
   inkscape:showpageshadow="2"
   inkscape:pageopacity="0.0"
   inkscape:pagecheckerboard="0"
   inkscape:deskcolor="#d1d1d1"
   showgrid="false"
   inkscape:zoom="17.419797"
   inkscape:cx="6.5442784"
   inkscape:cy="13.777428"
   inkscape:window-width="1920"
   inkscape:window-height="1017"
   inkscape:window-x="-8"
   inkscape:window-y="-8"
   inkscape:window-maximized="1"
   inkscape:current-layer="g13"><inkscape:grid
     type="xygrid"
     id="grid2533" /></sodipodi:namedview>
<g
   id="g13">
	
	<g
   id="g2889"><path
     fill="#BF7D63"
     d="M13.234,0.612c-6.706,0-12.318,5.701-12.318,12.511c0,4.119,2.184,6.812,4.991,9.982   c2.494,2.848,5.146,4.658,7.327,9.568c2.343-4.91,4.995-6.721,7.486-9.568c2.653-3.171,4.993-5.863,4.993-9.982   c0-6.811-5.611-12.511-12.478-12.511H13.234z"
     id="path9"
     style="fill:#4d4d4d;fill-opacity:1" /><path
     fill="#FFFFFF"
     d="M13.243,2.082c-5.944,0-10.919,4.991-10.919,10.951c0,3.604,1.936,5.962,4.424,8.736   c2.211,2.49,4.561,4.076,6.496,8.375c2.075-4.299,4.428-5.885,6.637-8.375c2.353-2.775,4.425-5.132,4.425-8.736   c0-5.961-4.974-10.951-11.059-10.951H13.243L13.243,2.082z"
     id="path11" /></g>
<g
   id="g2944"
   transform="translate(-0.34443571,0.34443571)"><rect
     class="cls-1"
     x="15.254805"
     y="17.876089"
     width="2.9992008"
     height="3.006546"
     id="rect385-85-3-5"
     style="fill:#078930;fill-opacity:1;stroke-width:0.692871" /><rect
     class="cls-1"
     x="12.253524"
     y="20.864685"
     width="3.0093489"
     height="3.006546"
     id="rect385-85-1-6-6"
     style="fill:#742c64;fill-opacity:1;stroke-width:0.694043" /><rect
     class="cls-1"
     x="6.257956"
     y="8.8601751"
     width="2.9992008"
     height="3.006546"
     id="rect385-85-3"
     style="fill:#078930;fill-opacity:1;stroke-width:0.692871" /><rect
     class="cls-1"
     x="6.2517676"
     y="11.852983"
     width="2.9992008"
     height="3.006546"
     id="rect385-85-8"
     style="fill:#0f47af;fill-opacity:1;stroke-width:0.692871" /><rect
     class="cls-1"
     x="12.243376"
     y="17.876089"
     width="3.0194969"
     height="3.006546"
     id="rect385-85-8-9"
     style="fill:#0f47af;fill-opacity:1;stroke-width:0.695211" /><rect
     class="cls-1"
     x="3.2628"
     y="11.852983"
     width="2.9992008"
     height="3.006546"
     id="rect385-85-798"
     style="fill:#742c64;fill-opacity:1;stroke-width:0.692871" /><rect
     class="cls-1"
     x="6.2517676"
     y="14.847515"
     width="2.9992008"
     height="3.006546"
     id="rect385-85-1"
     style="fill:#742c64;fill-opacity:1;stroke-width:0.692871" /><rect
     class="cls-1"
     x="9.2493973"
     y="17.876089"
     width="2.9992008"
     height="3.006546"
     id="rect385-85-1-6"
     style="fill:#742c64;fill-opacity:1;stroke-width:0.692871" /><rect
     class="cls-1"
     x="12.268312"
     y="2.8468497"
     width="2.9992008"
     height="3.006546"
     id="rect385-85-9"
     style="fill:#da121a;fill-opacity:1;stroke-width:0.692871" /><rect
     class="cls-1"
     x="15.258499"
     y="5.8557415"
     width="2.9992008"
     height="3.006546"
     id="rect385-85-9-9"
     style="fill:#da121a;fill-opacity:1;stroke-width:0.692871" /><rect
     class="cls-1"
     x="9.254343"
     y="5.8557415"
     width="2.9992008"
     height="3.006546"
     id="rect385-85-7"
     style="fill:#fcdd09;fill-opacity:1;stroke-width:0.692871" /><rect
     class="cls-1"
     x="12.25396"
     y="5.8557415"
     width="3.0279038"
     height="3.006546"
     id="rect385-85-79"
     style="fill:#eb7711;fill-opacity:1;stroke-width:0.696179" /><rect
     class="cls-1"
     x="18.238327"
     y="14.847515"
     width="2.9992008"
     height="3.006546"
     id="rect385-85-7-3"
     style="fill:#fcdd09;fill-opacity:1;stroke-width:0.692871" /><rect
     class="cls-1"
     x="18.238327"
     y="11.881686"
     width="2.9992008"
     height="3.006546"
     id="rect385-85-79-3"
     style="fill:#eb7711;fill-opacity:1;stroke-width:0.692871" /><rect
     class="cls-1"
     x="18.238327"
     y="8.8601751"
     width="2.9992008"
     height="3.006546"
     id="rect385-85-98"
     style="fill:#da121a;fill-opacity:1;stroke-width:0.692871" /><rect
     class="cls-1"
     x="21.218365"
     y="11.881686"
     width="2.9992008"
     height="3.006546"
     id="rect385-85-9-94"
     style="fill:#da121a;fill-opacity:1;stroke-width:0.692871" /></g></g>

</svg>
