<?xml version="1.0" encoding="utf-8"?>
<!-- Generator: Adobe Illustrator 25.2.0, SVG Export Plug-In . SVG Version: 6.00 Build 0)  -->
<svg version="1.1" id="Capa_1" xmlns="http://www.w3.org/2000/svg" xmlns:xlink="http://www.w3.org/1999/xlink" x="0px" y="0px"
	 width="26.5px" height="33px" viewBox="0 0 26.5 33" style="enable-background:new 0 0 26.5 33;" xml:space="preserve">
<style type="text/css">
	.st0{fill:#5484A9;}
	.st1{fill:#FFFFFF;}
	.st2{fill:#FFFFFF;stroke:#447DA9;stroke-width:0.85;stroke-linejoin:round;stroke-miterlimit:10;}
</style>
<g>
	<path class="st0" d="M13.3,1c-6.5,0-12,5.5-12,12.1c0,4,2.1,6.6,4.8,9.7c2.4,2.8,5,4.5,7.1,9.3c2.3-4.8,4.8-6.5,7.2-9.3
		c2.6-3.1,4.8-5.7,4.8-9.7C25.3,6.5,19.9,1,13.3,1L13.3,1z"/>
	<path class="st1" d="M13.3,2.4C7.5,2.4,2.7,7.3,2.7,13c0,3.5,1.9,5.8,4.3,8.5c2.1,2.4,4.4,3.9,6.3,8.1c2-4.2,4.3-5.7,6.4-8.1
		c2.3-2.7,4.3-5,4.3-8.5C24,7.3,19.2,2.4,13.3,2.4L13.3,2.4z"/>
</g>
<g id="Capa_2_2_">
	<path class="st2" d="M13.2,7.2c1.2,0.2,1,4.3,1,4.3l4.8,4.9l-0.1,0.8l-4.7-2.4v2.7l1.3,2v1.4l-2.3-1.6l0,0l-2.3,1.6v-1.4l1.3-2
		v-2.6l-4.6,2.4l-0.1-0.8l4.7-5C12.2,11.5,12,7.5,13.2,7.2L13.2,7.2z"/>
</g>
<g id="Modo_de_aislamiento">
</g>
</svg>
