<?xml version="1.0" encoding="utf-8"?>
<!-- Generator: Adobe Illustrator 16.0.0, SVG Export Plug-In . SVG Version: 6.00 Build 0)  -->
<!DOCTYPE svg PUBLIC "-//W3C//DTD SVG 1.1//EN" "http://www.w3.org/Graphics/SVG/1.1/DTD/svg11.dtd">
<svg version="1.1" id="Capa_1" xmlns="http://www.w3.org/2000/svg" xmlns:xlink="http://www.w3.org/1999/xlink" x="0px" y="0px"
	 width="26.458px" height="33.042px" viewBox="0 0 26.458 33.042" enable-background="new 0 0 26.458 33.042" xml:space="preserve">
<g>
	<path fill="#BF7D63" d="M13.234,0.612c-6.706,0-12.318,5.701-12.318,12.511c0,4.119,2.184,6.812,4.991,9.982
		c2.494,2.848,5.146,4.658,7.327,9.568c2.343-4.91,4.995-6.721,7.486-9.568c2.653-3.171,4.993-5.863,4.993-9.982
		c0-6.811-5.611-12.511-12.478-12.511H13.234z"/>
	<path fill="#FFFFFF" d="M13.243,2.082c-5.944,0-10.919,4.991-10.919,10.951c0,3.604,1.936,5.962,4.424,8.736
		c2.211,2.49,4.561,4.076,6.496,8.375c2.075-4.299,4.428-5.885,6.637-8.375c2.353-2.775,4.425-5.132,4.425-8.736
		c0-5.961-4.974-10.951-11.059-10.951H13.243L13.243,2.082z"/>
</g>
<g>
	<g>
		
			<line fill="none" stroke="#CC5527" stroke-width="0.25" stroke-linecap="round" stroke-linejoin="round" stroke-miterlimit="10" x1="13.234" y1="4.37" x2="13.234" y2="9.975"/>
		<path fill="#CC5527" d="M13.722,4.342c0,0,1.57,0.923,3.353-0.553c0,0,1.354,0.038,1.472,0.417c0.121,0.382,0,2.965,0,2.965
			s-1.083-0.861-2.387,0c0,0-1.122,0.797-2.443,0"/>
		
			<rect x="6.299" y="12.736" fill="#CC5527" stroke="#CC5527" stroke-width="0.25" stroke-linecap="round" stroke-linejoin="round" stroke-miterlimit="10" width="13.736" height="7.41"/>
		
			<line fill="none" stroke="#CC5527" stroke-width="0.75" stroke-linecap="round" stroke-linejoin="round" stroke-miterlimit="10" x1="6.728" y1="11.469" x2="19.607" y2="11.469"/>
	</g>
	<path fill="#FFFFFF" d="M9.064,14.082c-0.618,0-1.12,0.276-1.12,0.616v5.409h2.24v-5.409C10.184,14.358,9.682,14.082,9.064,14.082z
		"/>
	<path fill="#FFFFFF" d="M13.166,14.082c-0.619,0-1.121,0.276-1.121,0.616v5.409h2.242v-5.409
		C14.287,14.358,13.784,14.082,13.166,14.082z"/>
	<path fill="#FFFFFF" d="M17.502,14.082c-0.62,0-1.118,0.276-1.118,0.616v5.409h2.24v-5.409
		C18.623,14.358,18.123,14.082,17.502,14.082z"/>
</g>
</svg>
