<?xml version="1.0" encoding="utf-8"?>
<!-- Generator: Adobe Illustrator 16.0.0, SVG Export Plug-In . SVG Version: 6.00 Build 0)  -->
<!DOCTYPE svg PUBLIC "-//W3C//DTD SVG 1.1//EN" "http://www.w3.org/Graphics/SVG/1.1/DTD/svg11.dtd">
<svg version="1.1" id="Capa_1" xmlns="http://www.w3.org/2000/svg" xmlns:xlink="http://www.w3.org/1999/xlink" x="0px" y="0px"
	 width="26.458px" height="33.042px" viewBox="0 0 26.458 33.042" enable-background="new 0 0 26.458 33.042" xml:space="preserve">
<path fill="#A1696B" d="M13.581,0.285c-6.489,0-11.921,5.518-11.921,12.108c0,3.985,2.113,6.592,4.83,9.659
	c2.414,2.757,4.98,4.509,7.091,9.261c2.266-4.752,4.834-6.504,7.246-9.261c2.567-3.068,4.831-5.674,4.831-9.659
	c0-6.591-5.431-12.108-12.074-12.108H13.581z"/>
<path fill="#FFFFFF" d="M13.59,1.708c-5.752,0-10.567,4.83-10.567,10.597c0,3.488,1.873,5.77,4.281,8.454
	c2.14,2.412,4.414,3.946,6.286,8.105c2.008-4.159,4.286-5.693,6.424-8.105c2.275-2.686,4.281-4.966,4.281-8.454
	c0-5.768-4.813-10.597-10.702-10.597H13.59z"/>
<g id="Capa_11">
	
		<line fill="none" stroke="#CC3333" stroke-width="0.25" stroke-linecap="round" stroke-linejoin="round" stroke-miterlimit="10" x1="13.616" y1="4.497" x2="13.616" y2="9.005"/>
	<path fill="#CC3333" d="M14.008,4.471c0,0,1.261,0.745,2.695-0.444c0,0,1.089,0.032,1.185,0.337c0.099,0.305,0,2.385,0,2.385
		s-0.869-0.693-1.921,0c0,0-0.902,0.642-1.963,0"/>
	
		<rect x="8.531" y="9.396" fill="#CC3333" stroke="#CC3333" stroke-width="0.25" stroke-linecap="round" stroke-linejoin="round" stroke-miterlimit="10" width="10.171" height="7.555"/>
	
		<line fill="none" stroke="#CC3333" stroke-width="0.5" stroke-linecap="round" stroke-linejoin="round" stroke-miterlimit="10" x1="6.354" y1="17.684" x2="20.878" y2="17.684"/>
	<path opacity="0.9" fill="#FFFFFF" enable-background="new    " d="M13.654,13.432c-0.524,0-0.951,0.167-0.951,0.37v3.261h1.899
		v-3.261C14.602,13.598,14.176,13.432,13.654,13.432z"/>
</g>
</svg>
