<?xml version="1.0" encoding="utf-8"?>
<!-- Generator: Adobe Illustrator 25.2.0, SVG Export Plug-In . SVG Version: 6.00 Build 0)  -->
<svg version="1.1" id="Capa_1" xmlns="http://www.w3.org/2000/svg" xmlns:xlink="http://www.w3.org/1999/xlink" x="0px" y="0px"
	 width="26.5px" height="33px" viewBox="0 0 26.5 33" style="enable-background:new 0 0 26.5 33;" xml:space="preserve">
<style type="text/css">
	.st0{fill:#5484A9;}
	.st1{fill:#FFFFFF;}
	.st2{fill:#447DA9;stroke:#447DA9;stroke-width:0.25;stroke-linecap:round;stroke-linejoin:round;stroke-miterlimit:10;}
	.st3{fill:none;stroke:#447DA9;stroke-width:0.35;stroke-linecap:round;stroke-linejoin:round;stroke-miterlimit:10;}
</style>
<g>
	<path class="st0" d="M13.1,1.1C6.6,1.1,1.2,6.6,1.2,13.2c0,4,2.1,6.6,4.8,9.7c2.4,2.8,5,4.5,7.1,9.3c2.3-4.8,4.8-6.5,7.2-9.3
		c2.6-3.1,4.8-5.7,4.8-9.7C25.2,6.6,19.7,1.1,13.1,1.1L13.1,1.1z"/>
	<path class="st1" d="M13.1,2.5C7.4,2.5,2.5,7.4,2.5,13.1c0,3.5,1.9,5.8,4.3,8.5c2.1,2.4,4.4,3.9,6.3,8.1c2-4.2,4.3-5.7,6.4-8.1
		c2.3-2.7,4.3-5,4.3-8.5C23.8,7.3,19,2.5,13.1,2.5L13.1,2.5z"/>
</g>
<g>
	<path class="st1" d="M9.2,11.1c0,0.7,0.5,1.3,1.2,1.3h3.2c0.6,0,1.2-0.6,1.2-1.3s-0.5-1.3-1.2-1.3h-3.2C9.7,9.8,9.2,10.4,9.2,11.1
		C9.2,11.1,9.2,10.4,9.2,11.1z"/>
</g>
<ellipse class="st1" cx="14.4" cy="14.7" rx="0.4" ry="0.4"/>
<ellipse class="st1" cx="9.8" cy="14.7" rx="0.4" ry="0.4"/>
<g>
	<g>
		<path class="st2" d="M7.5,15.2c0,1.2,1,2.2,2.4,2.2h6.5c1.4,0,2.4-0.9,2.4-2.2V9.7c0-1.2-1.1-2.2-2.4-2.2H9.9
			c-1.4,0-2.4,0.9-2.4,2.2C7.5,9.7,7.5,15.2,7.5,15.2z"/>
	</g>
</g>
<g>
	<path class="st1" d="M9.2,11.5c0,0.9,0.7,1.6,1.6,1.6h4.4c0.9,0,1.6-0.7,1.6-1.6c0-0.9-0.7-1.6-1.6-1.6h-4.4
		C9.9,9.9,9.2,10.6,9.2,11.5C9.2,11.5,9.2,10.6,9.2,11.5z"/>
</g>
<g>
	<path class="st1" d="M11,8.9c0,0.2,0.2,0.4,0.4,0.4h3.3c0.2,0,0.4-0.2,0.4-0.4S15,8.4,14.7,8.4h-3.3C11.2,8.4,11,8.6,11,8.9
		C11,8.9,11,8.6,11,8.9z"/>
</g>
<circle class="st1" cx="15.9" cy="15.9" r="0.5"/>
<circle class="st1" cx="10.2" cy="15.9" r="0.5"/>
<g>
	<polyline class="st3" points="16,17.5 16.8,18.6 18.5,20.9 	"/>
	<g>
		<polyline class="st3" points="10.4,17.5 9.6,18.6 8,20.9 		"/>
		<line class="st3" x1="9.6" y1="18.6" x2="16.8" y2="18.6"/>
		<line class="st3" x1="8.3" y1="20.4" x2="18.1" y2="20.4"/>
	</g>
</g>
</svg>
