<?xml version="1.0" encoding="utf-8"?>
<!-- Generator: Adobe Illustrator 16.0.0, SVG Export Plug-In . SVG Version: 6.00 Build 0)  -->
<!DOCTYPE svg PUBLIC "-//W3C//DTD SVG 1.1//EN" "http://www.w3.org/Graphics/SVG/1.1/DTD/svg11.dtd">
<svg version="1.1" id="Capa_1" xmlns="http://www.w3.org/2000/svg" xmlns:xlink="http://www.w3.org/1999/xlink" x="0px" y="0px"
	 width="26.458px" height="33.042px" viewBox="0 0 26.458 33.042" enable-background="new 0 0 26.458 33.042" xml:space="preserve">
<g>
	<path fill="#20547E" d="M13.234,0.612c-6.706,0-12.318,5.701-12.318,12.511c0,4.119,2.184,6.812,4.991,9.982
		c2.494,2.848,5.146,4.658,7.327,9.568c2.343-4.91,4.995-6.721,7.486-9.568c2.653-3.171,4.993-5.863,4.993-9.982
		C25.713,6.312,20.102,0.612,13.234,0.612L13.234,0.612z"/>
	<path fill="#FFFFFF" d="M13.243,2.082c-5.944,0-10.919,4.991-10.919,10.951c0,3.604,1.936,5.962,4.424,8.736
		c2.211,2.49,4.561,4.076,6.496,8.375c2.075-4.299,4.428-5.885,6.637-8.375c2.353-2.775,4.425-5.132,4.425-8.736
		c0-5.961-4.974-10.951-11.059-10.951H13.243L13.243,2.082z"/>
</g>
<g>
	<path fill="#20547E" d="M17.567,10.307c1.487,1.042,2.786-0.045,2.786-0.045c1.206-1.17,0.625-2.738,0.625-2.738l0.269-0.299
		c0.008-0.56-0.563-0.661-0.563-0.661l-0.318,0.189c0,0-0.854-0.25-0.83,0.547c0,0-1.16,0.283-1.809,1.363
		c0,0-0.848-0.495-1.01,0.647L5.383,18.686c0,0,1.652-0.222,2.021-0.451C7.772,18.005,17.567,10.307,17.567,10.307z"/>
	<path fill="#FFFFFF" d="M18.508,9.628c1.578,0.43,1.584-1.09,1.584-1.09L18.508,9.628z"/>
	<path fill="#20547E" d="M9.061,10.307c-1.487,1.042-2.789-0.045-2.789-0.045C5.066,9.092,5.65,7.524,5.65,7.524L5.384,7.226
		c-0.008-0.56,0.559-0.665,0.559-0.665L6.261,6.75c0,0,0.854-0.25,0.83,0.548c0,0,1.161,0.282,1.808,1.363
		c0,0,0.846-0.496,1.009,0.647l11.336,9.377c0,0-1.652-0.223-2.02-0.451C18.859,18.005,9.061,10.307,9.061,10.307z"/>
	<path fill="#FFFFFF" d="M8.12,9.628c-1.577,0.43-1.587-1.09-1.587-1.09L8.12,9.628z"/>
</g>
</svg>
