<?xml version="1.0" encoding="utf-8"?>
<!-- Generator: Adobe Illustrator 16.0.0, SVG Export Plug-In . SVG Version: 6.00 Build 0)  -->
<!DOCTYPE svg PUBLIC "-//W3C//DTD SVG 1.1//EN" "http://www.w3.org/Graphics/SVG/1.1/DTD/svg11.dtd">
<svg version="1.1" id="Capa_1" xmlns="http://www.w3.org/2000/svg" xmlns:xlink="http://www.w3.org/1999/xlink" x="0px" y="0px"
	 width="26.458px" height="33.042px" viewBox="0 0 26.458 33.042" enable-background="new 0 0 26.458 33.042" xml:space="preserve">
<g>
	<path fill="#BF7D63" d="M13.234,0.612c-6.706,0-12.318,5.701-12.318,12.511c0,4.119,2.184,6.812,4.991,9.982
		c2.494,2.848,5.146,4.658,7.327,9.568c2.343-4.91,4.995-6.721,7.486-9.568c2.653-3.171,4.993-5.863,4.993-9.982
		C25.713,6.312,20.102,0.612,13.234,0.612L13.234,0.612z"/>
	<path fill="#FFFFFF" d="M13.243,2.082c-5.944,0-10.919,4.991-10.919,10.951c0,3.604,1.936,5.962,4.424,8.736
		c2.211,2.49,4.561,4.076,6.496,8.375c2.075-4.299,4.428-5.885,6.637-8.375c2.353-2.775,4.425-5.132,4.425-8.736
		c0-5.961-4.974-10.951-11.059-10.951H13.243L13.243,2.082z"/>
</g>
<g id="Capa_6">
	<g>
		<polygon fill="#CC5527" points="6.09,7.786 10.249,3.696 12.043,5.494 6.09,11.45 5.179,10.543 		"/>
		<path fill="#CC5527" d="M9.669,7.87L8.484,9.056l10.909,10.91c0.393-0.395,0.79-0.793,1.183-1.184L9.669,7.87z"/>
		<polygon fill="#CC5527" points="20.54,7.786 16.38,3.696 14.583,5.494 20.54,11.45 21.452,10.543 		"/>
		<path fill="#CC5527" d="M16.959,7.87l1.184,1.186L7.236,19.966c-0.394-0.395-0.79-0.793-1.186-1.184L16.959,7.87z"/>
	</g>
</g>
</svg>
