<?xml version="1.0" encoding="utf-8"?>
<!-- Generator: Adobe Illustrator 25.2.0, SVG Export Plug-In . SVG Version: 6.00 Build 0)  -->
<svg version="1.1" id="Capa_1" xmlns="http://www.w3.org/2000/svg" xmlns:xlink="http://www.w3.org/1999/xlink" x="0px" y="0px"
	 width="26.5px" height="33px" viewBox="0 0 26.5 33" style="enable-background:new 0 0 26.5 33;" xml:space="preserve">
<style type="text/css">
	.st0{fill:#CC6421;}
	.st1{fill:#FFFFFF;}
	.st2{fill:none;stroke:#CC6421;stroke-width:1.2;stroke-linejoin:round;stroke-miterlimit:10;}
</style>
<g>
	<path class="st0" d="M13.2,0.6C6.5,0.6,0.9,6.3,0.9,13.1c0,4.1,2.2,6.8,5,10c2.5,2.8,5.1,4.7,7.3,9.6c2.3-4.9,5-6.7,7.5-9.6
		c2.7-3.2,5-5.9,5-10C25.7,6.3,20.1,0.6,13.2,0.6L13.2,0.6z"/>
	<path class="st1" d="M13.2,2.1c-5.9,0-10.9,5-10.9,11c0,3.6,1.9,6,4.4,8.7c2.2,2.5,4.6,4.1,6.5,8.4c2.1-4.3,4.4-5.9,6.6-8.4
		c2.4-2.8,4.4-5.1,4.4-8.7C24.3,7.1,19.3,2.1,13.2,2.1L13.2,2.1L13.2,2.1z"/>
</g>
<g>
	<rect x="5.1" y="7.7" class="st2" width="16.2" height="10.8"/>
	<line class="st2" x1="13.2" y1="7.7" x2="13.2" y2="18.5"/>
	<line class="st2" x1="17.3" y1="7.7" x2="17.3" y2="18.5"/>
	<line class="st2" x1="13.2" y1="13.1" x2="21.4" y2="13.1"/>
</g>
</svg>
