<?xml version="1.0" encoding="utf-8"?>
<!-- Generator: Adobe Illustrator 25.2.0, SVG Export Plug-In . SVG Version: 6.00 Build 0)  -->
<svg version="1.1" id="Capa_1" xmlns="http://www.w3.org/2000/svg" xmlns:xlink="http://www.w3.org/1999/xlink" x="0px" y="0px"
	 width="26.5px" height="33px" viewBox="0 0 26.5 33" style="enable-background:new 0 0 26.5 33;" xml:space="preserve">
<style type="text/css">
	.st0{fill:#CC6421;}
	.st1{fill:#FFFFFF;}
</style>
<g>
	<path class="st0" d="M13.2,0.6C6.5,0.6,0.9,6.3,0.9,13.1c0,4.1,2.2,6.8,5,10c2.5,2.8,5.1,4.7,7.3,9.6c2.3-4.9,5-6.7,7.5-9.6
		c2.7-3.2,5-5.9,5-10C25.7,6.3,20.1,0.6,13.2,0.6L13.2,0.6z"/>
	<path class="st1" d="M13.2,2.1c-5.9,0-10.9,5-10.9,11c0,3.6,1.9,6,4.4,8.7c2.2,2.5,4.6,4.1,6.5,8.4c2.1-4.3,4.4-5.9,6.6-8.4
		c2.4-2.8,4.4-5.1,4.4-8.7C24.3,7.1,19.3,2.1,13.2,2.1L13.2,2.1L13.2,2.1z"/>
</g>
<g>
	<path class="st0" d="M20.5,9.1c-0.1-0.1-0.3-0.1-0.4,0l-3,1.5l0-1.1c0-0.2-0.2-0.4-0.4-0.4c-0.1,0-0.1,0-0.2,0l-3,1.5l0-1.1
		c0-0.2-0.2-0.4-0.4-0.4c-0.1,0-0.1,0-0.2,0L10,10.4L9.7,5.7C9.7,5.4,9.4,5,9,5H6.7C6.4,5,6.1,5.4,6,5.7L5.2,19.2
		c0,0.2,0.1,0.4,0.2,0.5C5.5,19.9,5.7,20,5.9,20h14.8c0.2,0,0.4-0.1,0.5-0.3c0.1-0.1,0.2-0.3,0.2-0.5c-0.2-4.3-0.7-9.6-0.7-9.7
		C20.7,9.3,20.6,9.2,20.5,9.1z"/>
	<g>
		<path class="st1" d="M10.6,13.2l1.4,0.8c0.1,0,0.1,0,0.1,0l1-1.7c-0.1-0.2-0.3-0.4-0.3-0.5c-0.2-0.3-0.4-0.5-0.7-0.5l0,0
			c-0.1,0-0.2,0-0.3,0.1c-0.2,0.1-0.4,0.3-0.5,0.5L10.6,13C10.6,13,10.6,13.1,10.6,13.2L10.6,13.2z"/>
		<path class="st1" d="M14.2,13.3L14.2,13.3L14.2,13.3L14.2,13.3L14.2,13.3L14.2,13.3L14.2,13.3L14.2,13.3L14.2,13.3L14.2,13.3
			L14.2,13.3L14.2,13.3L14.2,13.3L14.2,13.3L14.2,13.3L14.2,13.3l-0.4,0.3l1.9,0.2l0.6-1.7L16,12.2l0,0h0l0,0h0h0h-0.1l0,0
			c0,0,0,0-0.1,0l0,0v0l-0.5-0.9l0,0c-0.1-0.2-0.3-0.3-0.5-0.3c-0.3,0-1.1,0-1.7,0c0.1,0.1,0.2,0.2,0.2,0.3
			C13.3,11.8,14.1,13.2,14.2,13.3z"/>
		<path class="st1" d="M15.2,15l1,1.7h0.6c0.3,0,0.6-0.1,0.8-0.4l0,0c0.1-0.1,0.1-0.2,0.1-0.3c0-0.3,0-0.5-0.2-0.7l-0.8-1.3
			c0-0.1-0.1-0.1-0.1,0c0,0,0,0,0,0l-1.4,0.9C15.2,14.9,15.1,15,15.2,15z"/>
		<path class="st1" d="M14.7,17L14.7,17L14.7,17L14.7,17L14.7,17L14.7,17L14.7,17L14.7,17L14.7,17L14.7,17L14.7,17L14.7,17L14.7,17
			l-0.1-0.5l-1.1,1.6l1.2,1.4v-0.4l0,0c0,0,0,0,0,0l0,0v0l0,0l0,0l0,0c0,0,0,0,0-0.1l0,0l0.1,0h0h1.1l0,0c0.2,0,0.4-0.1,0.5-0.3
			c0.1-0.2,0.5-0.9,0.9-1.5c-0.1,0-0.3,0-0.4,0C16.4,17,14.8,17,14.7,17z"/>
		<path class="st1" d="M12.8,16.9l-2,0c-0.1,0.2-0.2,0.4-0.3,0.5c-0.2,0.3-0.2,0.6-0.1,0.9l0,0c0.1,0.1,0.1,0.2,0.2,0.2
			c0.2,0.1,0.4,0.2,0.7,0.2h1.5c0.1,0,0.1,0,0.1-0.1l0,0V17C12.9,17,12.8,16.9,12.8,16.9L12.8,16.9z"/>
		<path class="st1" d="M10,17.7c0-0.1,0.1-0.2,0.2-0.4c0.2-0.3,1-1.8,1.1-1.8l0,0l0,0l0,0l0,0l0,0l0,0l0,0h0.1l0,0l0,0l0.4,0.2
			L11,14l-1.8,0.3l0.4,0.2l0,0h0l0,0l0,0l0,0l0,0l0,0c0,0,0,0,0,0.1l0,0c0,0,0,0.1,0,0.1l0,0v0l-0.5,0.9l0,0c-0.1,0.2-0.1,0.4,0,0.6
			C9.3,16.5,9.7,17.2,10,17.7z"/>
	</g>
</g>
</svg>
